<svg width="30" height="30" viewBox="0 0 30 30" fill="none" xmlns="http://www.w3.org/2000/svg">
<path d="M9.95779 18.1472C9.95779 17.9903 10.2715 17.8061 10.2715 17.8061C10.2988 17.7482 10.3295 17.6936 10.3568 17.6356L10.3773 16.7012C10.4625 16.5613 10.4864 16.575 10.367 16.4692C10.367 16.4692 10.3568 16.1521 10.3875 16.118C10.4216 16.0805 10.4421 15.9236 10.4421 15.9236L10.4216 14.6617C10.4182 14.3036 10.4216 13.9455 10.4182 13.5874C10.4148 13.2293 10.4046 12.8712 10.4011 12.5132C10.3909 12.0289 10.3807 11.5412 10.367 11.0569C10.3261 10.9341 10.2272 10.8966 10.1078 10.8932C10.0089 10.8898 9.93391 10.8284 9.84865 10.7738C9.77703 10.7159 9.73952 10.617 9.92368 10.559C9.99871 10.5556 10.0772 10.5522 10.1522 10.5453C10.3261 10.5488 10.4728 10.5692 10.6501 10.5726C10.8513 10.576 11.0866 10.5658 11.2913 10.5692C11.2913 10.5692 11.4788 10.5863 11.3902 10.7636C11.3902 10.8352 11.3254 10.9103 11.2265 10.9103C11.1276 10.9103 11.0082 11.1524 11.0082 11.1524V11.3093C11.0798 11.3673 11.1344 11.4116 11.1344 11.4627C11.1344 11.531 11.0628 11.5753 11.0048 11.6674C11.0184 12.4245 11.0253 13.2123 11.0423 13.966C11.073 14.1092 11.1037 14.1809 11.0935 14.2422C11.0866 14.29 11.0594 14.3343 10.957 14.3684V14.8425C10.9809 14.9721 10.9843 15.1324 11.0116 15.262C11.0014 15.3643 11.0491 15.4359 11.0389 15.5348C11.0014 15.5859 10.9298 15.6405 10.8922 15.6917V15.8485C10.9093 15.8724 10.9298 15.8963 10.9468 15.9202C10.9536 16.0566 10.9605 16.1964 10.9673 16.3328C10.9877 16.3806 11.0116 16.4283 11.0321 16.4795V17.0251C10.9911 17.0831 10.9536 17.1377 10.9127 17.1957C10.9263 17.3048 10.94 17.4139 10.957 17.5231C11.1003 17.6356 11.2981 17.7106 11.4413 17.8232C11.5402 17.888 11.5709 18.1097 11.4311 18.1233C11.4311 18.1233 11.2708 18.096 11.2162 18.096C11.1617 18.096 11.1514 18.1676 11.0423 18.0824C10.9332 17.9971 10.483 18.0824 10.3739 18.0824C10.2647 18.0824 10.2204 18.1915 10.1147 18.2631C10.0021 18.3416 9.95779 18.1472 9.95779 18.1472ZM8.00361 17.0047C7.97633 17.2298 8.05477 17.489 8.00361 17.7106C7.95246 17.946 7.76147 18.1097 7.68986 18.3382C7.62506 18.536 7.64552 18.8224 7.54321 18.9486C7.37269 19.0032 7.16124 19.1226 7.02823 19.2215C6.83384 19.3681 6.70765 19.5318 6.64627 19.5386C6.57124 19.6068 6.40754 19.5625 6.31545 19.5966C6.22678 19.6307 6.21996 19.7023 6.12788 19.6887C6.05626 19.6785 6.07672 19.6205 6.02216 19.5727C5.98805 19.5455 5.92667 19.542 5.89256 19.5727C5.70158 19.7262 5.84482 19.6853 5.62655 19.6648C5.40487 19.6444 4.97516 19.7126 4.70573 19.658C4.54544 19.6239 4.51475 19.5455 4.57273 19.5011C4.60683 19.4738 4.69891 19.4738 4.73984 19.4568C4.80123 19.4295 4.86261 19.392 4.89672 19.3476C4.95811 19.2692 4.92059 19.0919 4.99562 18.9486C5.06724 18.3382 5.0877 17.5265 5.01608 17.2571C4.97175 16.8376 5.01608 15.4427 5.01608 15.2654C5.06383 15.1801 5.08088 15.1733 5.08088 15.0232C5.08088 14.9652 5.12181 14.8732 5.07747 14.8016C5.01608 14.7333 5.03654 14.4639 5.02972 14.3104C5.0229 14.0854 5.03996 14.0854 5.10134 13.8807C5.12522 13.8023 5.13204 13.7102 5.10134 13.6386C5.05019 13.5192 4.97516 13.6556 4.98198 13.4169C4.99562 12.8337 5.01608 12.2471 4.99903 11.664C5.00244 11.6128 5.0877 11.6026 5.10475 11.5548C5.12522 11.4934 5.13204 11.415 5.10475 11.357C5.0877 11.3229 4.99903 11.3673 4.97175 11.34C4.80805 11.1831 4.60342 11.0876 4.51134 10.8796C4.47383 10.7977 4.53521 10.6204 4.61024 10.5829C4.73984 10.5181 4.97857 10.5863 5.1184 10.5624C5.19342 10.5488 5.24117 10.5044 5.31961 10.501C5.91643 10.4737 6.53031 10.4157 7.12373 10.4737C7.21922 10.484 7.24991 10.6511 7.33858 10.692C7.45795 10.75 7.63188 10.7363 7.72396 10.8352C7.87061 10.9921 7.97633 11.1217 7.99338 11.3366C8.01726 11.6026 8.06159 11.9027 8.05818 12.1073C8.05477 12.2778 8.00361 12.4313 7.92859 12.5814C7.82286 12.7826 7.70009 12.9702 7.56367 13.1714C7.48523 13.2873 7.34881 13.393 7.31471 13.5226C7.2806 13.6591 7.63188 13.5602 7.7035 13.6761C7.77171 13.7887 7.64552 13.9251 7.68303 14.0513C7.71714 14.1672 7.91494 14.1774 7.93882 14.2934C8.0002 14.5969 7.8672 14.9175 7.91835 15.221C7.93541 15.3199 8.08887 15.3233 8.10593 15.4188C8.12298 15.6303 8.11616 15.8554 8.11957 16.077C8.12298 16.3158 8.1298 16.5545 8.12639 16.783C8.12639 16.8683 8.01385 16.9194 8.00361 17.0047ZM6.25748 12.2028C6.25748 12.254 6.27112 13.1884 6.27112 13.1884C6.38025 13.1918 6.428 13.2021 6.4621 13.1884C6.49621 13.1748 6.51326 13.1373 6.56442 13.0418C6.62921 12.919 6.72129 12.7655 6.79973 12.7553C6.92933 12.7348 6.99754 12.7178 6.99754 12.7178C6.99754 12.7178 7.06575 12.7041 7.04188 12.537C7.018 12.3699 6.97026 12.2062 7.01118 12.1619C7.05211 12.1175 7.06234 11.988 7.018 11.9334C6.97367 11.8822 6.92933 11.8311 7.00436 11.7595C7.07598 11.6878 7.12714 11.5685 6.9532 11.5889C6.77927 11.6094 6.77927 11.5344 6.76222 11.4798C6.74176 11.4286 6.55077 11.4389 6.45187 11.4355C6.35297 11.4559 6.26771 11.4491 6.27112 11.5514C6.27112 11.6503 6.25407 12.1517 6.25748 12.2028ZM6.97367 16.3226C6.98049 16.2442 7.02482 16.1657 7.0828 16.0361C7.1169 15.9509 7.09985 15.9543 7.03846 15.8861C6.97367 15.811 6.94638 15.7531 6.93956 15.6917C6.92933 15.5928 6.97708 15.4939 7.01459 15.3336C7.06234 15.1221 6.90546 15.0642 6.96002 14.8527C7.018 14.6276 6.87817 14.614 6.73494 14.4741C6.6565 14.3991 6.57806 14.3241 6.50303 14.2491C6.40071 14.1502 6.34615 14.0751 6.31545 14.0649C6.28476 14.0547 6.28135 14.1092 6.28135 14.2763C6.28135 14.4537 6.26089 14.5969 6.26089 14.7743C6.24042 14.8322 6.21655 14.8936 6.19609 14.9516C6.20973 15.071 6.22337 15.1869 6.24042 15.3063C6.24042 15.4461 6.20632 15.5587 6.20632 15.6985C6.08696 15.8417 6.01534 15.8383 6.16198 15.9645C6.16198 16.1077 6.18245 16.2544 6.18245 16.401V17.3594C6.13811 17.4173 6.09719 17.4787 6.05285 17.5367C6.06649 17.8539 6.08013 18.171 6.09719 18.4848C6.04603 18.5803 5.99828 18.6758 5.94713 18.7713C6.08355 18.7201 6.18586 18.7133 6.32228 18.6621C6.44505 18.5462 6.60875 18.4337 6.73494 18.3041C6.87476 18.1608 6.90205 18.154 6.91569 17.9562C6.92592 17.8232 6.93615 17.6936 6.94297 17.5606C6.98731 17.3867 7.02823 17.2127 7.07257 17.0388C7.11008 16.8921 7.11349 16.7966 7.07257 16.65C7.02141 16.4692 6.96685 16.4249 6.97367 16.3226ZM11.796 17.7447C11.7892 17.7891 11.6869 17.7891 11.6937 17.8334C11.7039 17.8948 11.7073 17.9903 11.7721 18.0005C11.9529 18.0244 12.1984 17.9528 12.3792 17.9869C12.4508 18.0005 12.4542 18.1199 12.519 18.1506H12.7202C12.7714 18.1233 12.7577 18.0278 12.8089 17.9971C12.8703 17.9596 12.9556 17.946 13.0238 17.9732C13.0613 17.9869 13.0101 18.0824 13.0476 18.0858C13.3648 18.0721 13.6445 18.1097 13.9446 18.0858C14.0026 18.0756 13.9446 17.9903 13.9923 17.9562C14.0469 17.9153 14.1867 17.9869 14.1935 17.9187C14.2413 17.5674 14.1663 17.1752 14.2004 16.8205C14.2106 16.708 14.3197 16.6398 14.3436 16.5306C14.3504 16.4931 14.3947 16.4931 14.3982 16.4556C14.4118 16.3294 14.4084 16.176 14.3777 16.0498C14.3368 16.0054 14.2038 15.9918 14.1628 16.0088C14.1151 16.0429 14.1594 16.1691 14.1253 16.2203C14.1083 16.2442 14.0537 16.1964 14.0367 16.2203C14.0196 16.2442 14.0401 16.2851 14.0469 16.3158C14.0503 16.3362 14.0503 16.3499 14.0367 16.3601C13.9548 16.401 13.832 16.3021 13.757 16.3601C13.6854 16.4147 13.7672 16.5238 13.7058 16.592C13.6069 16.7012 13.3955 16.766 13.2966 16.8751C13.1806 17.0047 13.1909 17.1411 13.0545 17.2536C12.9487 17.3423 12.7714 17.3525 12.6452 17.4037C12.4986 17.4651 12.4269 17.5742 12.2735 17.6186C12.2257 17.6322 12.1712 17.5504 12.1848 17.506C12.3007 17.1343 12.4474 16.7591 12.5736 16.3908C12.652 16.1555 12.6895 16.0054 12.7748 15.7701C12.8635 15.528 12.9794 15.2279 13.1261 15.013C13.1534 14.9721 13.2488 14.9994 13.2659 14.9482C13.3034 14.8288 13.2318 14.689 13.2659 14.5696C13.2898 14.4776 13.3853 14.3923 13.4637 14.3411C13.5183 14.307 13.6035 14.3548 13.624 14.2968C13.6786 14.1604 13.6274 14.0137 13.6615 13.8705C13.6854 13.775 13.7502 13.7136 13.7945 13.625C13.8491 13.5056 13.8457 13.3999 13.9071 13.2839C13.9582 13.1884 14.0639 13.0554 14.0946 12.9531C14.1356 12.8099 14.1015 12.7417 14.1151 12.595C14.1185 12.5541 14.1765 12.5336 14.1799 12.4927C14.2004 12.0152 14.2242 11.5378 14.1969 11.0603C14.1935 11.0228 14.1083 11.0228 14.1083 10.9853C14.1117 10.8386 14.1287 10.7125 14.1219 10.5794C14.1219 10.5522 14.1287 10.5317 14.1049 10.5317C13.7093 10.5146 13.3171 10.5249 12.9214 10.5283C12.5975 10.5317 12.2701 10.5044 11.9461 10.5283C11.8983 10.5317 11.854 10.5385 11.8199 10.576C11.7892 10.6101 11.7721 10.6852 11.7721 10.7295C11.7824 10.941 11.7687 11.1729 11.7721 11.4252C11.7721 11.473 11.8642 11.4457 11.8813 11.49C11.9256 11.6128 11.929 11.7526 11.9188 11.8822C11.9154 11.9232 11.8642 11.9811 11.8642 12.0221C11.8847 12.1687 11.9051 12.271 11.929 12.4143C11.9461 12.4688 11.9904 12.5097 12.004 12.5677C12.0211 12.6325 11.9597 12.7655 12.0279 12.7689C12.0518 12.7689 12.1268 12.7826 12.1677 12.7689C12.2189 12.7519 12.1473 12.6564 12.1677 12.6052C12.1814 12.5677 12.2496 12.5677 12.2564 12.5302C12.2905 12.3222 12.2325 12.0766 12.2632 11.8686C12.2735 11.8038 12.311 11.739 12.3655 11.7049C12.4133 11.6776 12.4951 11.7492 12.5292 11.7049C12.577 11.6435 12.5292 11.5753 12.5599 11.5037C12.6009 11.4014 12.6691 11.3093 12.7509 11.2377C12.826 11.1729 12.901 11.091 12.9999 11.0808C13.2216 11.0569 13.4876 11.0774 13.7877 11.0671C13.815 11.0671 13.8252 11.1081 13.8252 11.1388C13.8354 11.2786 13.8627 11.4662 13.8252 11.5582C13.7741 11.6878 13.6547 11.8345 13.5353 11.9709C13.4535 12.063 13.3716 12.1448 13.3068 12.2403C13.2318 12.3529 13.3443 12.5063 13.3068 12.6359C13.2659 12.7689 13.1602 12.9088 13.0749 13.0179C13.0067 13.1066 12.9044 13.1543 12.8396 13.2464C12.7577 13.3624 12.7134 13.4783 12.6623 13.6079C12.6213 13.717 12.594 13.833 12.5736 13.9489C12.5599 14.041 12.6009 14.1433 12.5599 14.2286C12.5292 14.29 12.461 14.2798 12.4167 14.3309C12.3553 14.4025 12.3178 14.4946 12.2905 14.5833C12.2564 14.689 12.253 14.7538 12.1984 14.8493C12.137 14.9584 12.0143 15.0642 11.9597 15.1767C11.8983 15.2995 11.8915 15.4495 11.8608 15.5825C11.8301 15.7121 11.8062 15.8315 11.7824 15.9611C11.7483 16.118 11.7142 16.2817 11.7176 16.442C11.7176 16.4897 11.7721 16.5238 11.7926 16.5682C11.8131 16.6057 11.8574 16.6432 11.8438 16.6807C11.8267 16.7353 11.7244 16.7387 11.7176 16.7932C11.7107 16.8512 11.7244 16.9058 11.7653 16.9467C11.8028 16.9808 11.8779 16.9672 11.9051 17.0115C11.9324 17.0593 11.929 17.1275 11.9051 17.1752C11.8847 17.2161 11.8165 17.2059 11.8096 17.2502C11.7824 17.4344 11.8267 17.564 11.796 17.7447ZM25.3422 14.2354C25.3149 14.4162 25.3695 14.6003 25.3559 14.7845C25.349 14.8732 25.3013 14.9618 25.257 15.0369C25.2228 15.0914 25.1478 15.1119 25.1239 15.1699C25.0591 15.3233 25.0762 15.5348 25.0455 15.7019C25.0353 16.0191 25.0421 16.268 25.0557 16.5852C25.066 16.8103 25.0898 17.0115 25.0591 17.2332C25.0489 17.3116 24.9841 17.3525 24.9739 17.431C24.9432 17.6424 24.9705 17.8641 24.95 18.0756C24.9466 18.1131 24.892 18.154 24.8852 18.1915C24.8716 18.3859 24.8579 18.6724 24.7727 18.8941C24.7181 19.0407 24.5783 19.1874 24.4487 19.2692C24.3225 19.3511 24.1861 19.3681 24.0394 19.4056C23.9473 19.4295 23.8416 19.4193 23.7598 19.4602C23.7086 19.4875 23.7427 19.4875 23.695 19.5216C23.6677 19.542 23.6234 19.542 23.5961 19.5216C23.562 19.4909 23.5722 19.4807 23.5313 19.4602C23.4665 19.4295 23.3846 19.4329 23.3198 19.4602C23.2721 19.4807 23.2891 19.5182 23.2414 19.525C23.1425 19.5454 23.0231 19.5693 22.914 19.5659C22.8492 19.5659 22.798 19.5932 22.781 19.5352C22.7571 19.4602 22.8151 19.4465 22.856 19.4056C22.914 19.3476 22.9686 19.2931 22.9924 19.1771C23.0027 19.1328 23.0436 19.0646 23.0538 18.9964C23.0675 18.8975 23.047 18.7917 23.0197 18.7269C22.9822 18.6417 22.9242 18.5974 22.9447 18.5155C22.9515 18.4643 23.0709 18.4575 23.163 18.4166C23.2107 18.3961 23.2516 18.3518 23.2687 18.3143C23.2891 18.2631 23.2209 18.27 23.1868 18.2052C23.1493 18.1335 23.1459 18.0278 23.1152 17.9767C23.0675 17.8846 22.9754 17.7618 22.972 17.6595C22.9617 17.3832 23.0436 17.1036 23.0538 16.8342C23.064 16.6091 23.1152 16.5579 23.0982 16.3294C23.0913 16.2169 23.0299 16.1316 22.9651 16.0157C22.914 15.9202 22.8424 15.8247 22.8185 15.7326C22.7708 15.5689 22.8185 15.3779 22.7912 15.2108C22.7844 15.1767 22.7025 15.1392 22.7025 15.1051C22.6821 14.8766 22.706 14.6413 22.6923 14.4162C22.6855 14.3752 22.6514 14.365 22.648 14.3241C22.6343 14.1979 22.648 14.0751 22.648 13.966C22.648 13.8705 22.6343 13.7852 22.6343 13.6761C22.6343 13.6352 22.6002 13.6045 22.5968 13.5636C22.59 13.318 22.6002 13.0452 22.5968 12.7962C22.5934 12.5336 22.5764 12.2949 22.5968 12.0323C22.6002 11.9879 22.6889 11.9879 22.6889 11.9436C22.6821 11.7424 22.6616 11.664 22.6684 11.4593C22.6684 11.4355 22.7162 11.3809 22.7196 11.357C22.7332 11.1899 22.7537 11.0194 22.7128 10.8762C22.6821 10.7704 22.6036 10.7397 22.515 10.6715C22.4365 10.6135 22.3479 10.5146 22.2728 10.4601C22.1773 10.3919 22.1159 10.3339 22.0443 10.2316C22 10.1702 22.0716 10.1634 22.1501 10.16C22.2524 10.1566 22.3615 10.1668 22.457 10.1804C22.4911 10.1838 22.5525 10.2418 22.5832 10.252C22.6582 10.2793 22.706 10.2418 22.781 10.2657C22.839 10.2827 23.0811 10.4089 23.1459 10.4464C23.2346 10.4976 23.2653 10.5726 23.3573 10.617C23.3744 10.6238 23.6609 10.7056 23.695 10.7159C23.7734 10.7363 23.8212 10.6783 23.8996 10.6988C23.9883 10.7227 24.152 10.767 24.2509 10.7977C24.3089 10.8148 24.343 10.883 24.4009 10.8932C24.684 10.9512 24.6328 10.8557 24.8579 11.0808C24.9227 11.1456 25.0319 11.2001 25.083 11.2786C25.1512 11.3911 25.1615 11.5275 25.2058 11.6503C25.2399 11.7458 25.3183 11.8243 25.3354 11.9232C25.3831 12.196 25.332 12.4791 25.3661 12.7519C25.3763 12.8371 25.4616 12.9224 25.4718 13.0077C25.5059 13.3282 25.5127 13.6454 25.4718 13.966C25.4513 14.0854 25.3593 14.1297 25.3422 14.2354ZM24.684 13.3419C24.6158 13.1304 24.5374 12.9019 24.3702 12.7417C24.3293 12.7007 24.2884 12.6632 24.2475 12.6223C24.169 12.4961 24.1417 12.4518 24.0121 12.3801C23.886 12.3119 23.8587 12.3188 23.7189 12.329C23.4938 12.3392 23.4392 12.2574 23.4426 12.4995C23.446 12.8883 23.4528 13.2805 23.4562 13.6727C23.4597 13.8296 23.4494 13.9285 23.521 14.0649C23.579 14.2388 23.6131 14.3207 23.6199 14.5014C23.6984 14.5901 23.695 14.6174 23.7018 14.7368C23.695 15.2995 23.6882 15.8588 23.6847 16.4215C23.6813 16.9501 23.6779 17.4787 23.6779 18.0073C23.6779 18.1131 23.6984 18.1813 23.7291 18.1949C23.7598 18.2086 23.8041 18.171 23.8519 18.0619C23.8928 17.9698 23.9303 17.8812 23.9712 17.7891C24.036 17.639 24.0701 17.564 24.0701 17.4003C24.0701 17.2605 24.1042 17.182 24.169 17.0593C24.2816 16.8035 24.3327 16.6705 24.3361 16.3942L24.3566 15.0948C24.36 14.9721 24.3532 14.9107 24.3737 14.8595C24.4453 14.672 24.5169 14.7095 24.5442 14.4605C24.5544 14.3718 24.5783 14.29 24.6328 14.1877C24.7454 13.9762 24.6976 13.5704 24.684 13.3419ZM14.5107 19.0441C14.5653 19.1362 14.729 19.1089 14.8347 19.085C14.9097 19.068 14.9677 18.9998 15.0461 18.9896C15.2644 18.9554 15.51 18.9998 15.7248 18.9554C15.8442 18.9316 15.8544 18.8327 15.9738 18.8054C16.0761 18.7815 16.25 18.7883 16.3455 18.8293C16.3796 18.8429 16.3592 18.9111 16.3967 18.9145C16.7684 18.9145 17.1129 18.8872 17.4846 18.9043C17.5392 18.8975 17.5699 18.8429 17.5767 18.7849C17.6074 18.5257 17.5971 18.2597 17.5767 17.9971C17.5733 17.946 17.5289 17.9153 17.5153 17.8675C17.5016 17.8061 17.4914 17.7345 17.5153 17.6731C17.5289 17.6458 17.5903 17.6731 17.6074 17.6458C17.6347 17.6015 17.6142 17.5469 17.6005 17.4958C17.5869 17.4378 17.5869 17.3628 17.5323 17.3491C17.3925 17.3116 17.2663 17.373 17.1231 17.3491C17.0822 17.3423 17.0719 17.2434 17.0344 17.2605C16.9662 17.2843 16.9628 17.3867 16.9048 17.4276C16.7957 17.5128 16.6388 17.5708 16.516 17.6356C16.3012 17.7447 16.0795 17.7993 15.8851 17.946C15.8237 17.9937 15.9056 18.1438 15.8339 18.1779C15.6771 18.2495 15.452 18.2222 15.319 18.2052C15.2064 18.0756 15.4111 17.9187 15.4281 17.7482C15.4929 17.5742 15.6259 17.4173 15.6702 17.2366C15.718 17.049 15.6566 16.8239 15.6941 16.6329C15.7214 16.4863 15.851 16.3669 15.8749 16.2203C15.926 15.8895 15.8169 15.5416 15.8851 15.2142C15.909 15.0983 16.0727 15.0539 16.117 14.9448C16.1545 14.8561 16.0931 14.7538 16.117 14.6617C16.1341 14.6003 16.2125 14.5662 16.233 14.5083C16.2807 14.3684 16.308 14.2115 16.3523 14.0683C16.3694 14.0069 16.4376 13.9626 16.4444 13.9012C16.4683 13.6113 16.4069 13.3146 16.4444 13.0247C16.4581 12.919 16.5365 12.844 16.5672 12.7417C16.6183 12.5541 16.5808 12.346 16.6456 12.1619C16.6661 12.1073 16.7786 12.138 16.7991 12.0834C16.84 11.9743 16.7718 11.8447 16.8127 11.7356C16.84 11.6571 16.9935 11.6435 17.0208 11.5685C17.0685 11.4423 17.0208 11.2956 17.0651 11.1694C17.0924 11.0944 17.1742 11.0501 17.2118 10.9785C17.28 10.8455 17.3823 10.7022 17.372 10.5522C17.3652 10.4771 17.2697 10.4498 17.1981 10.4464C16.7036 10.4328 16.2023 10.4498 15.7078 10.4533C15.4247 10.4533 15.0325 10.4533 14.7869 10.4567C14.6403 10.4567 14.6028 10.4362 14.5994 10.5863C14.5926 11.0092 14.6471 11.4491 14.6062 11.8925C14.6028 11.9334 14.5141 11.9163 14.5039 11.9573C14.4834 12.0323 14.5243 12.1107 14.5312 12.1892C14.5346 12.2881 14.5073 12.3904 14.5312 12.4859C14.5448 12.5336 14.5857 12.5507 14.6335 12.5507C14.6812 12.5507 14.6983 12.5166 14.7358 12.4859C14.8074 12.4279 14.9541 12.404 14.9882 12.3188C15.0802 12.1039 15.0223 11.8549 15.0973 11.6367C15.145 11.49 15.1485 11.3775 15.2712 11.2854C15.3633 11.2172 15.4895 11.2172 15.6191 11.2274C15.6805 11.2513 15.6805 11.3536 15.7419 11.3741C15.8646 11.4184 16.0488 11.2786 16.1272 11.3775C16.1068 11.4832 16.1102 11.6503 16.0624 11.7765C16.0113 11.9061 15.8987 12.0118 15.8305 12.138C15.718 12.3495 15.643 12.4961 15.5782 12.728C15.5441 12.844 15.5816 13.0281 15.5475 13.1441C15.5134 13.2669 15.3701 13.3351 15.3292 13.4544C15.2951 13.5567 15.3633 13.6761 15.3292 13.7784C15.3019 13.8535 15.2064 13.85 15.1962 13.9285C15.186 13.9933 15.2576 14.0376 15.278 14.099C15.2951 14.1467 15.2815 14.2047 15.2644 14.2525C15.2064 14.4128 15.1757 14.3616 15.1143 14.5219C15.0154 14.7743 14.8415 15.1869 14.8074 15.4564C14.7631 15.8008 14.7767 16.1794 14.8245 16.5238C14.8381 16.6193 14.9131 16.6875 14.9302 16.783C14.9575 16.9365 14.9472 17.0934 14.9302 17.2468C14.9268 17.2843 14.8927 17.3014 14.8893 17.3355C14.8688 17.4753 14.9097 17.622 14.8756 17.7618C14.8688 17.7925 14.7938 17.7345 14.7869 17.7618C14.7597 17.8505 14.8279 17.9596 14.7869 18.0449C14.7563 18.1063 14.671 18.0926 14.6301 18.1472C14.5994 18.1847 14.5926 18.2495 14.6164 18.2904C14.6335 18.3211 14.6574 18.2768 14.6676 18.3075C14.688 18.362 14.6608 18.4268 14.6301 18.4746C14.6096 18.5053 14.5312 18.4712 14.5278 18.5087C14.4971 18.6621 14.4664 18.8327 14.5107 19.0441ZM8.76414 19.6512C8.979 19.5761 8.979 19.392 9.18362 19.2965C9.29275 19.2453 9.5042 19.259 9.62357 19.2931C9.70542 19.317 9.71906 19.3613 9.84865 19.3715C10.4591 19.4056 11.0457 19.3408 11.6562 19.3852C11.7176 19.3886 11.7244 19.5045 11.7824 19.5113C12.045 19.5489 12.3076 19.4807 12.5702 19.5148C12.6691 19.525 12.7782 19.6171 12.8737 19.6409C12.9385 19.658 13.0101 19.6 13.0715 19.6273C13.1261 19.6512 13.1261 19.7671 13.184 19.7671C13.491 19.7808 13.7741 19.7569 14.0571 19.7603C14.2072 19.7603 14.1833 19.7092 14.1253 19.6034C14.0878 19.5386 14.0298 19.4977 14.0162 19.4295C13.9548 19.1055 14.1424 18.4916 13.9684 18.4848C13.6649 18.4507 13.1397 18.4712 12.7305 18.4746C12.2973 18.478 11.8983 18.4405 11.4686 18.4985C11.3697 18.5121 11.3117 18.6144 11.2162 18.6417C11.0525 18.686 10.8718 18.6792 10.7047 18.6519C10.5785 18.628 10.483 18.5462 10.3568 18.5564C10.2511 18.5667 10.2067 18.7099 10.1044 18.7372C9.92368 18.7849 9.69859 18.7986 9.51784 18.7474C9.46328 18.7304 9.53148 18.628 9.5042 18.5769C9.48715 18.5462 9.40189 18.5701 9.4053 18.536C9.40871 18.4712 9.50761 18.4439 9.51784 18.3791C9.54513 18.212 9.49397 18.038 9.51784 17.8709C9.52125 17.8368 9.59628 17.8471 9.6031 17.813C9.62015 17.7004 9.55536 17.5845 9.57582 17.4753C9.58264 17.4344 9.65426 17.4412 9.67472 17.4037C9.70542 17.3491 9.70542 17.298 9.68836 17.2366C9.67813 17.1923 9.64062 17.2127 9.61675 17.1752C9.59628 17.1343 9.60992 17.0593 9.63721 17.0217C9.67472 16.9672 9.79409 16.9262 9.79068 16.8614C9.78386 16.725 9.76339 16.6602 9.77362 16.5238C9.77703 16.4727 9.67813 16.4283 9.6679 16.3772C9.65426 16.2919 9.66449 16.1998 9.66449 16.1146C9.66449 16.0498 9.64403 15.9884 9.67472 15.9304C9.70542 15.8758 9.73952 15.7872 9.74293 15.7155C9.76339 15.2108 9.81114 14.7061 9.75998 14.2047C9.74975 14.1161 9.60651 14.082 9.59969 13.9933C9.54513 13.4647 9.55536 12.9292 9.58605 12.3972C9.58946 12.3563 9.6679 12.3801 9.67813 12.3392C9.70542 12.2301 9.70201 12.0971 9.66449 11.9914C9.64744 11.947 9.58264 11.9675 9.55877 11.9266C9.52466 11.8686 9.51443 11.797 9.53148 11.7322C9.54172 11.6947 9.61333 11.7117 9.61675 11.6742C9.62698 11.5616 9.60992 11.4491 9.60992 11.34C9.61333 11.2138 9.63039 11.091 9.58946 10.9716C9.55536 10.8762 9.49738 10.8455 9.43258 10.7807C9.38143 10.7295 9.32686 10.634 9.26206 10.5897C9.21772 10.559 9.12905 10.6033 9.08131 10.5794C9.00969 10.5453 9.00287 10.4464 8.92443 10.4294C8.74368 10.3885 8.56292 10.4703 8.38217 10.443C8.34125 10.4362 8.34125 10.3578 8.30373 10.3373C8.2594 10.3134 8.1946 10.3066 8.15367 10.3373C8.09911 10.3782 8.06159 10.4805 8.0957 10.5385C8.14685 10.6306 8.23893 10.6749 8.30373 10.7397C8.37535 10.8045 8.4231 10.8864 8.50836 10.958C8.54246 10.9853 8.6209 10.9648 8.64818 10.9989C8.6857 11.0467 8.67547 11.0978 8.70275 11.1524C8.7198 11.1831 8.77437 11.2138 8.7846 11.2479C8.80847 11.3502 8.81188 11.4593 8.7846 11.5582C8.77096 11.6128 8.70957 11.6469 8.68911 11.6981C8.67206 11.7424 8.65159 11.7833 8.67206 11.8277C8.69252 11.872 8.75732 11.8652 8.76755 11.9129C8.80165 12.063 8.77778 12.2301 8.78119 12.3801C8.7846 12.4756 8.57316 12.4791 8.57316 12.578C8.56974 12.7041 8.5868 12.8644 8.59021 13.0349C8.59362 13.1987 8.6857 13.1475 8.68911 13.185C8.7198 13.5874 8.66524 13.9694 8.69934 14.3752C8.70275 14.4094 8.77437 14.4128 8.78801 14.4435C8.82212 14.5117 8.8153 14.5969 8.79483 14.6685C8.78119 14.7129 8.70957 14.7061 8.70275 14.7538C8.67206 15.03 8.75391 15.3131 8.71639 15.5859C8.70957 15.6371 8.63113 15.6098 8.60385 15.6576C8.56974 15.7258 8.60044 15.7531 8.60726 15.8281C8.61067 15.8758 8.59703 15.9781 8.60385 16.0259C8.61067 16.0873 8.62431 16.1521 8.60385 16.2101C8.59362 16.2407 8.522 16.2373 8.51859 16.268C8.50495 16.4386 8.51518 16.6057 8.51177 16.7694C8.50836 16.9262 8.49472 17.0934 8.522 17.2502C8.53564 17.3355 8.66865 17.3355 8.71639 17.4071C8.74027 17.4412 8.73686 17.4992 8.71639 17.5333C8.69593 17.5708 8.61408 17.5606 8.60385 17.6049C8.57657 17.7004 8.63113 17.772 8.60385 17.8675C8.59021 17.9187 8.51859 17.8982 8.51177 17.9971C8.49813 18.1506 8.50154 18.3041 8.51859 18.4575C8.53905 18.628 8.56974 18.5087 8.61749 18.5667C8.63795 18.5905 8.63454 18.6383 8.61749 18.6656C8.59703 18.6997 8.52882 18.6963 8.51859 18.7372C8.48789 18.8668 8.5561 19.0134 8.48448 19.1226C8.36171 19.3101 8.0957 19.334 7.96269 19.5113C7.92859 19.5557 8.01385 19.6682 8.07182 19.6819C8.12298 19.6955 8.20824 19.6546 8.2594 19.6546C8.41628 19.6512 8.60385 19.7057 8.76414 19.6512ZM19.4456 17.1786C19.4422 17.223 19.391 17.2434 19.3774 17.2843C19.3194 17.4378 19.2717 17.5231 19.2341 17.6799C19.2137 17.7652 19.2137 17.8539 19.1796 17.9323C19.1591 17.9801 19.0602 18.021 19.0432 18.0687C19.0056 18.1813 19.05 18.2938 19.0432 18.4337C19.0363 18.553 18.9852 18.6212 18.9374 18.7338C18.9033 18.8088 18.8488 18.9282 18.8249 19.0066C18.801 19.0919 18.8419 19.1874 18.8181 19.2726C18.8044 19.317 18.743 19.3374 18.7328 19.3852C18.7089 19.5011 18.7533 19.6239 18.7192 19.7364C18.6987 19.8012 18.6851 19.791 18.6271 19.8183C18.5828 19.8387 18.4736 19.8592 18.4668 19.8115C18.4395 19.6171 18.4941 19.4807 18.4634 19.2863C18.4259 19.0578 18.3304 18.9213 18.2758 18.6963C18.2485 18.5871 18.2963 18.3927 18.2451 18.2938C18.153 18.1131 17.8563 18.0415 17.8666 17.8402C17.8802 17.6458 17.9962 17.5197 18.1155 17.3594C18.1974 17.2502 18.2485 17.0729 18.2997 16.9501C18.3372 16.858 18.3577 16.7523 18.3611 16.6636C18.3645 16.5306 18.327 16.4727 18.2247 16.3874C18.0132 16.2135 17.6688 16.0532 17.4062 15.9236C17.3686 15.9031 17.3209 15.9781 17.3209 16.0225C17.3209 16.0668 17.372 16.0975 17.3755 16.1418C17.3891 16.268 17.3141 16.3976 17.3686 16.5136C17.4266 16.6329 17.6517 16.6705 17.6176 16.8001C17.5937 16.8853 17.5733 16.916 17.5016 16.9603C17.4573 16.9876 17.4062 16.9842 17.355 16.9876C17.1981 16.9945 17.0378 16.9399 16.8878 16.9706C16.7241 17.0047 16.5774 17.0797 16.4274 17.1547C16.3285 17.2059 16.2261 17.2707 16.1136 17.2673C15.9874 17.2639 15.9772 17.0593 15.9874 16.9331C15.9976 16.8035 16.1648 16.8103 16.2261 16.6977C16.2705 16.6159 16.2057 16.4692 16.2534 16.3874C16.308 16.3021 16.4512 16.3055 16.5058 16.2203C16.5365 16.1725 16.4922 16.077 16.4922 16.0191C16.4956 15.8827 16.5263 15.7803 16.5194 15.6439C16.516 15.5723 16.4853 15.4461 16.499 15.3745C16.516 15.279 16.574 15.3029 16.6013 15.2108C16.6354 15.0948 16.5774 14.9618 16.6149 14.8459C16.6286 14.8015 16.7514 14.822 16.7411 14.7743C16.7309 14.7163 16.6252 14.747 16.6149 14.689C16.5842 14.5151 16.5808 14.307 16.6286 14.1365C16.6593 14.0308 16.7786 13.9455 16.8093 13.8398C16.84 13.7273 16.7718 13.6011 16.8093 13.4885C16.8332 13.4135 16.9594 13.3965 16.9764 13.3214C17.0208 13.1407 16.9799 12.919 17.0276 12.7382C17.0515 12.6428 17.1026 12.537 17.164 12.4756C17.2015 12.4415 17.2322 12.4143 17.2493 12.3563C17.2731 12.2778 17.2152 12.213 17.2288 12.1346C17.239 12.063 17.2936 12.0186 17.3277 11.9573C17.372 11.8788 17.3891 11.7765 17.43 11.6981C17.4914 11.5821 17.5733 11.4832 17.6142 11.3604C17.6449 11.2684 17.5767 11.1183 17.6176 11.0262C17.6756 10.9 17.829 10.9034 17.8836 10.7772C17.9314 10.6749 17.8495 10.5419 17.8973 10.4396C17.9314 10.3646 18.0132 10.3339 18.0951 10.3305C18.1564 10.3271 18.2281 10.368 18.2485 10.426C18.2895 10.5351 18.2519 10.6681 18.2963 10.7772C18.3747 10.9682 18.5145 11.0808 18.5896 11.2718C18.6305 11.3707 18.5862 11.5139 18.61 11.6196C18.6441 11.7629 18.668 11.9061 18.7123 12.0425C18.7703 12.2164 18.8556 12.3836 18.9033 12.5575C18.9477 12.7144 18.9579 12.8815 18.992 13.0384C19.0159 13.1543 19.0602 13.26 19.1011 13.3692C19.1182 13.4169 19.1762 13.4033 19.1898 13.4544C19.2137 13.5397 19.1421 13.6352 19.1625 13.7204C19.1864 13.8228 19.2989 13.9285 19.316 14.0342C19.3467 14.2047 19.316 14.3684 19.3194 14.5389C19.3228 14.6958 19.3399 14.8425 19.3603 14.9959C19.374 15.088 19.4251 15.221 19.4285 15.2892C19.4388 15.5416 19.449 15.7906 19.4524 16.0429C19.466 16.4147 19.4661 16.8103 19.4456 17.1786ZM18.5384 14.9959C18.5384 14.7743 18.535 14.5492 18.5248 14.3275C18.5248 14.2968 18.4566 14.3104 18.4497 14.2798C18.4293 14.1502 18.4497 13.983 18.4259 13.8535C18.419 13.8262 18.3713 13.8535 18.3474 13.8398C18.3133 13.8159 18.3065 13.758 18.269 13.7443C18.2212 13.7239 18.1599 13.7511 18.1121 13.7307C18.0746 13.717 18.0473 13.6727 18.0234 13.6352C17.9825 13.5738 17.9689 13.5158 17.9245 13.4544C17.8836 13.4033 17.8734 13.3419 17.8632 13.3419C17.8529 13.3419 17.8393 13.4067 17.8325 13.4783C17.8154 13.6045 17.8188 13.7545 17.8188 13.775C17.8188 13.7887 17.7813 13.8228 17.7642 13.8603C17.7336 13.9217 17.7165 13.9967 17.7097 14.0069C17.6824 14.0444 17.5699 14.0001 17.5562 14.0444C17.5221 14.157 17.5937 14.2968 17.5801 14.4128C17.5733 14.4844 17.5085 14.5355 17.5016 14.6072C17.4948 14.7163 17.4914 14.822 17.4914 14.9311C17.4914 15.0539 17.4948 15.1733 17.4948 15.2995C17.4948 15.3131 17.4846 15.337 17.4948 15.337C17.5562 15.3438 17.6483 15.3233 17.7097 15.3233C17.8052 15.3233 17.9211 15.3302 18.0132 15.3609C18.0541 15.3745 18.0541 15.4427 18.0951 15.4529C18.2008 15.4768 18.2519 15.5484 18.3304 15.6098C18.3713 15.6405 18.5214 15.6371 18.5214 15.5825C18.5316 15.3916 18.5384 15.1937 18.5384 14.9959ZM22.6139 18.0824C22.6071 18.2222 22.6139 18.362 22.59 18.4985C22.5491 18.7679 22.532 19.0168 22.4672 19.2897C22.4195 19.4977 22.3922 19.5898 22.1569 19.4568C22.1057 19.4295 22.0614 19.3988 22.0239 19.3749C21.8568 19.2726 21.7851 19.068 21.6078 18.9793C21.543 18.9452 21.4441 18.9418 21.3588 18.9418C21.144 18.9418 21.1644 18.8804 21.2292 18.6792C21.2906 18.4848 21.4168 18.3245 21.4748 18.1233C21.5157 17.9835 21.5225 17.8334 21.5191 17.6868C21.5089 17.3491 21.4884 17.0115 21.4305 16.6807C21.3793 16.3908 21.294 16.1043 21.1883 15.8247C21.1679 15.7667 21.0724 15.7769 21.0655 15.7155C21.0417 15.5041 21.1542 15.3199 21.1167 15.1119C21.086 14.9414 20.9428 14.7743 20.837 14.6378C20.8029 14.5969 20.762 14.5151 20.7313 14.556C20.6665 14.6992 20.6017 14.8834 20.5335 15.0607C20.5096 15.1903 20.5642 15.3233 20.5778 15.4564C20.6154 15.8213 20.6426 16.1862 20.687 16.5511C20.7074 16.7114 20.762 16.8717 20.7518 17.032C20.7484 17.0899 20.6256 17.0831 20.6188 17.1411C20.612 17.2093 20.7177 17.2468 20.7279 17.315C20.7552 17.4958 20.745 17.6799 20.7279 17.8641C20.7211 17.9255 20.6733 17.9767 20.6631 18.038C20.6529 18.0892 20.6495 18.1404 20.6631 18.1915C20.6802 18.2529 20.7415 18.3006 20.7518 18.3654C20.7722 18.5394 20.7688 18.7167 20.7518 18.8906C20.7484 18.9384 20.6938 18.9725 20.687 19.0237C20.6461 19.2487 20.6972 19.6239 20.6222 19.7023C20.4755 19.3715 20.3221 19.0339 20.097 18.8463C19.964 18.7372 19.8207 18.6349 19.7014 18.553C19.5786 18.4746 19.4763 18.42 19.5104 18.2836C19.5888 17.9664 19.7423 17.6902 19.8719 17.3184C19.9026 17.2264 19.9674 17.1206 19.9469 17.0251C19.9333 16.9638 19.8412 16.9399 19.8378 16.8785C19.8037 16.1998 19.8446 15.5348 19.8207 14.8561C19.8139 14.6481 19.7662 14.3957 19.7116 14.1979C19.698 14.1536 19.6604 14.1024 19.6536 14.0581C19.6366 13.9489 19.657 13.8705 19.6434 13.7614C19.6332 13.6693 19.5684 13.5908 19.5547 13.4988C19.5172 13.2157 19.5377 12.9838 19.4729 12.7041C19.4524 12.6189 19.4354 12.5336 19.4183 12.4484C19.374 12.213 19.2341 11.9709 19.3501 11.7629C19.4013 11.6674 19.5274 11.623 19.5991 11.5753C19.7014 11.5037 19.7832 11.4491 19.8992 11.34C19.9572 11.2854 20.0595 11.207 20.0083 11.1456C19.9537 11.0774 19.8924 11.0808 19.8071 11.091C19.7389 11.1012 19.6434 11.2172 19.6093 11.1558C19.5274 11.0092 19.4933 10.9 19.4047 10.8045C19.2989 10.6886 19.1864 10.6033 19.0397 10.5419C18.9579 10.5078 18.8488 10.5317 18.7771 10.4805C18.7294 10.4464 18.7123 10.3816 18.7703 10.3748C19.1625 10.3237 19.4831 10.3987 19.8753 10.3646C19.9333 10.3612 19.9913 10.2793 20.0458 10.2861C20.1277 10.2998 20.1413 10.3885 20.2198 10.4089C20.3493 10.4396 20.4858 10.3851 20.6154 10.4123C20.7825 10.4464 20.9121 10.5385 21.0758 10.5863C21.2156 10.6272 21.3281 10.576 21.4611 10.6374C21.6214 10.7125 21.7715 10.842 21.8704 10.9887C22.0477 11.2513 22.2012 11.531 22.2558 11.8447C22.2933 12.0596 22.1807 12.2574 22.1569 12.4722C22.1432 12.5882 22.1944 12.7178 22.1535 12.8303C22.0682 13.0725 21.9864 13.2873 21.8192 13.4783C21.6965 13.6215 21.5669 13.7409 21.3145 13.775C21.2804 13.8125 21.277 13.9217 21.3145 13.9592C21.352 13.9967 21.427 13.9319 21.468 13.9592C21.6112 14.0547 21.7954 14.1638 21.8875 14.3104C21.925 14.3718 21.8261 14.4162 21.8568 14.4844C21.8772 14.5219 21.9284 14.4741 21.9591 14.5083C22.0375 14.6003 22.0955 14.7163 22.1125 14.8357C22.1535 15.1017 22.116 15.4018 22.1432 15.6678C22.1535 15.7599 22.1705 15.8213 22.2319 15.8929C22.3308 16.0088 22.3956 15.8588 22.399 16.1589C22.4024 16.4113 22.4365 16.6398 22.474 16.8956C22.4706 16.991 22.341 17.0661 22.3649 17.1582C22.382 17.2264 22.5184 17.1718 22.5627 17.223C22.6241 17.2912 22.6241 17.3935 22.6275 17.4856C22.6377 17.6902 22.6241 17.8846 22.6139 18.0824ZM21.3281 12.6564C21.3588 12.6257 21.3895 12.2778 21.3895 12.2028C21.3895 12.0937 21.2736 11.9334 21.144 11.7867C21.0553 11.6878 20.9462 11.5992 20.8984 11.531C20.8132 11.4082 20.7518 11.3536 20.6495 11.3297C20.4653 11.2888 20.4687 11.3059 20.4687 11.4627C20.4687 11.5923 20.4824 11.7288 20.4824 11.8652C20.4824 12.0391 20.4687 12.1926 20.4721 12.3665C20.4721 12.5507 20.4858 12.7553 20.4858 12.9395C20.4858 13.0861 20.4585 13.3692 20.4687 13.4919C20.4824 13.6488 20.4926 13.6761 20.7074 13.6761C20.8132 13.6761 20.953 13.5704 21.0553 13.4613C21.1269 13.3862 21.1167 13.26 21.144 13.2055C21.1849 13.1236 21.2531 13.0486 21.2668 12.9565C21.2906 12.8337 21.2463 12.7348 21.3281 12.6564Z" fill="white"/>
<rect x="0.75" y="0.75" width="28.5" height="28.5" rx="14.25" stroke="white" stroke-width="1.5"/>
</svg>
