<svg width="30" height="30" viewBox="0 0 30 30" fill="none" xmlns="http://www.w3.org/2000/svg">
<path d="M18.6431 19H11.5693V16.4165C11.5693 16.284 11.5837 16.1444 11.6123 15.9976C11.6445 15.8472 11.6929 15.6986 11.7573 15.5518C11.8218 15.4049 11.9041 15.2653 12.0044 15.1328C12.1082 15.0003 12.2318 14.884 12.375 14.7837C12.5218 14.6799 12.6901 14.5975 12.8799 14.5366C13.0697 14.4757 13.2845 14.4453 13.5244 14.4453H16.6719C16.8617 14.4453 17.0013 14.3988 17.0908 14.3057C17.1839 14.209 17.2305 14.0693 17.2305 13.8867V13.269C17.2305 13.0793 17.1839 12.936 17.0908 12.8394C16.9977 12.7427 16.8617 12.6943 16.6826 12.6943H12.1978V11.2979H16.6826C16.9189 11.2979 17.132 11.3283 17.3218 11.3892C17.5116 11.45 17.6781 11.5324 17.8213 11.6362C17.9681 11.7365 18.0934 11.8529 18.1973 11.9854C18.3011 12.1178 18.3853 12.2575 18.4497 12.4043C18.5177 12.5475 18.5661 12.6943 18.5947 12.8447C18.627 12.9915 18.6431 13.1294 18.6431 13.2583V13.8867C18.6431 14.2484 18.5768 14.5545 18.4443 14.8052C18.3154 15.0522 18.1525 15.2546 17.9556 15.4121C17.7586 15.5661 17.5456 15.6789 17.3164 15.7505C17.0908 15.8185 16.8796 15.8525 16.6826 15.8525H13.5244C13.4098 15.8525 13.3185 15.8687 13.2505 15.9009C13.1825 15.9331 13.1287 15.9761 13.0894 16.0298C13.0535 16.0835 13.0267 16.1444 13.0088 16.2124C12.9909 16.2804 12.9766 16.3485 12.9658 16.4165V17.6035H18.6431V19Z" fill="#00F0FF"/>
<path fill-rule="evenodd" clip-rule="evenodd" d="M7 11H4V19H7C8.86384 19 10.4299 17.7252 10.874 16H6V14H10.874C10.4299 12.2748 8.86384 11 7 11Z" fill="#00F0FF"/>
<path fill-rule="evenodd" clip-rule="evenodd" d="M19 11H22C24.2091 11 26 12.7909 26 15C26 17.2091 24.2091 19 22 19H19V16H21.25V17.5981L25 15L21.25 12.4019V14H19V11Z" fill="#00F0FF"/>
<rect x="0.75" y="0.75" width="28.5" height="28.5" rx="14.25" stroke="#00F0FF" stroke-width="1.5"/>
</svg>
