<svg width="30" height="30" viewBox="0 0 30 30" fill="none" xmlns="http://www.w3.org/2000/svg">
<path d="M9.27215 7C8.34262 7 8 7.33742 8 8.25284V19.2941C8 19.3972 8.00317 19.4941 8.01269 19.5815C8.0349 19.7815 8.03807 19.9783 8.22842 20.197C8.24745 20.222 8.4378 20.3595 8.4378 20.3595C8.53932 20.4095 8.61228 20.4438 8.72966 20.4938L14.3703 22.8214C14.6621 22.9526 14.7859 23.0058 14.9984 22.9995H15.0016C15.2173 23.0058 15.3379 22.9526 15.6297 22.8214L21.2703 20.4938C21.3877 20.447 21.4575 20.4126 21.5622 20.3595C21.5622 20.3595 21.7557 20.2189 21.7716 20.197C21.9619 19.9783 21.9619 19.7846 21.9873 19.5815C21.9968 19.4941 22 19.3972 22 19.2941V8.24972C22 7.3343 21.6574 7 20.7278 7H9.27215ZM18.3136 9.07141H18.7736C19.5414 9.07141 19.9157 9.44007 19.9157 10.2024V11.4552H18.9862V10.2524C18.9862 10.0087 18.872 9.8931 18.6309 9.8931H18.4722C18.2248 9.8931 18.1074 10.0056 18.1074 10.2524V14.1265C18.1074 14.3702 18.2216 14.4827 18.4722 14.4827H18.6467C18.8847 14.4827 18.9989 14.3702 18.9989 14.1265V12.7393H19.9316V14.1671C19.9316 14.9295 19.5509 15.3044 18.78 15.3044H18.3104C17.5395 15.3044 17.1588 14.9263 17.1588 14.1671V10.2118C17.162 9.44945 17.5427 9.07141 18.3136 9.07141ZM10.0653 9.1214H12.1718V9.9712H11.0107V11.7083H12.1274V12.5581H11.0107V14.4077H12.1876V15.2575H10.0653V9.1214ZM12.6476 9.1214H14.1355C14.9064 9.1214 15.2871 9.49943 15.2871 10.2618V11.8926C15.2871 12.655 14.9064 13.033 14.1355 13.033H13.5994V15.2575H12.6508L12.6476 9.1214ZM15.7122 9.1214H16.6576V15.2575H15.7122V9.1214ZM13.593 9.94933V12.2082H13.9864C14.2243 12.2082 14.3385 12.0957 14.3385 11.8489V10.3086C14.3385 10.0618 14.2243 9.94933 13.9864 9.94933H13.593ZM10.9853 16.7166H11.1249L11.1566 16.7197H11.2073L11.2327 16.7291H11.2581L11.2835 16.7353L11.3089 16.7415L11.3311 16.7447L11.3533 16.7509L11.3755 16.754L11.4009 16.7634L11.4199 16.7665L11.4389 16.7759L11.4643 16.7822L11.4833 16.7915L11.5087 16.8009L11.5309 16.8103L11.55 16.8228L11.5753 16.8322L11.5944 16.8446L11.6198 16.8571L11.6388 16.8696L11.661 16.8821L11.68 16.8978L11.6991 16.9103L11.7181 16.9259L11.7403 16.9415L11.7593 16.9602L11.7784 16.9759L11.7625 16.9946L11.7435 17.0134L11.7276 17.0321L11.7086 17.0509L11.6927 17.0696L11.6769 17.0883L11.6578 17.1071L11.642 17.1258L11.6261 17.1446L11.6071 17.1633L11.5912 17.1821L11.5722 17.2008L11.5563 17.2196L11.5404 17.2383L11.5214 17.2571L11.5056 17.2789L11.4865 17.2977L11.4707 17.3164L11.4516 17.3008L11.4326 17.2821L11.4136 17.2696L11.3913 17.2539L11.3723 17.2414L11.3501 17.2289L11.3311 17.2164L11.3089 17.2039L11.2898 17.1946L11.2708 17.1852L11.2518 17.1789L11.2295 17.1696L11.2042 17.1633L11.1851 17.1571L11.1598 17.1508L11.1344 17.1446L11.109 17.1415H11.0804L11.0487 17.1352H10.998L10.9726 17.1383H10.9472L10.9218 17.1446L10.8996 17.1508L10.8774 17.1571L10.852 17.1633L10.833 17.1727L10.8076 17.1821L10.7886 17.1946L10.7695 17.2071L10.7505 17.2196L10.7315 17.2352L10.7124 17.2508L10.6934 17.2664L10.6775 17.2852L10.6585 17.3039L10.6458 17.3227L10.6331 17.3414L10.6173 17.3602L10.6078 17.382L10.5951 17.4008L10.5824 17.4226L10.576 17.4445L10.5665 17.4664L10.5602 17.4914L10.557 17.5164L10.5506 17.5382L10.5443 17.5664V17.5914L10.5411 17.6164V17.6757L10.5443 17.7007L10.5475 17.7226L10.5506 17.7476L10.557 17.7726L10.5633 17.7913L10.5665 17.8163L10.5729 17.8351L10.5824 17.8538L10.5919 17.8788L10.6046 17.9038L10.6141 17.9225L10.6268 17.9413L10.6426 17.9631L10.6585 17.9819L10.6712 18.0006L10.6902 18.0194L10.7061 18.0381L10.7251 18.0538L10.7442 18.0694L10.7632 18.085L10.7854 18.0975L10.8044 18.11L10.8266 18.1194L10.852 18.1287L10.8711 18.1381L10.8964 18.1444L10.9218 18.1537L10.9472 18.1569L10.9726 18.1631L10.998 18.1662L11.0297 18.1694H11.1122L11.1439 18.1662H11.1693L11.1947 18.1569L11.22 18.1537L11.2454 18.1444L11.2676 18.1412L11.2898 18.1319L11.3089 18.1225L11.3342 18.1131L11.3501 18.1037L11.3691 18.0912V17.86H10.9948V17.4883H11.8387V18.3193L11.8196 18.3349L11.8006 18.3506L11.7816 18.3631L11.7625 18.3787L11.7435 18.3912L11.7245 18.4068L11.7054 18.4193L11.6832 18.4318L11.6578 18.4443L11.6356 18.4568L11.6166 18.4693L11.5912 18.4787L11.5722 18.4912L11.5468 18.5005L11.5214 18.5099L11.496 18.5193L11.4738 18.5286L11.4516 18.5349L11.4294 18.5443L11.404 18.5505L11.3818 18.5568L11.3564 18.5661L11.3342 18.5693L11.3089 18.5755L11.2835 18.5818L11.2581 18.5849L11.2327 18.588L11.2073 18.5911L11.182 18.5943L11.1502 18.5974L11.1249 18.6005L11.0963 18.6036H10.9631L10.9409 18.6224H10.9155L10.8901 18.6193H10.8647L10.8393 18.6099L10.814 18.6068L10.7886 18.6005L10.7632 18.5974L10.7442 18.588L10.7188 18.5849L10.6934 18.5755L10.6712 18.5661L10.649 18.5599L10.6236 18.5505L10.6014 18.5411L10.576 18.5318L10.557 18.5224L10.5316 18.5099L10.5126 18.4974L10.4872 18.4849L10.4682 18.4724L10.4491 18.4599L10.4301 18.4443L10.4111 18.4287L10.3889 18.413L10.373 18.3974L10.354 18.3818L10.3349 18.3631L10.3159 18.3474L10.2969 18.3287L10.2746 18.3099L10.2556 18.2912L10.2397 18.2725L10.2239 18.2537L10.2112 18.235L10.1953 18.2162L10.1826 18.1975L10.17 18.1787L10.1573 18.1569L10.1446 18.1381L10.1351 18.1162L10.1255 18.0944L10.116 18.0725L10.1065 18.0506L10.1002 18.0319L10.0906 18.01L10.0843 17.9881L10.078 17.9663L10.0716 17.9413L10.0653 17.9194L10.0589 17.8944L10.0557 17.8725L10.0494 17.8475L10.0462 17.8257L10.0431 17.8007L10.0399 17.7757L10.0367 17.7507V17.6132L10.0431 17.5882V17.5601L10.0494 17.5351V17.5101L10.0589 17.4851L10.0684 17.4601L10.0716 17.4351L10.078 17.4133L10.0875 17.3883L10.0938 17.3664L10.1033 17.3414L10.1128 17.3195L10.1224 17.2977L10.1319 17.2758L10.1414 17.2539L10.1541 17.2321L10.1668 17.2133L10.1795 17.1946L10.1922 17.1758L10.2048 17.1571L10.2207 17.1352L10.2366 17.1165L10.2524 17.0977L10.2715 17.079L10.2873 17.0602L10.3032 17.0415L10.3222 17.0227L10.3381 17.004L10.3571 16.9884L10.3762 16.9696L10.3952 16.954L10.4142 16.9384L10.4333 16.9259L10.4523 16.9103L10.4713 16.8978L10.4935 16.8853L10.5157 16.8728L10.5411 16.8603L10.5602 16.8478L10.5855 16.8384L10.6078 16.829L10.6331 16.8165L10.6522 16.8103L10.6775 16.8009L10.6998 16.7915L10.722 16.7853L10.7442 16.779L10.7695 16.7728L10.7918 16.7665L10.8171 16.7603H10.8425L10.8679 16.754H10.8933L10.9186 16.7478H10.944L10.9853 16.7166ZM19.1004 16.7228H19.24L19.2717 16.7291H19.3225L19.3478 16.7353H19.3796L19.4049 16.7447L19.4271 16.7478L19.4525 16.754L19.4779 16.7572L19.5001 16.7634L19.5255 16.7697L19.5509 16.779L19.5699 16.7822L19.5953 16.7915L19.6207 16.8009L19.6397 16.8103L19.6651 16.8197L19.6905 16.829L19.7127 16.8415L19.7317 16.8509L19.7571 16.8634L19.7793 16.8759L19.7983 16.8884L19.8205 16.904L19.8396 16.9165L19.8586 16.9321L19.8776 16.9478L19.8967 16.9634L19.8808 16.9821L19.8681 17.004L19.8523 17.0227L19.8364 17.0415L19.8205 17.0633L19.8078 17.0821L19.792 17.1008L19.7761 17.1227L19.7634 17.1415L19.7476 17.1602L19.7317 17.1789L19.7158 17.2008L19.7031 17.2227L19.6873 17.2414L19.6683 17.2602L19.6556 17.2789L19.6397 17.3008L19.6207 17.2852L19.5985 17.2727L19.5794 17.2602L19.5604 17.2446L19.5382 17.2352L19.5191 17.2227L19.4938 17.2133L19.4747 17.2039L19.4494 17.1946L19.4303 17.1852L19.4113 17.1789L19.3891 17.1696L19.3637 17.1633L19.3383 17.154L19.3129 17.1477L19.2844 17.1415L19.259 17.1383L19.2336 17.1321L19.2082 17.129L19.1829 17.1258L19.1607 17.1227H19.1036L19.075 17.1258L19.0496 17.1321L19.0242 17.1352L19.0052 17.1446L18.9862 17.154L18.964 17.1727L18.9481 17.1946L18.9386 17.2164V17.2789L18.9513 17.307L18.9608 17.3227L18.9798 17.3414L19.0052 17.3539L19.0242 17.3664L19.0496 17.3758L19.075 17.3852L19.1067 17.3945L19.1258 17.4008L19.1448 17.407L19.1702 17.4133L19.1892 17.4195L19.2146 17.4258L19.2431 17.432L19.2717 17.4383L19.3002 17.4476L19.3288 17.4508L19.3542 17.4601L19.3827 17.4664L19.4081 17.4726L19.4335 17.4789L19.4589 17.4851L19.4843 17.4945L19.5096 17.5008L19.5318 17.507L19.5572 17.5164L19.5826 17.5257L19.608 17.5382L19.6334 17.5476L19.6587 17.5601L19.6841 17.5726L19.7031 17.5851L19.7222 17.5976L19.7444 17.6132L19.7634 17.6257L19.7856 17.6445L19.8047 17.6632L19.8237 17.682L19.8427 17.7007L19.8554 17.7195L19.8745 17.7444L19.8872 17.7632L19.8967 17.7882L19.9094 17.8069L19.9157 17.8319L19.9252 17.8507L19.9284 17.8757L19.9347 17.9007L19.9379 17.9257L19.9411 17.9507L19.9443 17.9756V18.0381L19.9411 18.0662L19.9379 18.0912L19.9347 18.1194L19.9284 18.1444L19.922 18.1694L19.9157 18.1943L19.9094 18.2193L19.8998 18.2412L19.8903 18.26L19.8808 18.2818L19.8681 18.3006L19.8523 18.3193L19.8396 18.3381L19.8269 18.3599L19.8078 18.3787L19.792 18.3974L19.7729 18.413L19.7539 18.4318L19.7349 18.4474L19.7158 18.463L19.6968 18.4755L19.6746 18.4912L19.6492 18.5037L19.6302 18.513L19.6048 18.5255L19.5794 18.5349L19.554 18.5443L19.5287 18.5536L19.5033 18.5599L19.4843 18.5661L19.4589 18.5724L19.4335 18.5786L19.4145 18.5818L19.3891 18.588H19.3796L19.3542 18.5911H19.3288L19.3034 18.5974H19.1131L19.0877 18.5943L19.0623 18.5911L19.0338 18.588L19.0084 18.5818L18.983 18.5786L18.9576 18.5755L18.9322 18.5693L18.9037 18.563L18.8783 18.5568L18.8529 18.5505L18.8276 18.5443L18.8022 18.538L18.7768 18.5286L18.7514 18.5193L18.7292 18.513L18.7038 18.5068L18.6785 18.4974L18.6594 18.488L18.634 18.4787L18.615 18.4662L18.5896 18.4568L18.5674 18.4443L18.5484 18.4318L18.523 18.4193L18.504 18.4068L18.4818 18.3943L18.4627 18.3787L18.4437 18.3631L18.4247 18.3474L18.4056 18.3318L18.3866 18.3162L18.3675 18.2974L18.3834 18.2787L18.4024 18.26L18.4183 18.2412L18.4373 18.2225L18.4532 18.2037L18.4691 18.185L18.4881 18.1662L18.504 18.1475L18.523 18.1287L18.5389 18.11L18.5579 18.0912L18.5738 18.0725L18.5896 18.0538L18.6087 18.035L18.6245 18.0163L18.6436 17.9975L18.6626 17.9788L18.6816 17.9944L18.707 18.01L18.726 18.0256L18.7514 18.0413L18.7705 18.0538L18.7927 18.0694L18.8117 18.0819L18.8339 18.0912L18.8529 18.1037L18.8751 18.1131L18.9005 18.1225L18.9196 18.1319L18.9449 18.1381L18.964 18.1475L18.9894 18.1537L19.0147 18.1631L19.0401 18.1725L19.0655 18.1756L19.0909 18.1818L19.1162 18.185H19.1448L19.1702 18.1943H19.3098L19.3351 18.1881L19.3605 18.1818L19.3796 18.1787L19.3986 18.1725L19.4176 18.1631L19.4398 18.1475L19.4525 18.1287L19.4652 18.11L19.4716 18.085V18.0256L19.462 18.0006L19.4462 17.9819L19.4303 17.9663L19.4081 17.9507L19.3891 17.9413L19.3637 17.9319L19.3383 17.9225L19.3066 17.91L19.2876 17.9069L19.2685 17.9007L19.2431 17.8944L19.2241 17.8882L19.1987 17.8788L19.1734 17.8757L19.1448 17.8663L19.1194 17.8632L19.0909 17.8538L19.0655 17.8507L19.0401 17.8413L19.0147 17.8382L18.9894 17.8288L18.964 17.8226L18.9386 17.8163L18.9164 17.8069L18.8942 17.8007L18.872 17.7913L18.8466 17.7819L18.818 17.7726L18.7927 17.7632L18.7673 17.7538L18.7419 17.7413L18.7165 17.7288L18.6975 17.7163L18.6721 17.7038L18.6531 17.6882L18.6309 17.6757L18.615 17.6601L18.596 17.6413L18.5769 17.6226L18.5611 17.6039L18.5452 17.5851L18.5325 17.5664L18.5198 17.5476L18.5071 17.5257L18.4976 17.507L18.4881 17.4883L18.4818 17.4664L18.4754 17.4476L18.4691 17.4226L18.4659 17.4008V17.3758L18.4596 17.3508V17.2414L18.4627 17.2164L18.4659 17.1914L18.4691 17.1727L18.4754 17.1477L18.4818 17.129L18.4881 17.104L18.4976 17.0852L18.5071 17.0602L18.5167 17.0415L18.5293 17.0165L18.542 16.9977L18.5611 16.979L18.5738 16.9602L18.5928 16.9415L18.6118 16.9228L18.6277 16.904L18.6499 16.8853L18.6658 16.8728L18.688 16.8571L18.707 16.8415L18.726 16.829L18.7514 16.8165L18.7705 16.8072L18.7958 16.7947L18.8149 16.7853L18.8402 16.7759L18.8656 16.7665L18.891 16.7603L18.91 16.754L18.9354 16.7509L18.9545 16.7447L18.9798 16.7415L19.0052 16.7353L19.0306 16.7322L19.056 16.7291L19.0814 16.7259L19.1004 16.7228ZM12.8475 16.7415H13.3265L13.3361 16.7634L13.3456 16.7853L13.3551 16.8072L13.3614 16.8322L13.3709 16.854L13.3805 16.8759L13.39 16.8978L13.3995 16.9196L13.4058 16.9415L13.4185 16.9665L13.4281 16.9884L13.4376 17.0102L13.4439 17.0321L13.4534 17.054L13.4661 17.0758L13.4756 17.1008L13.4852 17.1227L13.4915 17.1446L13.501 17.1665L13.5137 17.1883L13.5201 17.2102L13.5296 17.2352L13.5359 17.2602L13.5454 17.2789L13.5581 17.3039L13.5676 17.3227L13.5772 17.3477L13.5867 17.3727L13.593 17.3914L13.6057 17.4164L13.6152 17.4351L13.6247 17.4601L13.6311 17.4789L13.6406 17.5039L13.6533 17.5289L13.6628 17.5507L13.6692 17.5726L13.6755 17.5945L13.685 17.6164L13.6977 17.6382L13.7072 17.6632L13.7167 17.6851L13.7231 17.707L13.7326 17.7288L13.7421 17.7507L13.7516 17.7726L13.7612 17.7976L13.7707 17.8194L13.7802 17.8413L13.7929 17.8632L13.8024 17.885L13.8119 17.9069L13.8183 17.9319L13.8278 17.9538L13.8405 17.9756L13.85 17.9975L13.8563 18.0194L13.8659 18.0413L13.8754 18.0662L13.8881 18.0912L13.8944 18.11L13.9039 18.135L13.9103 18.1537L13.9198 18.1787L13.9325 18.2037L13.942 18.2225L13.9483 18.2475L13.9579 18.2662L13.9642 18.2912L13.9769 18.3099L13.9864 18.3349L13.9927 18.3599L14.0023 18.3787L14.0118 18.4037L14.0245 18.4224L14.034 18.4474L14.0403 18.4724L14.0499 18.4912L14.0594 18.5161L14.0721 18.5349H13.5423L13.5296 18.513L13.5232 18.4912L13.5137 18.4693L13.5042 18.4443L13.4978 18.4224L13.4883 18.4005L13.4788 18.3787L13.4693 18.3568L13.4598 18.3349L13.4503 18.3131L13.4439 18.2912L13.4344 18.2662L13.4249 18.2443L13.4154 18.2225L13.4058 18.2006H12.6698L12.6603 18.2256L12.654 18.2443L12.6445 18.2693L12.6318 18.2943L12.6254 18.3131L12.6159 18.3381L12.6064 18.3568L12.6 18.3818L12.5905 18.4005L12.581 18.4255L12.5715 18.4443L12.562 18.4693L12.5525 18.4943L12.5429 18.513L12.5366 18.538H12.0131L12.0227 18.513L12.0322 18.4912L12.0417 18.4693L12.0512 18.4443L12.0576 18.4224L12.0702 18.4005L12.0798 18.3787L12.0893 18.3568L12.0956 18.3349L12.1051 18.3099L12.1178 18.2881L12.1274 18.2662L12.1369 18.2443L12.1432 18.2225L12.1527 18.2006L12.1654 18.1756L12.1749 18.1537L12.1845 18.1319L12.194 18.11L12.2035 18.0881L12.213 18.0662L12.2225 18.0413L12.232 18.0163L12.2416 17.9975L12.2511 17.9725L12.2638 17.9538L12.2733 17.9288L12.2796 17.9038L12.286 17.885L12.2955 17.86L12.3082 17.8413L12.3177 17.8163L12.3272 17.7976L12.3336 17.7726L12.3431 17.7476L12.3558 17.7288L12.3621 17.7038L12.3716 17.6851L12.3811 17.6601L12.3907 17.6351L12.4034 17.6164L12.4129 17.5914L12.4192 17.5726L12.4287 17.5476L12.4383 17.5289L12.4509 17.5039L12.4605 17.4789L12.47 17.457L12.4763 17.4351L12.4858 17.4133L12.4985 17.3914L12.508 17.3695L12.5144 17.3445L12.5239 17.3227L12.5334 17.3008L12.5461 17.2789L12.5556 17.2571L12.562 17.2352L12.5715 17.2102L12.581 17.1852L12.5905 17.1665L12.6 17.1415L12.6064 17.1227L12.6159 17.0977L12.6254 17.0727L12.6381 17.054L12.6476 17.029L12.6571 17.0102L12.6635 16.9852L12.673 16.9665L12.6857 16.9415L12.6952 16.9165L12.7047 16.8978L12.7143 16.8728L12.7238 16.854L12.7365 16.829L12.7428 16.804L12.7492 16.7853L12.7587 16.7603L12.8475 16.7415ZM14.3322 16.754H14.8557L14.8715 16.7728L14.8842 16.7947L14.9001 16.8134L14.9128 16.8353L14.9254 16.854L14.9381 16.8759L14.9508 16.8946L14.9667 16.9165L14.9794 16.9353L14.9921 16.954L15.0048 16.9759L15.0174 16.9946L15.0365 17.0165L15.046 17.0352L15.0587 17.0571L15.0746 17.0758L15.0904 17.0946L15.0999 17.1165L15.1158 17.1352L15.1285 17.1571L15.138 17.1758L15.157 17.1977L15.1697 17.2164L15.1824 17.2383L15.1951 17.2571L15.2078 17.2758L15.2237 17.2977L15.2363 17.3164L15.249 17.3383L15.2617 17.357L15.2744 17.3789L15.2903 17.3977L15.303 17.4195L15.3157 17.4383L15.3315 17.4195L15.341 17.3945L15.3569 17.3758L15.3728 17.3508L15.3855 17.332L15.395 17.307L15.414 17.2883L15.4267 17.2633L15.4362 17.2446L15.4521 17.2258L15.4679 17.2008L15.4806 17.1821L15.4933 17.1571L15.506 17.1383L15.5219 17.1133L15.5346 17.0946L15.5472 17.0696L15.5599 17.0509L15.5726 17.0321L15.5885 17.0071L15.6012 16.9884L15.6139 16.9634L15.6297 16.9446L15.6424 16.9196L15.6551 16.9009L15.671 16.8821L15.6837 16.8571L15.6995 16.8384L15.7122 16.8134L15.7249 16.7947L15.7376 16.7697L15.7535 16.7509L15.7661 16.7259L15.7788 16.7072H16.3023V18.5661H15.8042V17.4726L15.7915 17.4914L15.7757 17.5164L15.763 17.5351L15.7471 17.5539L15.7344 17.5789L15.7186 17.5976L15.7059 17.6164L15.69 17.6413L15.6773 17.6601L15.6646 17.6788L15.6456 17.6976L15.6329 17.7226L15.617 17.7413L15.6044 17.7601L15.5917 17.7851L15.5758 17.8038L15.5631 17.8226L15.5472 17.8475L15.5346 17.8663L15.5187 17.885L15.506 17.91L15.4933 17.9288L15.4775 17.9475L15.4648 17.9725L15.4489 17.9913L15.433 18.01L15.4203 18.0288L15.4077 18.0538L15.3918 18.0725L15.3759 18.0912L15.3664 18.1162L15.3474 18.135L15.3347 18.1537L15.3188 18.1787L15.3061 18.1975H15.2966L15.2808 18.1756L15.2681 18.1569L15.2522 18.135L15.2395 18.1162L15.2237 18.0944L15.211 18.0756L15.1951 18.0538L15.1824 18.035L15.1666 18.0131L15.1539 17.9944L15.1348 17.9725L15.1253 17.9538L15.1094 17.9319L15.0936 17.9132L15.0809 17.8913L15.065 17.8725L15.0523 17.8475L15.0365 17.8288L15.0238 17.8069L15.0079 17.7882L14.9952 17.7663L14.9794 17.7476L14.9667 17.7257L14.9508 17.707L14.9381 17.6851L14.9223 17.6663L14.9096 17.6445L14.8937 17.6257L14.881 17.6039L14.8652 17.5851L14.8525 17.5632L14.8334 17.5445L14.8239 17.5226L14.8081 17.5039V18.6005H14.3354V16.7603L14.3322 16.754ZM16.6798 16.754H18.1677V17.1727H17.1715V17.4695H18.0662V17.8663H17.1715V18.185H18.1804V18.6068H16.683V16.7665L16.6798 16.754ZM13.0791 17.3227L13.0696 17.3477L13.06 17.3664L13.0505 17.3914L13.041 17.4164L13.0347 17.4383L13.0252 17.4601L13.0156 17.4851L13.0061 17.5101L12.9998 17.5289L12.9903 17.5539L12.9807 17.5726L12.9712 17.5976L12.9617 17.6226L12.9522 17.6413L12.9458 17.6663L12.9363 17.6851L12.9268 17.7101L12.9078 17.7476L12.9014 17.7663L12.8919 17.7913L12.8824 17.8163L12.876 17.8351L12.8665 17.86H13.3012L13.2916 17.8351L13.2821 17.8132L13.2726 17.7882L13.2631 17.7663L13.2567 17.7444L13.2472 17.7226L13.2377 17.6976L13.2282 17.6757L13.2187 17.6538L13.2092 17.632L13.2028 17.6101L13.1933 17.5851L13.1838 17.5632L13.1743 17.5414L13.1647 17.5195L13.1584 17.4976L13.1489 17.4726L13.1394 17.4476L13.1298 17.4289L13.1203 17.4039L13.1108 17.3789L13.1045 17.357L13.0791 17.3227ZM12.3018 20.8031H17.7267L14.9572 21.7029L12.3018 20.8031Z" fill="#00F0FF"/>
<rect x="0.75" y="0.75" width="28.5" height="28.5" rx="14.25" stroke="#00F0FF" stroke-width="1.5"/>
</svg>
