<svg width="30" height="30" viewBox="0 0 30 30" fill="none" xmlns="http://www.w3.org/2000/svg">
<path d="M6.12666 13.4707H18.9476C19.0004 13.4707 19.0496 13.4391 19.0708 13.3934L20.2353 10.8727C20.267 10.8059 20.2389 10.725 20.1685 10.6934C20.1509 10.6863 20.1298 10.6793 20.1122 10.6793H7.10125C8.63174 7.89141 11.5942 6 15 6C19.9715 6 24 10.0289 24 15C24 19.9711 19.9715 24 15 24C10.0285 24 6 19.9711 6 15C6 14.4797 6.04222 13.9664 6.12666 13.4707ZM11.6681 20.7586C11.6681 20.857 11.749 20.9379 11.8475 20.9379H12.0797L14.9085 17.3836H17.1357C17.1884 17.3836 17.2377 17.352 17.2588 17.3062L18.4234 14.7891C18.4304 14.7715 18.4375 14.7504 18.4375 14.7328C18.4375 14.659 18.3776 14.5992 18.3038 14.5992H11.6681V20.7586Z" fill="#00F0FF"/>
<rect x="0.75" y="0.75" width="28.5" height="28.5" rx="14.25" stroke="#00F0FF" stroke-width="1.5"/>
</svg>
