<svg width="30" height="30" viewBox="0 0 30 30" fill="none" xmlns="http://www.w3.org/2000/svg">
<path d="M7 15.2116V14.8286C7 14.2554 7.12181 13.6908 7.35482 13.1842C7.44795 12.9817 7.55805 12.7902 7.68357 12.6124L7.77821 12.4783C8.06279 12.0751 8.41621 11.7434 8.8166 11.5038L8.86868 11.4726C9.33877 11.1912 9.86082 11.0443 10.3907 11.0443H10.5858C11.1547 11.0443 11.7139 11.2136 12.2091 11.5358L12.3267 11.6124C12.5865 11.7814 12.8252 11.9902 13.0362 12.2331L13.2777 12.5111C13.4896 12.755 13.6632 13.0393 13.7908 13.3515C13.9535 13.7494 14.0378 14.1837 14.0378 14.6235V18.9335C14.0378 19.1575 14.0034 19.3797 13.9361 19.5899L13.8424 19.8826C13.717 20.2746 13.5361 20.6402 13.3072 20.9644L13.1029 21.2539C12.9937 21.4086 12.8641 21.5425 12.7188 21.6507L12.4054 21.8841C12.1388 22.0827 11.8487 22.2359 11.5441 22.3391L11.5245 22.3457C11.2222 22.448 10.9087 22.5 10.5936 22.5H9.74914V20.7911H10.6188C10.9143 20.7911 11.2053 20.7079 11.4664 20.5488C11.8149 20.3364 12.0937 19.999 12.2604 19.5877L12.3883 19.2722H10.4799C9.89336 19.2722 9.31747 19.0922 8.8115 18.7508L8.73844 18.7014C8.24762 18.3703 7.83956 17.8986 7.55388 17.3322L7.44606 17.1185C7.15389 16.5393 7 15.8814 7 15.2116Z" fill="#3C486B"/>
<path d="M15.7973 15.4264V7.5H17.1718V10.981H19.4779C20.0214 10.981 20.5566 11.1356 21.0357 11.4311L21.1056 11.4742C21.591 11.7735 22.0037 12.208 22.3058 12.7381L22.4591 13.007C22.812 13.6259 23 14.3501 23 15.0905V15.4395C23 16.165 22.8194 16.8754 22.4797 17.4865L22.2656 17.8716C22.1689 18.0454 22.0587 18.2088 21.9364 18.3597C21.5537 18.8317 21.0624 19.1688 20.5197 19.3318L20.4737 19.3456C20.2162 19.4229 19.9512 19.462 19.6852 19.462H18.9151C18.6343 19.462 18.3552 19.4125 18.0874 19.3152C17.6665 19.1622 17.2838 18.8947 16.9716 18.5354L16.8841 18.4346C16.7099 18.2341 16.5561 18.0115 16.4255 17.7711L16.3376 17.609C16.1616 17.285 16.0292 16.9323 15.9447 16.5628L15.9059 16.3928C15.8338 16.0774 15.7973 15.7526 15.7973 15.4264Z" fill="#3C486B"/>
<path d="M8.53952 14.4247V15.8129C8.53952 15.8826 8.54614 15.952 8.55927 16.02C8.68374 16.6648 9.08887 17.1897 9.63044 17.4079L9.71341 17.4413C9.80985 17.4802 9.91129 17.5 10.0135 17.5H12.4983V14.3354L12.4726 14.1383C12.3887 13.4944 11.9691 12.9764 11.4169 12.8352C11.3682 12.8227 11.3185 12.8165 11.2686 12.8165H9.93663C9.88507 12.8165 9.83364 12.8223 9.78309 12.834C9.16322 12.9767 8.6787 13.5344 8.55472 14.2479C8.54461 14.3061 8.53952 14.3653 8.53952 14.4247Z" fill="white"/>
<path d="M21.2535 15.871L21.2648 14.4828C21.2653 14.4132 21.2593 14.3437 21.2467 14.2756C21.1275 13.6295 20.7266 13.1002 20.1869 12.8762L20.1042 12.8419C20.0081 12.802 19.9068 12.7811 19.8046 12.78L17.3199 12.7532L17.2941 15.9176L17.3182 16.115C17.3969 16.7598 17.8123 17.2822 18.3633 17.4294C18.4119 17.4424 18.4615 17.4492 18.5114 17.4498L19.8433 17.4641C19.8949 17.4647 19.9464 17.4594 19.997 17.4483C20.618 17.3123 21.107 16.7598 21.2368 16.0476C21.2474 15.9895 21.253 15.9304 21.2535 15.871Z" fill="white"/>
<rect x="0.75" y="0.75" width="28.5" height="28.5" rx="14.25" stroke="#3C486B" stroke-width="1.5"/>
</svg>
