<svg width="30" height="26" viewBox="0 0 30 26" fill="none" xmlns="http://www.w3.org/2000/svg">
<path d="M15.0903 19.3421L10.3947 11.4113H13.6455V6.18421H16.3545V11.4113H19.6053L15.0903 19.3421Z" fill="white"/>
<path fill-rule="evenodd" clip-rule="evenodd" d="M25.6579 0C27.7557 2.09779 29.133 4.82183 29.7118 7.73154C30.2906 10.6413 29.9935 13.6572 28.8582 16.3981C27.7229 19.139 25.8003 21.4817 23.3336 23.1299C20.8668 24.7781 17.9667 25.6579 15 25.6579C12.0333 25.6579 9.1332 24.7782 6.66646 23.1299C4.19972 21.4817 2.27714 19.139 1.14182 16.3982C0.00650305 13.6573 -0.29055 10.6413 0.288224 7.73156C0.866998 4.82184 2.31012 2.09779 4.4079 0H25.6579ZM7.04504 2.70295L7.03959 2.69737H22.9605L22.955 2.70294C24.5283 4.27628 25.5997 6.28084 26.0338 8.46313C26.4679 10.6454 26.2451 12.9074 25.3936 14.9631C24.5422 17.0187 23.1002 18.7758 21.2502 20.0119C19.4001 21.2481 17.225 21.9079 15 21.9079C12.775 21.9079 10.5999 21.2481 8.74985 20.0119C6.89979 18.7758 5.45785 17.0188 4.60636 14.9631C3.75488 12.9074 3.53209 10.6454 3.96617 8.46314C4.40025 6.28085 5.4717 4.2763 7.04504 2.70295Z" fill="white"/>
</svg>
