<svg width="30" height="30" viewBox="0 0 30 30" fill="none" xmlns="http://www.w3.org/2000/svg">
<path d="M10.4453 22.125C8.48177 22.125 7.5 20.7188 7.5 17.9062V11.9766C7.5 9.40885 8.625 8.125 10.875 8.125C11.8021 8.125 12.513 8.3125 13.0078 8.6875C13.5026 9.05729 13.8438 9.59896 14.0312 10.3125C14.2188 11.026 14.3125 11.8958 14.3125 12.9219H11.625V11.7031C11.625 11.4062 11.5833 11.1589 11.5 10.9609C11.4219 10.7578 11.2552 10.6562 11 10.6562C10.6823 10.6562 10.4714 10.763 10.3672 10.9766C10.2682 11.1901 10.2188 11.4245 10.2188 11.6797V18.3438C10.2188 18.7135 10.2656 19.0156 10.3594 19.25C10.4583 19.4792 10.6484 19.5938 10.9297 19.5938C11.2214 19.5938 11.4141 19.4792 11.5078 19.25C11.6068 19.0156 11.6562 18.7083 11.6562 18.3281V16.3672H10.9219V13.9922H14.2812V22H13.1797L12.7109 20.8438C12.2318 21.6979 11.4766 22.125 10.4453 22.125ZM18.6406 22.125C17.3854 22.125 16.4792 21.8125 15.9219 21.1875C15.3698 20.5625 15.0938 19.5677 15.0938 18.2031V16.8594H17.8125V18.5781C17.8125 18.8958 17.8594 19.1458 17.9531 19.3281C18.0521 19.5052 18.2214 19.5938 18.4609 19.5938C18.7109 19.5938 18.8828 19.5208 18.9766 19.375C19.0755 19.2292 19.125 18.9896 19.125 18.6562C19.125 18.2344 19.0833 17.8828 19 17.6016C18.9167 17.3151 18.7708 17.0443 18.5625 16.7891C18.3594 16.5286 18.0755 16.2266 17.7109 15.8828L16.4766 14.7109C15.5547 13.8411 15.0938 12.8464 15.0938 11.7266C15.0938 10.5547 15.3646 9.66146 15.9062 9.04688C16.4531 8.43229 17.2422 8.125 18.2734 8.125C19.5339 8.125 20.4271 8.46094 20.9531 9.13281C21.4844 9.80469 21.75 10.8255 21.75 12.1953H18.9531V11.25C18.9531 11.0625 18.8984 10.9167 18.7891 10.8125C18.6849 10.7083 18.5417 10.6562 18.3594 10.6562C18.1406 10.6562 17.9792 10.7188 17.875 10.8438C17.776 10.9635 17.7266 11.1198 17.7266 11.3125C17.7266 11.5052 17.7786 11.7135 17.8828 11.9375C17.987 12.1615 18.1927 12.4193 18.5 12.7109L20.0859 14.2344C20.4036 14.5365 20.6953 14.8568 20.9609 15.1953C21.2266 15.5286 21.4401 15.9193 21.6016 16.3672C21.763 16.8099 21.8438 17.3516 21.8438 17.9922C21.8438 19.2839 21.6042 20.2969 21.125 21.0312C20.651 21.7604 19.8229 22.125 18.6406 22.125Z" fill="#00F0FF"/>
<rect x="0.75" y="0.75" width="28.5" height="28.5" rx="14.25" stroke="#00F0FF" stroke-width="1.5"/>
</svg>
