<svg width="30" height="30" viewBox="0 0 30 30" fill="none" xmlns="http://www.w3.org/2000/svg">
<g clip-path="url(#clip0_15_149)">
<path d="M8.28125 15.3516H11.4844C11.9271 15.3255 12.1615 15.0911 12.1875 14.6484V10.4297C12.1615 9.98698 11.9271 9.7526 11.4844 9.72656H8.98438C8.54167 9.7526 8.30729 9.98698 8.28125 10.4297V12.9297C8.30729 13.3724 8.54167 13.6068 8.98438 13.6328H10.6641V12.6953H9.53125C9.32292 12.6953 9.21875 12.5911 9.21875 12.3828V10.9766C9.21875 10.7682 9.32292 10.6641 9.53125 10.6641H10.9375C11.1458 10.6641 11.25 10.7682 11.25 10.9766V14.1016C11.25 14.3099 11.1458 14.4141 10.9375 14.4141H8.28125V15.3516Z" fill="#3C486B"/>
<path d="M13.75 13.6328H16.25C16.6927 13.6068 16.9271 13.3724 16.9531 12.9297V10.4297C16.9271 9.98698 16.6927 9.7526 16.25 9.72656H13.75C13.3073 9.7526 13.0729 9.98698 13.0469 10.4297V12.9297C13.0729 13.3724 13.3073 13.6068 13.75 13.6328ZM14.2969 12.6953C14.0885 12.6953 13.9844 12.5911 13.9844 12.3828V10.9766C13.9844 10.7682 14.0885 10.6641 14.2969 10.6641H15.7031C15.9115 10.6641 16.0156 10.7682 16.0156 10.9766V12.3828C16.0156 12.5911 15.9115 12.6953 15.7031 12.6953H14.2969Z" fill="#3C486B"/>
<path d="M17.8125 15.3516H21.0156C21.4583 15.3255 21.6927 15.0911 21.7188 14.6484V10.4297C21.6927 9.98698 21.4583 9.7526 21.0156 9.72656H18.5156C18.0729 9.7526 17.8385 9.98698 17.8125 10.4297V12.9297C17.8385 13.3724 18.0729 13.6068 18.5156 13.6328H20.1953V12.6953H19.0625C18.8542 12.6953 18.75 12.5911 18.75 12.3828V10.9766C18.75 10.7682 18.8542 10.6641 19.0625 10.6641H20.4688C20.6771 10.6641 20.7812 10.7682 20.7812 10.9766V14.1016C20.7812 14.3099 20.6771 14.4141 20.4688 14.4141H17.8125V15.3516Z" fill="#3C486B"/>
<path d="M13.0078 20.2734H15.5078C15.9505 20.2474 16.1849 20.013 16.2109 19.5703V17.0703C16.1849 16.6276 15.9505 16.3932 15.5078 16.3672H13.0078C12.5651 16.3932 12.3307 16.6276 12.3047 17.0703V19.5703C12.3307 20.013 12.5651 20.2474 13.0078 20.2734ZM13.5547 19.3359C13.3464 19.3359 13.2422 19.2318 13.2422 19.0234V17.6172C13.2422 17.4089 13.3464 17.3047 13.5547 17.3047H14.9609C15.1693 17.3047 15.2734 17.4089 15.2734 17.6172V19.0234C15.2734 19.2318 15.1693 19.3359 14.9609 19.3359H13.5547Z" fill="#3C486B"/>
<path d="M16.9922 20.2734H17.9297V17.6562C17.9297 17.4479 18.0339 17.3438 18.2422 17.3438H18.8672V20.2734H19.8047V17.6562C19.8047 17.4479 19.9089 17.3438 20.1172 17.3438H20.7422V20.2734H21.6797V16.3672H17.6953C17.2526 16.3411 17.0182 16.5755 16.9922 17.0703V20.2734ZM11.5234 16.3672H8.98438C8.54167 16.3932 8.30729 16.6276 8.28125 17.0703V19.5703C8.30729 20.013 8.54167 20.2474 8.98438 20.2734H11.5234V19.3359H9.53125C9.32292 19.3359 9.21875 19.2318 9.21875 19.0234V17.6172C9.21875 17.4089 9.32292 17.3047 9.53125 17.3047H11.5234V16.3672Z" fill="#3C486B"/>
</g>
<rect x="0.75" y="0.75" width="28.5" height="28.5" rx="14.25" stroke="#3C486B" stroke-width="1.5"/>
<defs>
<clipPath id="clip0_15_149">
<rect width="20" height="20" fill="white" transform="translate(5 5)"/>
</clipPath>
</defs>
</svg>
