<svg width="30" height="30" viewBox="0 0 30 30" fill="none" xmlns="http://www.w3.org/2000/svg">
<path d="M9.51974 21.5428V8.45721L6.5 10.4145V19.6414L9.51974 21.5428Z" fill="#00F0FF"/>
<path d="M22.0149 19.1507C22.9751 17.9806 23.5 16.5137 23.5 15H23.4998C23.4999 14.9814 23.5 14.9627 23.5 14.9441H18.2337L16.5099 16.398H21.181C21.0104 16.9132 20.7458 17.3967 20.3964 17.8225C19.7434 18.6181 18.8348 19.1628 17.8252 19.3636C16.8157 19.5644 15.7677 19.409 14.86 18.9237C13.9522 18.4385 13.2407 17.6536 12.8468 16.7026C12.4529 15.7516 12.4009 14.6935 12.6997 13.7085C12.9985 12.7235 13.6296 11.8726 14.4855 11.3007C15.3413 10.7289 16.369 10.4714 17.3933 10.5723C18.4177 10.6732 19.3754 11.1262 20.1032 11.854L21.5837 10.3736C20.5133 9.30321 19.105 8.6371 17.5985 8.48873C16.0921 8.34036 14.5809 8.71891 13.3223 9.55988C12.0637 10.4009 11.1356 11.6522 10.6962 13.1007C10.2568 14.5493 10.3332 16.1053 10.9125 17.5038C11.4918 18.9023 12.538 20.0567 13.873 20.7702C15.208 21.4838 16.7491 21.7124 18.2337 21.4171C19.7183 21.1217 21.0546 20.3208 22.0149 19.1507Z" fill="#00F0FF"/>
<rect x="0.75" y="0.75" width="28.5" height="28.5" rx="14.25" stroke="#00F0FF" stroke-width="1.5"/>
</svg>
