<svg width="30" height="30" viewBox="0 0 30 30" fill="none" xmlns="http://www.w3.org/2000/svg">
<path d="M3.067 14.602H3.718V17.5H3.067V14.602ZM3.018 13.552C3.018 13.4493 3.05767 13.363 3.137 13.293C3.221 13.223 3.312 13.188 3.41 13.188C3.508 13.188 3.59433 13.223 3.669 13.293C3.74833 13.363 3.788 13.4493 3.788 13.552C3.788 13.6593 3.74833 13.748 3.669 13.818C3.59433 13.8833 3.508 13.916 3.41 13.916C3.312 13.916 3.221 13.881 3.137 13.811C3.05767 13.741 3.018 13.6547 3.018 13.552ZM5.42534 14.602L5.48134 15.309L5.45334 15.197C5.54668 14.9823 5.69834 14.812 5.90834 14.686C6.11834 14.5553 6.36101 14.49 6.63634 14.49C6.91168 14.49 7.13568 14.5717 7.30834 14.735C7.48568 14.8937 7.57668 15.1013 7.58134 15.358V17.5H6.92334V15.589C6.91868 15.4303 6.87201 15.302 6.78334 15.204C6.69934 15.1013 6.56634 15.05 6.38434 15.05C6.21634 15.05 6.06468 15.0967 5.92934 15.19C5.79401 15.2833 5.68668 15.4117 5.60734 15.575C5.53268 15.7383 5.49534 15.9273 5.49534 16.142V17.5H4.84434V14.602H5.42534ZM9.88948 17.57C9.62348 17.57 9.38082 17.507 9.16148 17.381C8.94682 17.2503 8.77648 17.0683 8.65048 16.835C8.52448 16.597 8.46148 16.324 8.46148 16.016C8.46148 15.694 8.52682 15.4187 8.65748 15.19C8.79282 14.9613 8.97482 14.7863 9.20348 14.665C9.43215 14.5437 9.68882 14.483 9.97348 14.483C10.2022 14.483 10.4192 14.532 10.6245 14.63C10.8345 14.728 10.9978 14.8633 11.1145 15.036L11.0865 15.267V12.082H11.7305V17.5H11.0795V16.779L11.1495 16.961C11.0142 17.1383 10.8392 17.2853 10.6245 17.402C10.4098 17.514 10.1648 17.57 9.88948 17.57ZM10.0925 17.017C10.2652 17.017 10.4192 16.9867 10.5545 16.926C10.6898 16.8607 10.8018 16.772 10.8905 16.66C10.9792 16.548 11.0422 16.415 11.0795 16.261V15.715C11.0422 15.575 10.9745 15.4537 10.8765 15.351C10.7832 15.2437 10.6688 15.1597 10.5335 15.099C10.4028 15.0337 10.2558 15.001 10.0925 15.001C9.91515 15.001 9.75182 15.0453 9.60248 15.134C9.45782 15.218 9.34115 15.3347 9.25248 15.484C9.16382 15.6333 9.11948 15.806 9.11948 16.002C9.11948 16.1933 9.16382 16.366 9.25248 16.52C9.34115 16.6693 9.46015 16.7907 9.60948 16.884C9.75882 16.9727 9.91982 17.017 10.0925 17.017ZM12.8629 14.602H13.5139V17.5H12.8629V14.602ZM12.8139 13.552C12.8139 13.4493 12.8536 13.363 12.9329 13.293C13.0169 13.223 13.1079 13.188 13.2059 13.188C13.3039 13.188 13.3902 13.223 13.4649 13.293C13.5442 13.363 13.5839 13.4493 13.5839 13.552C13.5839 13.6593 13.5442 13.748 13.4649 13.818C13.3902 13.8833 13.3039 13.916 13.2059 13.916C13.1079 13.916 13.0169 13.881 12.9329 13.811C12.8536 13.741 12.8139 13.6547 12.8139 13.552ZM15.9842 17.57C15.6529 17.57 15.3682 17.5047 15.1302 17.374C14.8922 17.2387 14.7079 17.0567 14.5772 16.828C14.4512 16.5947 14.3882 16.3287 14.3882 16.03C14.3882 15.7453 14.4606 15.4863 14.6052 15.253C14.7499 15.0197 14.9436 14.833 15.1862 14.693C15.4289 14.553 15.6996 14.483 15.9982 14.483C16.3809 14.483 16.6982 14.595 16.9502 14.819C17.2022 15.043 17.3726 15.351 17.4612 15.743L15.0742 16.583L14.9202 16.198L16.8802 15.484L16.7402 15.575C16.6842 15.421 16.5909 15.288 16.4602 15.176C16.3296 15.0593 16.1592 15.001 15.9492 15.001C15.7719 15.001 15.6132 15.0453 15.4732 15.134C15.3332 15.218 15.2236 15.3347 15.1442 15.484C15.0649 15.6333 15.0252 15.8037 15.0252 15.995C15.0252 16.1957 15.0672 16.373 15.1512 16.527C15.2352 16.6763 15.3496 16.7953 15.4942 16.884C15.6436 16.968 15.8116 17.01 15.9982 17.01C16.1242 17.01 16.2456 16.9867 16.3622 16.94C16.4836 16.8933 16.5956 16.8327 16.6982 16.758L16.9992 17.241C16.8546 17.339 16.6912 17.4183 16.5092 17.479C16.3319 17.5397 16.1569 17.57 15.9842 17.57ZM19.145 18.837C19.0143 18.8883 18.8766 18.879 18.732 18.809C18.592 18.7437 18.4706 18.6387 18.368 18.494C18.3493 18.466 18.326 18.4217 18.298 18.361C18.2746 18.305 18.2513 18.2467 18.228 18.186C18.2093 18.1253 18.1976 18.0717 18.193 18.025C18.1883 17.9783 18.193 17.9503 18.207 17.941C18.221 17.927 18.2443 17.9223 18.277 17.927C18.3096 17.9317 18.34 17.9433 18.368 17.962C18.4006 17.9807 18.4216 18.004 18.431 18.032C18.445 18.0647 18.466 18.1067 18.494 18.158C18.5266 18.2093 18.5616 18.256 18.599 18.298C18.6363 18.34 18.6643 18.3633 18.683 18.368C18.7716 18.41 18.837 18.4287 18.879 18.424C18.921 18.4193 18.9583 18.4053 18.991 18.382C19.0703 18.3213 19.1356 18.242 19.187 18.144C19.2383 18.046 19.2966 17.8943 19.362 17.689C19.4133 17.5163 19.4646 17.3343 19.516 17.143C19.572 16.947 19.621 16.7953 19.663 16.688C19.677 16.632 19.6933 16.5853 19.712 16.548C19.7353 16.506 19.7563 16.4757 19.775 16.457H19.817C19.7143 16.5223 19.6233 16.597 19.544 16.681C19.4646 16.765 19.3643 16.8327 19.243 16.884C19.215 16.9167 19.145 16.9377 19.033 16.947C18.9256 16.9517 18.8206 16.9377 18.718 16.905C18.6526 16.8677 18.6036 16.8397 18.571 16.821C18.543 16.8023 18.5196 16.7767 18.501 16.744C18.487 16.7113 18.466 16.66 18.438 16.59C18.4053 16.52 18.4006 16.4057 18.424 16.247C18.4473 16.0883 18.4893 15.9297 18.55 15.771C18.606 15.6543 18.6876 15.5283 18.795 15.393C18.9023 15.2577 19.0166 15.1363 19.138 15.029C19.2593 14.917 19.369 14.847 19.467 14.819C19.5043 14.8003 19.544 14.7887 19.586 14.784C19.6326 14.7747 19.698 14.7817 19.782 14.805C19.8613 14.8143 19.922 14.833 19.964 14.861C20.006 14.8843 20.0736 14.9357 20.167 15.015C20.2276 15.0757 20.2766 15.1363 20.314 15.197C20.356 15.2577 20.3886 15.3207 20.412 15.386C20.4446 15.456 20.4563 15.5213 20.447 15.582C20.4423 15.638 20.4166 15.6963 20.37 15.757C20.328 15.8177 20.2836 15.8783 20.237 15.939C20.1903 15.9997 20.1553 16.0837 20.132 16.191C20.1086 16.331 20.0713 16.4897 20.02 16.667C19.9686 16.8397 19.9243 17.0007 19.887 17.15L19.775 17.584C19.6583 17.9807 19.5463 18.2747 19.439 18.466C19.3363 18.662 19.2383 18.7857 19.145 18.837ZM18.893 16.597C18.9863 16.5923 19.075 16.5737 19.159 16.541C19.243 16.5083 19.3246 16.4547 19.404 16.38C19.4833 16.3007 19.5626 16.2003 19.642 16.079C19.7213 15.967 19.7773 15.8503 19.81 15.729C19.8426 15.603 19.8543 15.4817 19.845 15.365C19.8403 15.2903 19.8286 15.2413 19.81 15.218C19.7913 15.1947 19.7516 15.1877 19.691 15.197C19.6023 15.211 19.5043 15.26 19.397 15.344C19.2896 15.4233 19.1893 15.5237 19.096 15.645C19.026 15.7383 18.9676 15.8503 18.921 15.981C18.8743 16.121 18.8463 16.254 18.837 16.38C18.8276 16.506 18.8463 16.5783 18.893 16.597ZM20.9472 17.248C20.9286 17.2107 20.9052 17.1827 20.8772 17.164C20.8492 17.1407 20.8352 17.1197 20.8352 17.101C20.8352 17.0823 20.8329 17.0637 20.8282 17.045C20.8282 17.0217 20.8189 17.0007 20.8002 16.982C20.7769 16.954 20.7792 16.891 20.8072 16.793C20.8352 16.6903 20.8819 16.5667 20.9472 16.422C21.0126 16.2727 21.0896 16.1163 21.1782 15.953C21.2156 15.9157 21.2529 15.8667 21.2902 15.806C21.3276 15.7453 21.3556 15.7057 21.3742 15.687C21.3742 15.6683 21.3812 15.652 21.3952 15.638C21.4092 15.6193 21.4256 15.61 21.4442 15.61V15.568C21.4442 15.5447 21.4652 15.505 21.5072 15.449C21.5539 15.393 21.6099 15.3323 21.6752 15.267C21.7406 15.197 21.8082 15.1317 21.8782 15.071C21.9482 15.0057 22.0066 14.959 22.0532 14.931C22.1512 14.8657 22.2516 14.826 22.3542 14.812C22.4616 14.798 22.5526 14.8213 22.6272 14.882C22.6412 14.896 22.6646 14.9193 22.6972 14.952C22.7299 14.9847 22.7672 15.022 22.8092 15.064C22.8559 15.1013 22.9026 15.141 22.9492 15.183L23.2082 15.414L23.0822 15.764C23.0216 15.9507 23.0052 16.114 23.0332 16.254C23.0659 16.394 23.1126 16.5153 23.1732 16.618C23.1966 16.6693 23.2432 16.7183 23.3132 16.765C23.3879 16.8117 23.4579 16.8397 23.5232 16.849C23.5606 16.8537 23.5956 16.8677 23.6282 16.891C23.6609 16.9143 23.6772 16.9517 23.6772 17.003C23.6772 17.0497 23.6679 17.087 23.6492 17.115C23.6306 17.143 23.5979 17.1617 23.5512 17.171C23.3972 17.1897 23.2526 17.1523 23.1172 17.059C22.9866 16.9657 22.8652 16.8117 22.7532 16.597C22.7346 16.569 22.7089 16.5177 22.6762 16.443C22.6482 16.3637 22.6319 16.3123 22.6272 16.289C22.6086 16.3123 22.5736 16.3567 22.5222 16.422C22.4709 16.4827 22.4312 16.527 22.4032 16.555C22.0719 16.891 21.7849 17.1173 21.5422 17.234C21.3042 17.346 21.1059 17.3507 20.9472 17.248ZM21.1992 16.856C21.1992 16.8887 21.2482 16.8887 21.3462 16.856C21.4489 16.8187 21.5586 16.7533 21.6752 16.66C21.8339 16.5247 21.9926 16.3753 22.1512 16.212C22.3146 16.0487 22.4452 15.897 22.5432 15.757L22.6972 15.505C22.6506 15.3977 22.5992 15.3253 22.5432 15.288C22.4919 15.246 22.4476 15.225 22.4102 15.225C22.3496 15.225 22.2586 15.281 22.1372 15.393C22.0206 15.505 21.8946 15.6543 21.7592 15.841C21.6239 16.0277 21.4956 16.233 21.3742 16.457C21.3276 16.5503 21.2856 16.6413 21.2482 16.73C21.2156 16.814 21.1992 16.856 21.1992 16.856ZM24.0659 17.171C24.0192 17.143 23.9842 17.115 23.9609 17.087C23.9376 17.059 23.9259 17.0193 23.9259 16.968C23.9259 16.898 23.9352 16.8257 23.9539 16.751C23.9726 16.6717 23.9912 16.5947 24.0099 16.52C24.0192 16.436 24.0309 16.352 24.0449 16.268C24.0636 16.1793 24.0962 16.0977 24.1429 16.023C24.1942 15.8457 24.2479 15.6707 24.3039 15.498C24.3599 15.3207 24.4089 15.1387 24.4509 14.952C24.5116 14.7793 24.5652 14.6277 24.6119 14.497C24.6632 14.3617 24.7262 14.1913 24.8009 13.986C24.8429 13.8693 24.8779 13.7457 24.9059 13.615C24.9386 13.4797 24.9876 13.3583 25.0529 13.251C25.0809 13.209 25.1019 13.174 25.1159 13.146C25.1346 13.1133 25.1532 13.083 25.1719 13.055C25.1766 13.0363 25.1906 13.0247 25.2139 13.02C25.2419 13.0153 25.2722 13.0177 25.3049 13.027C25.3376 13.0363 25.3632 13.0527 25.3819 13.076C25.3959 13.0713 25.4122 13.0853 25.4309 13.118C25.4542 13.146 25.4752 13.1787 25.4939 13.216C25.5126 13.2533 25.5196 13.286 25.5149 13.314C25.5149 13.3327 25.5102 13.3583 25.5009 13.391C25.4962 13.4237 25.4846 13.454 25.4659 13.482C25.4472 13.5007 25.4286 13.5287 25.4099 13.566C25.3959 13.5987 25.3726 13.6453 25.3399 13.706C25.3212 13.7667 25.3049 13.8297 25.2909 13.895C25.2769 13.9557 25.2582 14.0117 25.2349 14.063C25.2162 14.119 25.1929 14.1727 25.1649 14.224C25.1416 14.2753 25.1252 14.3173 25.1159 14.35C25.0832 14.4573 25.0436 14.5623 24.9969 14.665C24.9549 14.7677 24.9176 14.8773 24.8849 14.994C24.8522 15.106 24.8196 15.2227 24.7869 15.344C24.7542 15.4607 24.7076 15.5727 24.6469 15.68C24.6142 15.7313 24.5909 15.7967 24.5769 15.876C24.5629 15.9553 24.5489 16.0347 24.5349 16.114C24.5069 16.198 24.4812 16.2773 24.4579 16.352C24.4392 16.422 24.4299 16.4663 24.4299 16.485C24.4019 16.5877 24.3809 16.6903 24.3669 16.793C24.3576 16.891 24.3342 16.9773 24.2969 17.052C24.2922 17.0987 24.2829 17.136 24.2689 17.164C24.2549 17.192 24.2316 17.2083 24.1989 17.213C24.1662 17.213 24.1219 17.199 24.0659 17.171ZM25.7315 17.297C25.6942 17.3063 25.6452 17.311 25.5845 17.311C25.5239 17.3063 25.4702 17.2993 25.4235 17.29C25.3815 17.276 25.3605 17.262 25.3605 17.248C25.3605 17.2247 25.3489 17.213 25.3255 17.213C25.3255 17.213 25.3139 17.2037 25.2905 17.185C25.2719 17.1663 25.2415 17.1477 25.1995 17.129C25.1575 17.0637 25.1365 16.9937 25.1365 16.919C25.1365 16.8397 25.1575 16.716 25.1995 16.548C25.2135 16.4313 25.2579 16.296 25.3325 16.142C25.4119 15.9833 25.5075 15.8223 25.6195 15.659C25.7315 15.4957 25.8482 15.3487 25.9695 15.218C26.0955 15.0873 26.2099 14.9917 26.3125 14.931C26.3779 14.8657 26.4572 14.8307 26.5505 14.826C26.6439 14.8213 26.7325 14.8423 26.8165 14.889C26.8632 14.9123 26.9099 14.9497 26.9565 15.001C27.0032 15.0523 27.0475 15.1083 27.0895 15.169C27.1315 15.2297 27.1665 15.2903 27.1945 15.351C27.2085 15.4023 27.2155 15.449 27.2155 15.491C27.2202 15.5283 27.2202 15.575 27.2155 15.631C27.2155 15.687 27.2085 15.771 27.1945 15.883C27.1712 15.967 27.1502 16.0697 27.1315 16.191C27.1175 16.3123 27.1105 16.4173 27.1105 16.506C27.1012 16.5947 27.1105 16.6577 27.1385 16.695C27.1712 16.7323 27.2179 16.7347 27.2785 16.702C27.3345 16.674 27.3882 16.6623 27.4395 16.667C27.4909 16.667 27.5305 16.681 27.5585 16.709C27.5912 16.737 27.6075 16.779 27.6075 16.835C27.6075 16.891 27.5795 16.9493 27.5235 17.01C27.4722 17.066 27.4069 17.115 27.3275 17.157C27.2529 17.1943 27.1805 17.213 27.1105 17.213C27.0592 17.213 27.0102 17.1827 26.9635 17.122C26.9169 17.0567 26.8749 16.9797 26.8375 16.891C26.8049 16.7977 26.7745 16.709 26.7465 16.625L26.7045 16.464L26.4035 16.751C26.3429 16.8163 26.2822 16.877 26.2215 16.933C26.1655 16.9843 26.1305 17.0217 26.1165 17.045C26.0932 17.087 26.0489 17.129 25.9835 17.171C25.9229 17.213 25.8389 17.255 25.7315 17.297ZM25.7525 16.884C25.8319 16.8373 25.9229 16.7697 26.0255 16.681C26.1282 16.5877 26.2285 16.4873 26.3265 16.38C26.4245 16.268 26.5062 16.1653 26.5715 16.072C26.6509 15.9647 26.7115 15.8643 26.7535 15.771C26.7955 15.6777 26.8259 15.589 26.8445 15.505C26.8259 15.4537 26.7955 15.4 26.7535 15.344C26.7115 15.2833 26.6742 15.2507 26.6415 15.246C26.5389 15.246 26.4292 15.3113 26.3125 15.442C26.2005 15.568 26.0909 15.7057 25.9835 15.855C25.9649 15.8783 25.9392 15.9157 25.9065 15.967C25.8739 16.0183 25.8412 16.0673 25.8085 16.114C25.7805 16.156 25.7619 16.184 25.7525 16.198C25.7385 16.2167 25.7105 16.2703 25.6685 16.359C25.6312 16.443 25.5939 16.5293 25.5565 16.618C25.5192 16.702 25.5005 16.758 25.5005 16.786C25.5005 16.814 25.5029 16.8443 25.5075 16.877C25.5169 16.9097 25.5402 16.9307 25.5775 16.94C25.6149 16.9493 25.6732 16.9307 25.7525 16.884Z" fill="#00F0FF"/>
<rect x="0.75" y="0.75" width="28.5" height="28.5" rx="14.25" stroke="#00F0FF" stroke-width="1.5"/>
</svg>
