<svg width="30" height="30" viewBox="0 0 30 30" fill="none" xmlns="http://www.w3.org/2000/svg">
<path d="M16.6287 10.1022L19.3469 6.37926C19.4628 6.21977 19.6243 6.10206 19.8086 6.04283C19.9928 5.9836 20.1904 5.98585 20.3733 6.04927C20.5562 6.11268 20.7152 6.23404 20.8277 6.39614C20.9402 6.55823 21.0005 6.75283 21 6.95234V18.9492C21 19.2013 20.9032 19.4431 20.731 19.6214C20.5587 19.7998 20.3251 19.9002 20.0813 19.9006H13.3713L19.4106 11.6267C19.5136 11.4855 19.5765 11.3175 19.5923 11.1415C19.6081 10.9654 19.5761 10.7883 19.5 10.63C19.4239 10.4717 19.3066 10.3384 19.1613 10.2452C19.016 10.152 18.8485 10.1024 18.6775 10.1022H16.6287Z" fill="#00F0FF"/>
<path d="M13.3713 19.9006L10.6531 23.6235C10.5368 23.7822 10.3752 23.899 10.1913 23.9577C10.0073 24.0164 9.81015 24.0139 9.6276 23.9507C9.44506 23.8874 9.28631 23.7665 9.17372 23.605C9.06113 23.4435 9.00037 23.2495 9 23.0504V11.0536C9.00179 10.8025 9.09951 10.5623 9.27186 10.3854C9.44421 10.2085 9.67721 10.1092 9.92005 10.1092H16.6287L10.5894 18.3761C10.4864 18.5173 10.4234 18.6855 10.4077 18.8617C10.3919 19.0378 10.424 19.2151 10.5003 19.3734C10.5766 19.5318 10.6941 19.665 10.8396 19.7581C10.985 19.8513 11.1528 19.9006 11.3238 19.9006H13.3713Z" fill="#00F0FF"/>
<rect x="0.75" y="0.75" width="28.5" height="28.5" rx="14.25" stroke="#00F0FF" stroke-width="1.5"/>
</svg>
