<svg width="30" height="30" viewBox="0 0 30 30" fill="none" xmlns="http://www.w3.org/2000/svg">
<path d="M14.8672 20H13.4141V18.5469H14.8672V20ZM17.6016 12.0156C17.6016 12.4219 17.526 12.7786 17.375 13.0859C17.2292 13.388 17.0443 13.6667 16.8203 13.9219C16.5964 14.1771 16.3516 14.4167 16.0859 14.6406C15.8203 14.8646 15.5755 15.0964 15.3516 15.3359C15.1276 15.5755 14.9401 15.8385 14.7891 16.125C14.638 16.4062 14.5625 16.7266 14.5625 17.0859H13.4297C13.4297 16.6797 13.5052 16.3177 13.6562 16C13.8125 15.6823 14.0026 15.3854 14.2266 15.1094C14.4505 14.8281 14.6979 14.5651 14.9688 14.3203C15.2448 14.0755 15.4948 13.8333 15.7188 13.5938C15.9427 13.3542 16.1302 13.1068 16.2812 12.8516C16.4375 12.5911 16.5156 12.3125 16.5156 12.0156C16.5156 11.5573 16.375 11.1979 16.0938 10.9375C15.8125 10.6771 15.4036 10.5469 14.8672 10.5469C14.5391 10.5469 14.25 10.6016 14 10.7109C13.7552 10.8151 13.5469 10.9583 13.375 11.1406C13.2083 11.3177 13.0729 11.5312 12.9688 11.7812C12.8698 12.0312 12.8047 12.3073 12.7734 12.6094L11.8125 12.4609C11.9062 11.5859 12.2057 10.8958 12.7109 10.3906C13.2214 9.88542 13.9349 9.63281 14.8516 9.63281C15.7161 9.63281 16.3906 9.85417 16.875 10.2969C17.3594 10.7396 17.6016 11.3125 17.6016 12.0156Z" fill="#00F0FF"/>
<rect x="0.75" y="0.75" width="28.5" height="28.5" rx="14.25" stroke="#00F0FF" stroke-width="1.5"/>
</svg>
