<svg width="30" height="30" viewBox="0 0 30 30" fill="none" xmlns="http://www.w3.org/2000/svg">
<g clip-path="url(#clip0_15_163)">
<path d="M15.4913 7.59126C16.4806 7.65001 17.4506 7.91001 18.3363 8.35626C19.1956 8.78626 19.9606 9.37814 20.5919 10.1013C21.2169 10.8238 21.6919 11.6475 22.0206 12.5719C22.3463 13.4963 22.4763 14.4694 22.4081 15.4919C22.3788 16.0194 22.2944 16.5338 22.1544 17.0319C22.0144 17.52 21.8256 17.9956 21.5913 18.4513C21.2269 19.1575 20.8163 19.825 20.3675 20.46C19.9181 21.0913 19.43 21.6806 18.8994 22.2244C18.3656 22.7681 17.8025 23.2694 17.2031 23.7281C16.6044 24.1806 15.9794 24.5906 15.325 24.9588L15.2956 24.9813C15.2663 24.9944 15.2369 25.0038 15.2044 25.0006C15.1525 24.9875 15.1069 24.9581 15.0706 24.9194C15.0381 24.8769 15.0188 24.825 15.0188 24.7763C15.0188 24.75 15.0219 24.7275 15.0288 24.7044C15.0388 24.685 15.0481 24.6688 15.0613 24.6525C15.2925 24.3238 15.4813 23.9819 15.6344 23.6238C15.7844 23.2625 15.885 22.885 15.9406 22.4906C15.9406 22.4644 15.9275 22.4388 15.9081 22.4188C15.8919 22.3994 15.8625 22.3863 15.8363 22.3863C15.6181 22.4156 15.3969 22.4319 15.1756 22.4381C14.9544 22.4481 14.7331 22.4381 14.5113 22.4088C13.5219 22.35 12.5519 22.0863 11.6631 21.6438C10.8038 21.2138 10.0388 20.6219 9.40751 19.8988C8.77939 19.1731 8.29439 18.3363 7.97876 17.4281C7.65314 16.4906 7.52001 15.5013 7.59126 14.5081C7.62064 13.9806 7.70501 13.4663 7.84814 12.9681C7.99126 12.47 8.17689 12.0081 8.41126 11.5681C8.77564 10.8488 9.18626 10.1719 9.63501 9.54001C10.0838 8.90814 10.5725 8.31939 11.1 7.77251C11.6338 7.23189 12.1969 6.73064 12.7963 6.27501C13.3956 5.81939 14.02 5.40939 14.6744 5.04126L14.7038 5.02189C14.7331 5.00564 14.7625 4.99939 14.795 4.99939C14.8506 5.01251 14.8956 5.04189 14.9288 5.08064C14.9644 5.12314 14.9806 5.16876 14.9806 5.22689C14.9806 5.24939 14.9775 5.27251 14.9706 5.29501C14.9644 5.31439 14.9513 5.33064 14.9381 5.34689C14.71 5.66939 14.5181 6.01439 14.365 6.37876C14.215 6.74001 14.1175 7.11439 14.0625 7.50814C14.0625 7.53751 14.0725 7.56001 14.0919 7.58001C14.1113 7.60001 14.1375 7.61251 14.1638 7.61251C14.3819 7.58314 14.6031 7.56689 14.8244 7.56064C15.0525 7.55439 15.2706 7.56376 15.4919 7.59001L15.4913 7.59126ZM14.8175 17.8969C15.5856 17.9619 16.3475 17.705 16.9169 17.1838C17.5194 16.6531 17.8413 15.9856 17.8969 15.185C17.9619 14.41 17.705 13.645 17.1838 13.0725C16.6825 12.4831 15.9563 12.1288 15.185 12.1025C14.4138 12.0375 13.6488 12.2981 13.0725 12.8156C12.4831 13.3169 12.1288 14.0431 12.1025 14.8175C12.0375 15.5888 12.2944 16.3506 12.8088 16.93C13.3294 17.5325 14 17.8575 14.8175 17.8969Z" fill="#3C486B"/>
</g>
<rect x="0.75" y="0.75" width="28.5" height="28.5" rx="14.25" stroke="#3C486B" stroke-width="1.5"/>
<defs>
<clipPath id="clip0_15_163">
<rect width="20" height="20" fill="white" transform="translate(5 5)"/>
</clipPath>
</defs>
</svg>
