<svg width="30" height="30" viewBox="0 0 30 30" fill="none" xmlns="http://www.w3.org/2000/svg">
<path d="M22.708 18.5273C21.2497 21.6884 18.281 23.3442 15.104 23.294C9.01034 22.993 7.23954 16.2192 11.302 13.7605L11.4582 13.9612C7.03121 19.4806 15.729 24.7993 19.7393 18.4269C23.0205 11.8037 14.8436 5.28075 7.76036 10.2984L7.60411 10.1478C9.47908 7.2878 13.1248 6.03339 16.5623 6.88639C17.8205 7.16815 18.9994 7.71172 20.0164 8.47897C21.0334 9.24622 21.8639 10.2186 22.4495 11.3278C23.0351 12.437 23.3617 13.6562 23.4063 14.8999C23.451 16.1437 23.2126 17.3817 22.708 18.5273ZM16.9789 18.4269C16.7161 18.7992 16.3577 19.0996 15.9387 19.299C15.5197 19.4984 15.0542 19.5899 14.5876 19.5646C14.121 19.5394 13.6691 19.3982 13.2759 19.1549C12.8827 18.9116 12.5615 18.5743 12.3436 18.176C11.354 16.169 12.7603 14.3626 14.5311 14.3125C16.7185 14.2121 17.6039 16.5704 16.2498 17.9252L16.9789 18.4269ZM7.44787 18.176L7.18746 18.2764C4.84375 9.5959 16.406 7.33798 18.6976 14.2121L18.4893 14.3125C15.0519 9.5959 7.13537 11.2517 7.44787 18.176ZM24.9996 14.9648C24.9716 12.7106 24.1605 10.5305 22.6958 8.77246C21.2312 7.01442 19.1973 5.77981 16.9191 5.26574C14.6408 4.75167 12.2494 4.98778 10.1267 5.93638C8.00402 6.88497 6.27242 8.49136 5.20833 10.4991L5.98956 11.051C5.31249 12.5061 5 13.9111 5 15.3662C5.31249 21.7887 10.2082 25 15.104 25C19.9997 24.9498 25.0517 21.2368 24.9996 14.9648Z" fill="#00F0FF"/>
<rect x="0.75" y="0.75" width="28.5" height="28.5" rx="14.25" stroke="#00F0FF" stroke-width="1.5"/>
</svg>
