<svg width="30" height="30" viewBox="0 0 30 30" fill="none" xmlns="http://www.w3.org/2000/svg">
<path d="M15.2379 20.5605C15.9081 21.1653 16.7787 21.5 17.6814 21.5H18.5272C18.9254 21.5 19.3214 21.4401 19.7017 21.3223L20.4256 21.0982C20.6067 21.0422 20.7827 20.971 20.9518 20.8855C21.9014 20.4055 22.5 19.432 22.5 18.368V17.2477V14.6963V10.3429C22.5 10.1357 22.4159 9.93734 22.267 9.79327C21.5179 9.06855 20.3323 9.05778 19.5702 9.76878L19.5492 9.78841C19.3917 9.93529 19.3023 10.1409 19.3023 10.3563V16.9432C19.3023 17.6817 18.7036 18.2804 17.9651 18.2804C17.1303 18.2804 16.4535 17.6036 16.4535 16.7687V14.4533V11.3788C16.4535 11.2455 16.4082 11.1161 16.3251 11.0119C15.6465 10.1611 14.3535 10.1611 13.6749 11.0119C13.5918 11.1161 13.5465 11.2455 13.5465 11.3788V16.7687C13.5465 17.6036 12.8697 18.2804 12.0349 18.2804C11.2321 18.2804 10.5814 17.6296 10.5814 16.8269V16.215V15.1215V10.3463C10.5814 10.1365 10.4983 9.9352 10.3503 9.78648C9.64014 9.07304 8.48868 9.06218 7.76522 9.7621L7.74545 9.78122C7.58858 9.933 7.5 10.1419 7.5 10.3602V17.3084V17.805C7.5 19.1987 8.3313 20.4581 9.61288 21.0059C9.90918 21.1326 10.2158 21.2337 10.5293 21.3081L10.8034 21.3732C11.1581 21.4575 11.5213 21.5 11.8858 21.5H12.2493C13.0893 21.5 13.9046 21.2157 14.5624 20.6933L14.749 20.5451C14.8939 20.4301 15.1006 20.4366 15.2379 20.5605Z" fill="white"/>
<rect x="0.75" y="0.75" width="28.5" height="28.5" rx="14.25" stroke="white" stroke-width="1.5"/>
</svg>
