<svg width="82" height="83" viewBox="0 0 82 83" fill="none" xmlns="http://www.w3.org/2000/svg">
<path fill-rule="evenodd" clip-rule="evenodd" d="M15.1421 43.8127L15.0363 44.4835L15.3607 45.0801L24.1398 61.2219L24.5399 61.9575L25.3447 62.1886L40.2378 66.4655L40.8117 66.6304L41.3821 66.4535L55.1778 62.1766L55.8753 61.9604L56.2693 61.3456L66.6161 45.2038L66.9323 44.7105V44.1245V35.2948V34.5753L66.474 34.0207L53.9325 18.8446L51.2488 15.5973L50.429 19.7295L49.4062 24.8845L48.0479 23.6094L48.8947 14.7913L48.9038 14.6959V14.6001V7.01206V6.26799L48.4175 5.70486L45.4389 2.25574L43.6256 0.156006L42.2066 2.54002L37.0903 11.1359L31.2004 18.911L31.0155 19.155L30.9121 19.4432L28.0922 27.3019L25.4168 25.1753L23.8142 23.9015L22.5781 25.5333L18.1885 31.3278L17.9616 31.6274L17.8589 31.989L15.9776 38.6112L15.9447 38.7271L15.926 38.846L15.1421 43.8127ZM50.9729 27.2649L51.1251 26.498L51.8885 22.6504L52.3908 20.1187L54.035 22.1083L59.9537 29.2703L50.9729 27.2649ZM49.9431 28.1316L50.6663 28.8104L50.7783 28.2461L59.8677 30.2757L57.1509 37.3288L44.4947 30.0272L49.9431 28.1316ZM49.1202 27.3591L44.3339 29.0244L46.5094 24.9083L48.9474 27.1969L49.1202 27.3591ZM46.0938 23.0356L46.6761 16.9713L42.3968 19.887L46.0938 23.0356ZM46.7588 16.1102L46.9038 14.6001V7.01206L45.3031 5.15841L44.3945 4.10633L43.8098 11.4387L46.7588 16.1102ZM44.0532 3.71111L43.9252 3.56294L43.8468 3.69466L44.0532 3.71111ZM43.3587 4.51467L42.847 5.37442L38.7518 12.2547L32.7946 20.1187L31.1151 24.7991L37.3494 19.9985L37.454 19.9179L37.5847 19.8995L41.3885 19.3639L45.753 16.3902L42.8753 11.8318L42.7865 11.691L42.7997 11.5251L43.3587 4.51467ZM30.4893 26.5431L37.8549 20.8713L41.4207 20.3692L45.8042 24.1024L42.9746 29.4563L33.0057 30.9184L29.4009 29.5763L29.7454 28.6161L30.4893 26.5431ZM28.8647 30.4709L29.0321 30.604L29.0631 30.5176L32.3164 31.7289L29.7431 39.026L23.7355 40.7883L19.3008 34.9343L28.8647 30.4709ZM27.99 29.7756L27.3788 29.2898L25.7383 27.9858L24.1723 26.741L22.9643 28.3356L19.7827 32.5355L19.4322 33.7694L27.99 29.7756ZM18.8136 35.9471L17.9015 39.1578L17.1177 44.1245L18.5063 46.6777L22.9077 41.3517L18.8136 35.9471ZM19.3162 48.1669L25.8967 60.2663L26.2172 60.3584L34.8254 57.5175L30.4492 51.1816L19.3162 48.1669ZM27.9234 60.8483L39.403 64.145L35.4177 58.3751L27.9234 60.8483ZM42.5169 64.0078L54.5855 60.2663L59.9797 51.8509L42.5169 64.0078ZM61.6775 49.2022L64.9323 44.1245V35.2948L60.8901 30.4034L57.9387 38.0657L61.6775 49.2022ZM33.3225 31.8827L42.7981 30.4928V37.8353L36.9717 43.2193L30.7329 39.2262L33.3225 31.8827ZM31.3937 50.7893L37.1518 44.4551L48.7018 49.7304L40.4408 63.8879L36.0279 57.4988L31.3937 50.7893ZM42.0499 63.1145L49.8338 49.7747L57.2492 39.154L60.8901 49.9987L42.0499 63.1145ZM56.6854 38.2148L43.7981 30.7799V38.0541V38.2728L43.6375 38.4213L37.9185 43.7059L49.2408 48.8772L56.6854 38.2148ZM36.259 43.9504L30.5922 50.1843L19.4084 47.1559L23.833 41.8018L30.0518 39.9776L36.259 43.9504Z" fill="#00F0FF"/>
<mask id="path-2-outside-1_137_1194" maskUnits="userSpaceOnUse" x="29.2363" y="31.5596" width="24" height="26" fill="black">
<rect fill="white" x="29.2363" y="31.5596" width="24" height="26"/>
<path fill-rule="evenodd" clip-rule="evenodd" d="M51.557 39.2162L40.8966 33.5596L30.2363 39.2162V50.5293L40.8966 56.1858L51.557 50.5293V39.2162ZM41.4554 36.5533L41.1558 36.3291L40.8562 36.5533L39.9492 37.232L39.7488 37.382V37.6324V38.4909L38.8264 38.7325L38.6675 38.7741L38.5642 38.9018L37.0093 40.8251L36.8874 40.9759L36.8991 41.1695L37.0286 43.319L37.0405 43.5153L37.1829 43.6509L38.6082 45.0085L38.6589 45.0569L38.721 45.0894L40.0168 45.7682L40.0923 45.8078L40.1768 45.82L41.6012 46.0273L42.4698 46.7014V47.4738L41.6161 48.2192H40.4179L39.7122 47.68V47.0222V46.795L39.541 46.6456L38.634 45.8537L38.2788 45.5435L37.9484 45.88L37.1709 46.6719L37.0277 46.8178V47.0222V48.1535V48.3356L37.1449 48.4751L38.5702 50.1721L38.6585 50.2772L38.7882 50.3225L39.7488 50.658V51.7737V52.0009L39.9199 52.1504L40.8269 52.9423L41.1999 53.2679L41.5291 52.8982L42.4362 51.88L42.5628 51.7379V51.5474V50.8318L44.2384 49.954L44.3677 49.8863L44.4403 49.7596L45.2177 48.402L45.2838 48.2866V48.1535V46.4566V46.3405L45.2327 46.2362L44.4552 44.6524L44.3832 44.5057L44.2384 44.4298L42.2948 43.4116L42.2284 43.3769L42.1548 43.3631L40.4748 43.0488L39.7122 42.3829V41.706L40.4363 41.0738H41.8915L42.729 41.7237V42.6101V42.8373L42.9001 42.9868L43.6776 43.6655L44.0064 43.9527L44.3353 43.6655L45.1127 42.9868L45.2838 42.8373V42.6101V41.0263V40.8829L45.2079 40.7614L44.4305 39.5169L44.3519 39.3912L44.2175 39.3286L42.5628 38.5581V37.6324V37.382L42.3624 37.232L41.4554 36.5533ZM40.7488 38.8768V37.8827L41.1558 37.5781L41.5628 37.8827V38.8768V39.1955L41.8517 39.3301L43.6609 40.1725L44.2838 41.1696V42.3829L44.0064 42.6251L43.729 42.3829V41.4788V41.2339L43.5355 41.0838L42.3694 40.1788L42.2341 40.0738H42.0628H40.2488H40.0612L39.9199 40.1971L38.8833 41.1022L38.7122 41.2516V41.4788V42.6101V42.8373L38.8833 42.9868L39.9199 43.8918L40.0227 43.9815L40.1568 44.0066L41.8972 44.3322L43.6296 45.2398L44.2838 46.5727V48.0205L43.6451 49.1359L41.8308 50.0864L41.5628 50.2267V50.5293V51.357L41.1117 51.8634L40.7488 51.5465V50.303V49.948L40.4136 49.831L39.2476 49.4237L38.0277 47.9714V47.2266L38.3316 46.9171L38.7122 47.2494V47.9273V48.1745L38.9087 48.3246L39.9452 49.1165L40.0796 49.2192H40.2488H41.8037H41.9912L42.1325 49.0958L43.2987 48.0776L43.4698 47.9282V47.701V46.4566V46.2117L43.2764 46.0616L42.1102 45.1565L42.0061 45.0757L41.8757 45.0567L40.4052 44.8427L39.2471 44.2361L38.015 43.0625L37.9089 41.3029L39.2386 39.6583L40.3755 39.3605L40.7488 39.2627V38.8768Z"/>
</mask>
<path fill-rule="evenodd" clip-rule="evenodd" d="M51.557 39.2162L40.8966 33.5596L30.2363 39.2162V50.5293L40.8966 56.1858L51.557 50.5293V39.2162ZM41.4554 36.5533L41.1558 36.3291L40.8562 36.5533L39.9492 37.232L39.7488 37.382V37.6324V38.4909L38.8264 38.7325L38.6675 38.7741L38.5642 38.9018L37.0093 40.8251L36.8874 40.9759L36.8991 41.1695L37.0286 43.319L37.0405 43.5153L37.1829 43.6509L38.6082 45.0085L38.6589 45.0569L38.721 45.0894L40.0168 45.7682L40.0923 45.8078L40.1768 45.82L41.6012 46.0273L42.4698 46.7014V47.4738L41.6161 48.2192H40.4179L39.7122 47.68V47.0222V46.795L39.541 46.6456L38.634 45.8537L38.2788 45.5435L37.9484 45.88L37.1709 46.6719L37.0277 46.8178V47.0222V48.1535V48.3356L37.1449 48.4751L38.5702 50.1721L38.6585 50.2772L38.7882 50.3225L39.7488 50.658V51.7737V52.0009L39.9199 52.1504L40.8269 52.9423L41.1999 53.2679L41.5291 52.8982L42.4362 51.88L42.5628 51.7379V51.5474V50.8318L44.2384 49.954L44.3677 49.8863L44.4403 49.7596L45.2177 48.402L45.2838 48.2866V48.1535V46.4566V46.3405L45.2327 46.2362L44.4552 44.6524L44.3832 44.5057L44.2384 44.4298L42.2948 43.4116L42.2284 43.3769L42.1548 43.3631L40.4748 43.0488L39.7122 42.3829V41.706L40.4363 41.0738H41.8915L42.729 41.7237V42.6101V42.8373L42.9001 42.9868L43.6776 43.6655L44.0064 43.9527L44.3353 43.6655L45.1127 42.9868L45.2838 42.8373V42.6101V41.0263V40.8829L45.2079 40.7614L44.4305 39.5169L44.3519 39.3912L44.2175 39.3286L42.5628 38.5581V37.6324V37.382L42.3624 37.232L41.4554 36.5533ZM40.7488 38.8768V37.8827L41.1558 37.5781L41.5628 37.8827V38.8768V39.1955L41.8517 39.3301L43.6609 40.1725L44.2838 41.1696V42.3829L44.0064 42.6251L43.729 42.3829V41.4788V41.2339L43.5355 41.0838L42.3694 40.1788L42.2341 40.0738H42.0628H40.2488H40.0612L39.9199 40.1971L38.8833 41.1022L38.7122 41.2516V41.4788V42.6101V42.8373L38.8833 42.9868L39.9199 43.8918L40.0227 43.9815L40.1568 44.0066L41.8972 44.3322L43.6296 45.2398L44.2838 46.5727V48.0205L43.6451 49.1359L41.8308 50.0864L41.5628 50.2267V50.5293V51.357L41.1117 51.8634L40.7488 51.5465V50.303V49.948L40.4136 49.831L39.2476 49.4237L38.0277 47.9714V47.2266L38.3316 46.9171L38.7122 47.2494V47.9273V48.1745L38.9087 48.3246L39.9452 49.1165L40.0796 49.2192H40.2488H41.8037H41.9912L42.1325 49.0958L43.2987 48.0776L43.4698 47.9282V47.701V46.4566V46.2117L43.2764 46.0616L42.1102 45.1565L42.0061 45.0757L41.8757 45.0567L40.4052 44.8427L39.2471 44.2361L38.015 43.0625L37.9089 41.3029L39.2386 39.6583L40.3755 39.3605L40.7488 39.2627V38.8768Z" fill="#00F0FF"/>
<path d="M40.8966 33.5596L41.3654 32.6763L40.8966 32.4276L40.4279 32.6763L40.8966 33.5596ZM51.557 39.2162H52.557V38.6147L52.0257 38.3328L51.557 39.2162ZM30.2363 39.2162L29.7676 38.3328L29.2363 38.6147V39.2162H30.2363ZM30.2363 50.5293H29.2363V51.1307L29.7676 51.4126L30.2363 50.5293ZM40.8966 56.1858L40.4279 57.0691L40.8966 57.3179L41.3654 57.0691L40.8966 56.1858ZM51.557 50.5293L52.0257 51.4126L52.557 51.1307V50.5293H51.557ZM41.1558 36.3291L41.755 35.5284L41.1558 35.08L40.5566 35.5284L41.1558 36.3291ZM41.4554 36.5533L40.8562 37.3539L40.8562 37.3539L41.4554 36.5533ZM40.8562 36.5533L40.257 35.7526V35.7526L40.8562 36.5533ZM39.9492 37.232L39.35 36.4314L39.35 36.4314L39.9492 37.232ZM39.7488 37.382L39.1496 36.5814L38.7488 36.8814V37.382H39.7488ZM39.7488 38.4909L40.0022 39.4583L40.7488 39.2627V38.4909H39.7488ZM38.8264 38.7325L39.0797 39.6999L39.0797 39.6999L38.8264 38.7325ZM38.6675 38.7741L38.4141 37.8067L38.0963 37.89L37.8898 38.1454L38.6675 38.7741ZM38.5642 38.9018L39.3419 39.5305L39.3419 39.5305L38.5642 38.9018ZM37.0093 40.8251L37.787 41.4538L37.787 41.4538L37.0093 40.8251ZM36.8874 40.9759L36.1098 40.3472L35.8659 40.6488L35.8892 41.0361L36.8874 40.9759ZM36.8991 41.1695L37.8973 41.1093V41.1093L36.8991 41.1695ZM37.0286 43.319L36.0305 43.3792V43.3792L37.0286 43.319ZM37.0405 43.5153L36.0423 43.5755L36.066 43.9681L36.3508 44.2394L37.0405 43.5153ZM37.1829 43.6509L37.8726 42.9268L37.1829 43.6509ZM38.6082 45.0085L37.9185 45.7326L37.9185 45.7326L38.6082 45.0085ZM38.6589 45.0569L37.9693 45.781L38.0707 45.8776L38.1949 45.9427L38.6589 45.0569ZM38.721 45.0894L38.257 45.9752L38.257 45.9752L38.721 45.0894ZM40.0168 45.7682L40.4808 44.8823L40.4808 44.8823L40.0168 45.7682ZM40.0923 45.8078L39.6283 46.6936L39.7795 46.7728L39.9483 46.7973L40.0923 45.8078ZM40.1768 45.82L40.0328 46.8096H40.0328L40.1768 45.82ZM41.6012 46.0273L42.2143 45.2373L42.0061 45.0757L41.7452 45.0377L41.6012 46.0273ZM42.4698 46.7014H43.4698V46.2117L43.0829 45.9114L42.4698 46.7014ZM42.4698 47.4738L43.1275 48.2271L43.4698 47.9282V47.4738H42.4698ZM41.6161 48.2192V49.2192H41.9912L42.2738 48.9725L41.6161 48.2192ZM40.4179 48.2192L39.8108 49.0138L40.0796 49.2192H40.4179V48.2192ZM39.7122 47.68H38.7122V48.1745L39.1051 48.4747L39.7122 47.68ZM39.7122 46.795H40.7122V46.3406L40.3699 46.0417L39.7122 46.795ZM39.541 46.6456L38.8833 47.3989L38.8833 47.3989L39.541 46.6456ZM38.634 45.8537L37.9763 46.6069L37.9763 46.6069L38.634 45.8537ZM38.2788 45.5435L38.9365 44.7902L38.2259 44.1698L37.5652 44.8429L38.2788 45.5435ZM37.9484 45.88L37.2348 45.1795L37.9484 45.88ZM37.1709 46.6719L36.4573 45.9714L36.4573 45.9714L37.1709 46.6719ZM37.0277 46.8178L36.3141 46.1172L36.0277 46.409V46.8178H37.0277ZM37.0277 48.3356H36.0277V48.6999L36.262 48.9788L37.0277 48.3356ZM37.1449 48.4751L36.3791 49.1183L36.3791 49.1183L37.1449 48.4751ZM38.5702 50.1721L37.8044 50.8152L37.8044 50.8152L38.5702 50.1721ZM38.6585 50.2772L37.8928 50.9204L38.0695 51.1307L38.3288 51.2213L38.6585 50.2772ZM38.7882 50.3225L38.4585 51.2666L38.4585 51.2666L38.7882 50.3225ZM39.7488 50.658H40.7488V49.948L40.0785 49.7139L39.7488 50.658ZM39.7488 52.0009H38.7488V52.4553L39.0911 52.7542L39.7488 52.0009ZM39.9199 52.1504L39.2622 52.9036L39.2622 52.9036L39.9199 52.1504ZM40.8269 52.9423L41.4846 52.189H41.4846L40.8269 52.9423ZM41.1999 53.2679L40.5422 54.0211L41.288 54.6723L41.9465 53.933L41.1999 53.2679ZM41.5291 52.8982L40.7824 52.233L41.5291 52.8982ZM42.4362 51.88L43.1828 52.5452L43.1828 52.5452L42.4362 51.88ZM42.5628 51.7379L43.3095 52.403L43.5628 52.1187V51.7379H42.5628ZM42.5628 50.8318L42.0988 49.946L41.5628 50.2267V50.8318H42.5628ZM44.2384 49.954L43.7744 49.0682L44.2384 49.954ZM44.3677 49.8863L44.8318 50.7721L45.0904 50.6366L45.2355 50.3832L44.3677 49.8863ZM44.4403 49.7596L43.5725 49.2626L43.5725 49.2626L44.4403 49.7596ZM45.2177 48.402L46.0855 48.8989L46.0855 48.8989L45.2177 48.402ZM45.2838 48.2866L46.1516 48.7835L46.2838 48.5526V48.2866H45.2838ZM45.2838 46.3405H46.2838V46.1083L46.1815 45.8998L45.2838 46.3405ZM45.2327 46.2362L46.1304 45.7956L46.1304 45.7956L45.2327 46.2362ZM44.4552 44.6524L43.5576 45.093V45.093L44.4552 44.6524ZM44.3832 44.5057L45.2809 44.065L45.1369 43.7716L44.8473 43.6199L44.3832 44.5057ZM44.2384 44.4298L43.7744 45.3156L43.7744 45.3156L44.2384 44.4298ZM42.2948 43.4116L42.7589 42.5258L42.7589 42.5258L42.2948 43.4116ZM42.2284 43.3769L42.6925 42.491L42.5597 42.4215L42.4123 42.3939L42.2284 43.3769ZM42.1548 43.3631L42.3387 42.3801L42.3387 42.3801L42.1548 43.3631ZM40.4748 43.0488L39.8172 43.8021L40.0227 43.9815L40.2909 44.0317L40.4748 43.0488ZM39.7122 42.3829H38.7122V42.8373L39.0545 43.1362L39.7122 42.3829ZM39.7122 41.706L39.0545 40.9527L38.7122 41.2516V41.706H39.7122ZM40.4363 41.0738V40.0738H40.0612L39.7786 40.3205L40.4363 41.0738ZM41.8915 41.0738L42.5047 40.2838L42.2341 40.0738H41.8915V41.0738ZM42.729 41.7237H43.729V41.2339L43.3421 40.9337L42.729 41.7237ZM42.729 42.8373H41.729V43.2917L42.0713 43.5906L42.729 42.8373ZM42.9001 42.9868L43.5578 42.2335L43.5578 42.2335L42.9001 42.9868ZM43.6776 43.6655L44.3353 42.9123L43.6776 43.6655ZM44.0064 43.9527L43.3487 44.7059L44.0064 45.2802L44.6641 44.7059L44.0064 43.9527ZM44.3353 43.6655L43.6776 42.9123L44.3353 43.6655ZM45.1127 42.9868L44.455 42.2335L44.455 42.2335L45.1127 42.9868ZM45.2838 42.8373L45.9415 43.5906L46.2838 43.2917V42.8373H45.2838ZM45.2838 40.8829H46.2838V40.5962L46.1319 40.3531L45.2838 40.8829ZM45.2079 40.7614L46.056 40.2315L46.056 40.2315L45.2079 40.7614ZM44.4305 39.5169L43.5824 40.0468L43.5824 40.0468L44.4305 39.5169ZM44.3519 39.3912L45.2 38.8613L45.0429 38.6098L44.774 38.4846L44.3519 39.3912ZM44.2175 39.3286L43.7953 40.2351L43.7953 40.2351L44.2175 39.3286ZM42.5628 38.5581H41.5628V39.1955L42.1407 39.4646L42.5628 38.5581ZM42.5628 37.382H43.5628V36.8814L43.162 36.5814L42.5628 37.382ZM42.3624 37.232L42.9616 36.4314L42.9616 36.4314L42.3624 37.232ZM40.7488 37.8827L40.1496 37.0821L39.7488 37.382V37.8827H40.7488ZM41.1558 37.5781L41.755 36.7775L41.1558 36.3291L40.5566 36.7775L41.1558 37.5781ZM41.5628 37.8827H42.5628V37.382L42.162 37.0821L41.5628 37.8827ZM41.5628 39.1955H40.5628V39.833L41.1407 40.102L41.5628 39.1955ZM41.8517 39.3301L41.4296 40.2366L41.4296 40.2366L41.8517 39.3301ZM43.6609 40.1725L44.509 39.6427L44.3519 39.3912L44.0831 39.266L43.6609 40.1725ZM44.2838 41.1696H45.2838V40.8829L45.1319 40.6398L44.2838 41.1696ZM44.2838 42.3829L44.9415 43.1362L45.2838 42.8373V42.3829H44.2838ZM44.0064 42.6251L43.3487 43.3784L44.0064 43.9527L44.6641 43.3784L44.0064 42.6251ZM43.729 42.3829H42.729V42.8373L43.0713 43.1362L43.729 42.3829ZM43.729 41.2339H44.729V40.7442L44.3421 40.4439L43.729 41.2339ZM43.5355 41.0838L42.9224 41.8738L42.9224 41.8738L43.5355 41.0838ZM42.3694 40.1788L41.7562 40.9688L41.7562 40.9688L42.3694 40.1788ZM42.2341 40.0738L42.8472 39.2838L42.5766 39.0738H42.2341V40.0738ZM40.0612 40.0738V39.0738H39.6861L39.4035 39.3205L40.0612 40.0738ZM39.9199 40.1971L39.2622 39.4438L39.2622 39.4438L39.9199 40.1971ZM38.8833 41.1022L38.2256 40.3489L38.2256 40.3489L38.8833 41.1022ZM38.7122 41.2516L38.0545 40.4983L37.7122 40.7972V41.2516H38.7122ZM38.7122 42.8373H37.7122V43.2917L38.0545 43.5906L38.7122 42.8373ZM38.8833 42.9868L39.541 42.2335L39.541 42.2335L38.8833 42.9868ZM39.9199 43.8918L39.2622 44.6451L39.2622 44.6451L39.9199 43.8918ZM40.0227 43.9815L39.365 44.7348L39.5706 44.9143L39.8388 44.9645L40.0227 43.9815ZM40.1568 44.0066L39.9729 44.9896L40.1568 44.0066ZM41.8972 44.3322L42.3612 43.4464L42.2284 43.3769L42.0811 43.3493L41.8972 44.3322ZM43.6296 45.2398L44.5273 44.7991L44.3832 44.5057L44.0936 44.354L43.6296 45.2398ZM44.2838 46.5727H45.2838V46.3405L45.1815 46.132L44.2838 46.5727ZM44.2838 48.0205L45.1516 48.5174L45.2838 48.2866V48.0205H44.2838ZM43.6451 49.1359L44.1091 50.0217L44.3677 49.8863L44.5128 49.6329L43.6451 49.1359ZM41.8308 50.0864L42.2948 50.9722L42.2948 50.9722L41.8308 50.0864ZM41.5628 50.2267L41.0988 49.3409L40.5628 49.6217V50.2267H41.5628ZM41.5628 51.357L42.3095 52.0222L42.5628 51.7379V51.357H41.5628ZM41.1117 51.8634L40.454 52.6167L41.1999 53.2679L41.8584 52.5286L41.1117 51.8634ZM40.7488 51.5465H39.7488V52.0009L40.0911 52.2998L40.7488 51.5465ZM40.7488 49.948H41.7488V49.238L41.0785 49.0039L40.7488 49.948ZM40.4136 49.831L40.7433 48.8869L40.4136 49.831ZM39.2476 49.4237L38.4818 50.0669L38.6585 50.2772L38.9179 50.3678L39.2476 49.4237ZM38.0277 47.9714H37.0277V48.3356L37.262 48.6146L38.0277 47.9714ZM38.0277 47.2266L37.3141 46.5261L37.0277 46.8178V47.2266H38.0277ZM38.3316 46.9171L38.9893 46.1638L38.2788 45.5435L37.618 46.2166L38.3316 46.9171ZM38.7122 47.2494H39.7122V46.795L39.3699 46.4961L38.7122 47.2494ZM38.7122 48.1745H37.7122V48.669L38.1051 48.9691L38.7122 48.1745ZM38.9087 48.3246L38.3016 49.1192L38.9087 48.3246ZM39.9452 49.1165L39.3382 49.9111L39.9452 49.1165ZM40.0796 49.2192L39.4726 50.0138L39.7414 50.2192H40.0796V49.2192ZM41.9912 49.2192V50.2192H42.3663L42.6489 49.9725L41.9912 49.2192ZM42.1325 49.0958L42.7902 49.8491H42.7902L42.1325 49.0958ZM43.2987 48.0776L43.9564 48.8309L43.9564 48.8309L43.2987 48.0776ZM43.4698 47.9282L44.1275 48.6815L44.4698 48.3826V47.9282H43.4698ZM43.4698 46.2117H44.4698V45.722L44.0829 45.4217L43.4698 46.2117ZM43.2764 46.0616L43.8895 45.2716L43.2764 46.0616ZM42.1102 45.1565L41.4971 45.9465L42.1102 45.1565ZM42.0061 45.0757L42.6192 44.2857L42.4109 44.1241L42.1501 44.0861L42.0061 45.0757ZM41.8757 45.0567L42.0197 44.0671H42.0197L41.8757 45.0567ZM40.4052 44.8427L39.9412 45.7286L40.0923 45.8078L40.2612 45.8323L40.4052 44.8427ZM39.2471 44.2361L38.5575 44.9602L38.6589 45.0568L38.7831 45.1219L39.2471 44.2361ZM38.015 43.0625L37.0168 43.1227L37.0405 43.5153L37.3253 43.7866L38.015 43.0625ZM37.9089 41.3029L37.1313 40.6742L36.8874 40.9759L36.9107 41.3631L37.9089 41.3029ZM39.2386 39.6583L38.9852 38.6909L38.6675 38.7741L38.461 39.0295L39.2386 39.6583ZM40.3755 39.3605L40.1221 38.3931L40.3755 39.3605ZM40.7488 39.2627L41.0022 40.2301L41.7488 40.0345V39.2627H40.7488ZM40.4279 34.443L51.0882 40.0995L52.0257 38.3328L41.3654 32.6763L40.4279 34.443ZM30.705 40.0995L41.3654 34.443L40.4279 32.6763L29.7676 38.3328L30.705 40.0995ZM31.2363 50.5293V39.2162H29.2363V50.5293H31.2363ZM41.3654 55.3025L30.705 49.6459L29.7676 51.4126L40.4279 57.0691L41.3654 55.3025ZM51.0882 49.6459L40.4279 55.3025L41.3654 57.0691L52.0257 51.4126L51.0882 49.6459ZM50.557 39.2162V50.5293H52.557V39.2162H50.557ZM40.5566 37.1297L40.8562 37.3539L42.0545 35.7526L41.755 35.5284L40.5566 37.1297ZM41.4554 37.3539L41.755 37.1297L40.5566 35.5284L40.257 35.7526L41.4554 37.3539ZM40.5484 38.0327L41.4554 37.3539L40.257 35.7526L39.35 36.4314L40.5484 38.0327ZM40.3479 38.1827L40.5484 38.0327L39.35 36.4314L39.1496 36.5814L40.3479 38.1827ZM40.7488 37.6324V37.382H38.7488V37.6324H40.7488ZM40.7488 38.4909V37.6324H38.7488V38.4909H40.7488ZM39.0797 39.6999L40.0022 39.4583L39.4954 37.5235L38.573 37.7651L39.0797 39.6999ZM38.9209 39.7415L39.0797 39.6999L38.573 37.7651L38.4141 37.8067L38.9209 39.7415ZM39.3419 39.5305L39.4451 39.4028L37.8898 38.1454L37.7866 38.2731L39.3419 39.5305ZM37.787 41.4538L39.3419 39.5305L37.7866 38.2731L36.2317 40.1964L37.787 41.4538ZM37.665 41.6046L37.787 41.4538L36.2317 40.1963L36.1098 40.3472L37.665 41.6046ZM37.8973 41.1093L37.8856 40.9157L35.8892 41.0361L35.9009 41.2297L37.8973 41.1093ZM38.0268 43.2588L37.8973 41.1093L35.9009 41.2297L36.0305 43.3792L38.0268 43.2588ZM38.0387 43.4551L38.0268 43.2588L36.0305 43.3792L36.0423 43.5755L38.0387 43.4551ZM37.8726 42.9268L37.7302 42.7912L36.3508 44.2394L36.4932 44.3751L37.8726 42.9268ZM39.2979 44.2844L37.8726 42.9268L36.4932 44.3751L37.9185 45.7326L39.2979 44.2844ZM39.3486 44.3327L39.2979 44.2844L37.9185 45.7326L37.9693 45.781L39.3486 44.3327ZM39.1851 44.2036L39.123 44.171L38.1949 45.9427L38.257 45.9752L39.1851 44.2036ZM40.4808 44.8823L39.1851 44.2036L38.257 45.9752L39.5527 46.654L40.4808 44.8823ZM40.5564 44.9219L40.4808 44.8823L39.5527 46.654L39.6283 46.6936L40.5564 44.9219ZM40.3208 44.8305L40.2363 44.8182L39.9483 46.7973L40.0328 46.8096L40.3208 44.8305ZM41.7452 45.0377L40.3208 44.8305L40.0328 46.8096L41.4572 47.0169L41.7452 45.0377ZM43.0829 45.9114L42.2143 45.2373L40.9881 46.8173L41.8567 47.4914L43.0829 45.9114ZM43.4698 47.4738V46.7014H41.4698V47.4738H43.4698ZM42.2738 48.9725L43.1275 48.2271L41.8121 46.7205L40.9584 47.4659L42.2738 48.9725ZM40.4179 49.2192H41.6161V47.2192H40.4179V49.2192ZM39.1051 48.4747L39.8108 49.0138L41.025 47.4245L40.3193 46.8854L39.1051 48.4747ZM38.7122 47.0222V47.68H40.7122V47.0222H38.7122ZM38.7122 46.795V47.0222H40.7122V46.795H38.7122ZM38.8833 47.3989L39.0545 47.5483L40.3699 46.0417L40.1987 45.8923L38.8833 47.3989ZM37.9763 46.6069L38.8833 47.3989L40.1987 45.8923L39.2917 45.1004L37.9763 46.6069ZM37.6211 46.2968L37.9763 46.6069L39.2917 45.1004L38.9365 44.7902L37.6211 46.2968ZM38.662 46.5806L38.9924 46.244L37.5652 44.8429L37.2348 45.1795L38.662 46.5806ZM37.8845 47.3725L38.662 46.5806L37.2348 45.1795L36.4573 45.9714L37.8845 47.3725ZM37.7413 47.5184L37.8845 47.3725L36.4573 45.9714L36.3141 46.1172L37.7413 47.5184ZM38.0277 47.0222V46.8178H36.0277V47.0222H38.0277ZM38.0277 48.1535V47.0222H36.0277V48.1535H38.0277ZM38.0277 48.3356V48.1535H36.0277V48.3356H38.0277ZM37.9106 47.8319L37.7935 47.6925L36.262 48.9788L36.3791 49.1183L37.9106 47.8319ZM39.3359 49.5289L37.9106 47.8319L36.3791 49.1183L37.8044 50.8152L39.3359 49.5289ZM39.4242 49.6341L39.3359 49.5289L37.8044 50.8152L37.8928 50.9204L39.4242 49.6341ZM39.1179 49.3784L38.9882 49.3332L38.3288 51.2213L38.4585 51.2666L39.1179 49.3784ZM40.0785 49.7139L39.1179 49.3784L38.4585 51.2666L39.4191 51.6021L40.0785 49.7139ZM40.7488 51.7737V50.658H38.7488V51.7737H40.7488ZM40.7488 52.0009V51.7737H38.7488V52.0009H40.7488ZM40.5776 51.3971L40.4065 51.2476L39.0911 52.7542L39.2622 52.9036L40.5776 51.3971ZM41.4846 52.189L40.5776 51.3971L39.2622 52.9036L40.1693 53.6956L41.4846 52.189ZM41.8575 52.5146L41.4846 52.189L40.1692 53.6956L40.5422 54.0211L41.8575 52.5146ZM40.7824 52.233L40.4532 52.6027L41.9465 53.933L42.2758 53.5634L40.7824 52.233ZM41.6895 51.2149L40.7824 52.233L42.2758 53.5634L43.1828 52.5452L41.6895 51.2149ZM41.8161 51.0727L41.6895 51.2149L43.1828 52.5452L43.3095 52.403L41.8161 51.0727ZM41.5628 51.5474V51.7379H43.5628V51.5474H41.5628ZM41.5628 50.8318V51.5474H43.5628V50.8318H41.5628ZM43.7744 49.0682L42.0988 49.946L43.0268 51.7176L44.7025 50.8398L43.7744 49.0682ZM43.9037 49.0004L43.7744 49.0682L44.7025 50.8398L44.8318 50.7721L43.9037 49.0004ZM43.5725 49.2626L43.5 49.3893L45.2355 50.3832L45.3081 50.2565L43.5725 49.2626ZM44.35 47.905L43.5725 49.2626L45.3081 50.2565L46.0855 48.8989L44.35 47.905ZM44.4161 47.7896L44.35 47.905L46.0855 48.8989L46.1516 48.7835L44.4161 47.7896ZM44.2838 48.1535V48.2866H46.2838V48.1535H44.2838ZM44.2838 46.4566V48.1535H46.2838V46.4566H44.2838ZM44.2838 46.3405V46.4566H46.2838V46.3405H44.2838ZM44.335 46.6769L44.3862 46.7811L46.1815 45.8998L46.1304 45.7956L44.335 46.6769ZM43.5576 45.093L44.335 46.6769L46.1304 45.7956L45.3529 44.2118L43.5576 45.093ZM43.4855 44.9463L43.5576 45.093L45.3529 44.2118L45.2809 44.065L43.4855 44.9463ZM43.7744 45.3156L43.9192 45.3915L44.8473 43.6199L44.7025 43.544L43.7744 45.3156ZM41.8308 44.2975L43.7744 45.3156L44.7025 43.544L42.7589 42.5258L41.8308 44.2975ZM41.7644 44.2627L41.8308 44.2975L42.7589 42.5258L42.6925 42.491L41.7644 44.2627ZM41.9709 44.346L42.0445 44.3598L42.4123 42.3939L42.3387 42.3801L41.9709 44.346ZM40.2909 44.0317L41.9709 44.346L42.3387 42.3801L40.6587 42.0658L40.2909 44.0317ZM39.0545 43.1362L39.8172 43.8021L41.1325 42.2955L40.3699 41.6296L39.0545 43.1362ZM38.7122 41.706V42.3829H40.7122V41.706H38.7122ZM39.7786 40.3205L39.0545 40.9527L40.3699 42.4593L41.094 41.827L39.7786 40.3205ZM41.8915 40.0738H40.4363V42.0738H41.8915V40.0738ZM43.3421 40.9337L42.5047 40.2838L41.2784 41.8638L42.1159 42.5137L43.3421 40.9337ZM43.729 42.6101V41.7237H41.729V42.6101H43.729ZM43.729 42.8373V42.6101H41.729V42.8373H43.729ZM43.5578 42.2335L43.3867 42.084L42.0713 43.5906L42.2424 43.74L43.5578 42.2335ZM44.3353 42.9123L43.5578 42.2335L42.2424 43.74L43.0199 44.4188L44.3353 42.9123ZM44.6641 43.1994L44.3353 42.9123L43.0199 44.4188L43.3487 44.7059L44.6641 43.1994ZM43.6776 42.9123L43.3487 43.1994L44.6641 44.7059L44.9929 44.4188L43.6776 42.9123ZM44.455 42.2335L43.6776 42.9123L44.9929 44.4188L45.7704 43.74L44.455 42.2335ZM44.6262 42.084L44.455 42.2335L45.7704 43.74L45.9415 43.5906L44.6262 42.084ZM44.2838 42.6101V42.8373H46.2838V42.6101H44.2838ZM44.2838 41.0263V42.6101H46.2838V41.0263H44.2838ZM44.2838 40.8829V41.0263H46.2838V40.8829H44.2838ZM44.3598 41.2912L44.4357 41.4128L46.1319 40.3531L46.056 40.2315L44.3598 41.2912ZM43.5824 40.0468L44.3598 41.2912L46.056 40.2315L45.2786 38.9871L43.5824 40.0468ZM43.5038 39.921L43.5824 40.0468L45.2786 38.9871L45.2 38.8613L43.5038 39.921ZM43.7953 40.2351L43.9298 40.2977L44.774 38.4846L44.6396 38.422L43.7953 40.2351ZM42.1407 39.4646L43.7953 40.2351L44.6396 38.422L42.9849 37.6515L42.1407 39.4646ZM41.5628 37.6324V38.5581H43.5628V37.6324H41.5628ZM41.5628 37.382V37.6324H43.5628V37.382H41.5628ZM41.7632 38.0327L41.9636 38.1827L43.162 36.5814L42.9616 36.4314L41.7632 38.0327ZM40.8562 37.3539L41.7632 38.0327L42.9616 36.4314L42.0545 35.7526L40.8562 37.3539ZM39.7488 37.8827V38.8768H41.7488V37.8827H39.7488ZM40.5566 36.7775L40.1496 37.0821L41.3479 38.6833L41.755 38.3787L40.5566 36.7775ZM42.162 37.0821L41.755 36.7775L40.5566 38.3787L40.9636 38.6833L42.162 37.0821ZM42.5628 38.8768V37.8827H40.5628V38.8768H42.5628ZM42.5628 39.1955V38.8768H40.5628V39.1955H42.5628ZM42.2739 38.4235L41.9849 38.289L41.1407 40.102L41.4296 40.2366L42.2739 38.4235ZM44.0831 39.266L42.2739 38.4235L41.4296 40.2366L43.2388 41.079L44.0831 39.266ZM45.1319 40.6398L44.509 39.6427L42.8128 40.7023L43.4357 41.6995L45.1319 40.6398ZM45.2838 42.3829V41.1696H43.2838V42.3829H45.2838ZM44.6641 43.3784L44.9415 43.1362L43.6262 41.6296L43.3487 41.8719L44.6641 43.3784ZM43.0713 43.1362L43.3487 43.3784L44.6641 41.8719L44.3867 41.6296L43.0713 43.1362ZM42.729 41.4788V42.3829H44.729V41.4788H42.729ZM42.729 41.2339V41.4788H44.729V41.2339H42.729ZM42.9224 41.8738L43.1159 42.0239L44.3421 40.4439L44.1486 40.2938L42.9224 41.8738ZM41.7562 40.9688L42.9224 41.8738L44.1486 40.2938L42.9825 39.3888L41.7562 40.9688ZM41.621 40.8638L41.7562 40.9688L42.9825 39.3888L42.8472 39.2838L41.621 40.8638ZM42.0628 41.0738H42.2341V39.0738H42.0628V41.0738ZM40.2488 41.0738H42.0628V39.0738H40.2488V41.0738ZM40.0612 41.0738H40.2488V39.0738H40.0612V41.0738ZM40.5776 40.9504L40.7189 40.827L39.4035 39.3205L39.2622 39.4438L40.5776 40.9504ZM39.541 41.8554L40.5776 40.9504L39.2622 39.4438L38.2256 40.3489L39.541 41.8554ZM39.3699 42.0049L39.541 41.8554L38.2256 40.3489L38.0545 40.4983L39.3699 42.0049ZM39.7122 41.4788V41.2516H37.7122V41.4788H39.7122ZM39.7122 42.6101V41.4788H37.7122V42.6101H39.7122ZM39.7122 42.8373V42.6101H37.7122V42.8373H39.7122ZM39.541 42.2335L39.3699 42.084L38.0545 43.5906L38.2256 43.74L39.541 42.2335ZM40.5776 43.1385L39.541 42.2335L38.2256 43.74L39.2622 44.6451L40.5776 43.1385ZM40.6804 43.2282L40.5776 43.1385L39.2622 44.6451L39.365 44.7348L40.6804 43.2282ZM40.3407 43.0237L40.2066 42.9986L39.8388 44.9645L39.9729 44.9896L40.3407 43.0237ZM42.0811 43.3493L40.3407 43.0237L39.9729 44.9896L41.7133 45.3152L42.0811 43.3493ZM44.0936 44.354L42.3612 43.4464L41.4331 45.2181L43.1655 46.1256L44.0936 44.354ZM45.1815 46.132L44.5273 44.7991L42.7319 45.6804L43.3862 47.0133L45.1815 46.132ZM45.2838 48.0205V46.5727H43.2838V48.0205H45.2838ZM44.5128 49.6329L45.1516 48.5174L43.4161 47.5235L42.7773 48.639L44.5128 49.6329ZM42.2948 50.9722L44.1091 50.0217L43.181 48.2501L41.3667 49.2006L42.2948 50.9722ZM42.0268 51.1126L42.2948 50.9722L41.3667 49.2005L41.0988 49.3409L42.0268 51.1126ZM42.5628 50.5293V50.2267H40.5628V50.5293H42.5628ZM42.5628 51.357V50.5293H40.5628V51.357H42.5628ZM41.8584 52.5286L42.3095 52.0222L40.8161 50.6919L40.365 51.1982L41.8584 52.5286ZM40.0911 52.2998L40.454 52.6167L41.7694 51.1101L41.4065 50.7932L40.0911 52.2998ZM39.7488 50.303V51.5465H41.7488V50.303H39.7488ZM39.7488 49.948V50.303H41.7488V49.948H39.7488ZM40.0839 50.775L40.4191 50.8921L41.0785 49.0039L40.7433 48.8869L40.0839 50.775ZM38.9179 50.3678L40.0839 50.775L40.7433 48.8869L39.5773 48.4796L38.9179 50.3678ZM37.262 48.6146L38.4818 50.0669L40.0133 48.7806L38.7935 47.3282L37.262 48.6146ZM37.0277 47.2266V47.9714H39.0277V47.2266H37.0277ZM37.618 46.2166L37.3141 46.5261L38.7413 47.9272L39.0452 47.6177L37.618 46.2166ZM39.3699 46.4961L38.9893 46.1638L37.6739 47.6704L38.0545 48.0027L39.3699 46.4961ZM39.7122 47.9273V47.2494H37.7122V47.9273H39.7122ZM39.7122 48.1745V47.9273H37.7122V48.1745H39.7122ZM39.5157 47.5299L39.3193 47.3798L38.1051 48.9691L38.3016 49.1192L39.5157 47.5299ZM40.5523 48.3219L39.5157 47.5299L38.3016 49.1192L39.3382 49.9111L40.5523 48.3219ZM40.6867 48.4245L40.5523 48.3219L39.3382 49.9111L39.4726 50.0138L40.6867 48.4245ZM40.2488 48.2192H40.0796V50.2192H40.2488V48.2192ZM41.8037 48.2192H40.2488V50.2192H41.8037V48.2192ZM41.9912 48.2192H41.8037V50.2192H41.9912V48.2192ZM41.4748 48.3425L41.3335 48.4659L42.6489 49.9725L42.7902 49.8491L41.4748 48.3425ZM42.641 47.3244L41.4748 48.3425L42.7902 49.8491L43.9564 48.8309L42.641 47.3244ZM42.8121 47.1749L42.641 47.3244L43.9564 48.8309L44.1275 48.6815L42.8121 47.1749ZM42.4698 47.701V47.9282H44.4698V47.701H42.4698ZM42.4698 46.4566V47.701H44.4698V46.4566H42.4698ZM42.4698 46.2117V46.4566H44.4698V46.2117H42.4698ZM42.6633 46.8516L42.8567 47.0017L44.0829 45.4217L43.8895 45.2716L42.6633 46.8516ZM41.4971 45.9465L42.6633 46.8516L43.8895 45.2716L42.7233 44.3665L41.4971 45.9465ZM41.393 45.8657L41.4971 45.9465L42.7233 44.3665L42.6192 44.2857L41.393 45.8657ZM41.7317 46.0463L41.8621 46.0653L42.1501 44.0861L42.0197 44.0671L41.7317 46.0463ZM40.2612 45.8323L41.7317 46.0463L42.0197 44.0671L40.5492 43.8532L40.2612 45.8323ZM38.7831 45.1219L39.9412 45.7286L40.8693 43.9569L39.7112 43.3503L38.7831 45.1219ZM37.3253 43.7866L38.5575 44.9602L39.9368 43.512L38.7047 42.3384L37.3253 43.7866ZM36.9107 41.3631L37.0168 43.1227L39.0132 43.0023L38.9071 41.2428L36.9107 41.3631ZM38.461 39.0295L37.1313 40.6742L38.6866 41.9316L40.0163 40.287L38.461 39.0295ZM40.1221 38.3931L38.9852 38.6909L39.492 40.6256L40.6289 40.3278L40.1221 38.3931ZM40.4954 38.2953L40.1221 38.3931L40.6289 40.3278L41.0022 40.2301L40.4954 38.2953ZM39.7488 38.8768V39.2627H41.7488V38.8768H39.7488Z" fill="#050A0E" mask="url(#path-2-outside-1_137_1194)"/>
<path d="M8.41113 79.2964C8.41113 79.3966 8.39323 79.4897 8.35742 79.5757C8.32161 79.6616 8.27148 79.7368 8.20703 79.8013C8.14616 79.8621 8.07275 79.9105 7.98682 79.9463C7.90088 79.9821 7.80778 80 7.70752 80H2.66943C2.54053 80 2.40088 79.9857 2.25049 79.957C2.10368 79.9248 1.95687 79.8765 1.81006 79.812C1.66683 79.7476 1.52897 79.6652 1.39648 79.5649C1.264 79.4611 1.14583 79.3376 1.04199 79.1943C0.941732 79.0475 0.861165 78.8792 0.800293 78.6895C0.739421 78.4961 0.708984 78.2795 0.708984 78.0396V74.2583C0.708984 74.1294 0.723307 73.9915 0.751953 73.8447C0.78418 73.6943 0.83252 73.5475 0.896973 73.4043C0.961426 73.2575 1.04557 73.1178 1.14941 72.9854C1.25326 72.8529 1.37679 72.7365 1.52002 72.6362C1.66683 72.5324 1.83512 72.45 2.0249 72.3892C2.21468 72.3283 2.42952 72.2979 2.66943 72.2979H8.34668V73.6943H2.66943C2.48682 73.6943 2.34717 73.7427 2.25049 73.8394C2.15381 73.936 2.10547 74.0793 2.10547 74.269V78.0396C2.10547 78.2186 2.15381 78.3582 2.25049 78.4585C2.35075 78.5552 2.4904 78.6035 2.66943 78.6035H7.01465V76.8525H3.29785V75.4453H7.70752C7.80778 75.4453 7.90088 75.465 7.98682 75.5044C8.07275 75.5402 8.14616 75.5903 8.20703 75.6548C8.27148 75.7192 8.32161 75.7944 8.35742 75.8804C8.39323 75.9627 8.41113 76.0522 8.41113 76.1489V79.2964ZM15.7051 78.0771C15.7051 78.2705 15.6711 78.48 15.603 78.7056C15.535 78.9276 15.424 79.1353 15.27 79.3286C15.1196 79.5184 14.9209 79.6777 14.6738 79.8066C14.4303 79.9355 14.1331 80 13.7822 80H11.2632C11.0698 80 10.8604 79.966 10.6348 79.8979C10.4128 79.8299 10.2051 79.7207 10.0117 79.5703C9.82194 79.4163 9.6626 79.2176 9.53369 78.9741C9.40479 78.7271 9.34033 78.4281 9.34033 78.0771C9.34033 77.8838 9.37435 77.6743 9.44238 77.4487C9.51042 77.2231 9.61963 77.0155 9.77002 76.8257C9.92399 76.6323 10.1227 76.4712 10.3662 76.3423C10.6133 76.2134 10.9123 76.1489 11.2632 76.1489H13.7822V77.481H11.2632C11.0734 77.481 10.9266 77.54 10.8228 77.6582C10.7189 77.7728 10.667 77.916 10.667 78.0879C10.667 78.2705 10.7261 78.4137 10.8442 78.5176C10.966 78.6178 11.1092 78.668 11.2739 78.668H13.7822C13.972 78.668 14.1188 78.6107 14.2227 78.4961C14.3265 78.3815 14.3784 78.2383 14.3784 78.0664V76.1167C14.3784 75.9341 14.3211 75.7891 14.2065 75.6816C14.0955 75.5742 13.9541 75.5205 13.7822 75.5205H10.7153V74.1938H13.7822C13.9756 74.1938 14.1833 74.2279 14.4053 74.2959C14.6309 74.3639 14.8385 74.4749 15.0283 74.6289C15.2217 74.7793 15.3828 74.978 15.5117 75.2251C15.6406 75.4686 15.7051 75.7658 15.7051 76.1167V78.0771ZM22.0806 80H20.6841V76.1489C20.6841 75.9663 20.6357 75.8285 20.5391 75.7354C20.4424 75.6387 20.2992 75.5903 20.1094 75.5903H18.2939V80H16.8975V74.8867C16.8975 74.79 16.9154 74.7005 16.9512 74.6182C16.987 74.5322 17.0371 74.4588 17.1016 74.3979C17.166 74.3335 17.2412 74.2834 17.3271 74.2476C17.4131 74.2118 17.5044 74.1938 17.6011 74.1938H20.1201C20.3135 74.1938 20.5212 74.2279 20.7432 74.2959C20.9652 74.3639 21.1764 74.4731 21.377 74.6235V74.1938H23.2676C23.4001 74.1938 23.5397 74.21 23.6865 74.2422C23.8333 74.2708 23.9784 74.3174 24.1216 74.3818C24.2684 74.4463 24.408 74.5304 24.5405 74.6343C24.673 74.7345 24.7894 74.8581 24.8896 75.0049C24.9899 75.1481 25.0705 75.3146 25.1313 75.5044C25.1922 75.6942 25.2227 75.909 25.2227 76.1489V80H23.8262V76.1489C23.8262 75.9663 23.7796 75.8285 23.6865 75.7354C23.597 75.6387 23.4574 75.5903 23.2676 75.5903H22.0107C22.0573 75.7622 22.0806 75.9484 22.0806 76.1489V80ZM32.7583 76.1167C32.7583 76.3101 32.7243 76.5195 32.6562 76.7451C32.5882 76.9671 32.4772 77.1748 32.3232 77.3682C32.1729 77.5579 31.9741 77.7173 31.7271 77.8462C31.4836 77.9751 31.1864 78.0396 30.8354 78.0396H28.3164V76.7129H30.8354C31.0252 76.7129 31.172 76.6556 31.2759 76.541C31.3797 76.4229 31.4316 76.2778 31.4316 76.106C31.4316 75.9233 31.3726 75.7801 31.2544 75.6763C31.1398 75.5724 31.0002 75.5205 30.8354 75.5205H28.3164C28.1266 75.5205 27.9798 75.5796 27.876 75.6978C27.7721 75.8123 27.7202 75.9556 27.7202 76.1274V78.0771C27.7202 78.2633 27.7775 78.4084 27.8921 78.5122C28.0103 78.616 28.1553 78.668 28.3271 78.668H30.8354V80H28.3164C28.123 80 27.9136 79.966 27.688 79.8979C27.466 79.8299 27.2583 79.7207 27.0649 79.5703C26.8752 79.4163 26.7158 79.2176 26.5869 78.9741C26.458 78.7271 26.3936 78.4281 26.3936 78.0771V76.1167C26.3936 75.9233 26.4276 75.7157 26.4956 75.4937C26.5636 75.2681 26.6729 75.0604 26.8232 74.8706C26.9772 74.6772 27.1759 74.5161 27.4194 74.3872C27.6665 74.2583 27.9655 74.1938 28.3164 74.1938H30.8354C31.0288 74.1938 31.2365 74.2279 31.4585 74.2959C31.6841 74.3639 31.8918 74.4749 32.0815 74.6289C32.2749 74.7793 32.436 74.978 32.5649 75.2251C32.6938 75.4686 32.7583 75.7658 32.7583 76.1167ZM38.8384 73.0713H35.6909C35.5011 73.0713 35.3579 73.1196 35.2612 73.2163C35.1646 73.3094 35.1162 73.4473 35.1162 73.6299V80H33.7197V73.6299C33.7197 73.39 33.7502 73.1751 33.811 72.9854C33.8719 72.7956 33.9525 72.6291 34.0527 72.4858C34.1566 72.339 34.2747 72.2155 34.4072 72.1152C34.5397 72.0114 34.6776 71.9272 34.8208 71.8628C34.9676 71.7983 35.1144 71.7518 35.2612 71.7231C35.408 71.6909 35.5477 71.6748 35.6802 71.6748H38.8384V73.0713ZM40.8472 80H39.4507L39.4399 75.5903H35.6802V74.1938H40.8579L40.8472 80ZM40.8472 73.0713H39.4507V71.6963H40.8472V73.0713ZM47.2656 75.5903H44.1235C43.9338 75.5903 43.7905 75.6387 43.6938 75.7354C43.5972 75.8285 43.5488 75.9663 43.5488 76.1489V80H42.1523V76.1489C42.1523 75.909 42.1828 75.6942 42.2437 75.5044C42.3045 75.3146 42.3851 75.1481 42.4854 75.0049C42.5892 74.8581 42.7074 74.7345 42.8398 74.6343C42.9723 74.5304 43.1102 74.4463 43.2534 74.3818C43.4002 74.3174 43.547 74.2708 43.6938 74.2422C43.8442 74.21 43.9839 74.1938 44.1128 74.1938H47.2656V75.5903ZM54.4146 76.1167C54.4146 76.3101 54.3805 76.5195 54.3125 76.7451C54.2445 76.9671 54.1335 77.1748 53.9795 77.3682C53.8291 77.5579 53.6304 77.7173 53.3833 77.8462C53.1398 77.9751 52.8426 78.0396 52.4917 78.0396H49.9727V76.7129H52.4917C52.6815 76.7129 52.8283 76.6556 52.9321 76.541C53.036 76.4229 53.0879 76.2778 53.0879 76.106C53.0879 75.9233 53.0288 75.7801 52.9106 75.6763C52.7961 75.5724 52.6564 75.5205 52.4917 75.5205H49.9727C49.7829 75.5205 49.6361 75.5796 49.5322 75.6978C49.4284 75.8123 49.3765 75.9556 49.3765 76.1274V78.0771C49.3765 78.2633 49.4338 78.4084 49.5483 78.5122C49.6665 78.616 49.8115 78.668 49.9834 78.668H52.4917V80H49.9727C49.7793 80 49.5698 79.966 49.3442 79.8979C49.1222 79.8299 48.9146 79.7207 48.7212 79.5703C48.5314 79.4163 48.3721 79.2176 48.2432 78.9741C48.1143 78.7271 48.0498 78.4281 48.0498 78.0771V76.1167C48.0498 75.9233 48.0838 75.7157 48.1519 75.4937C48.2199 75.2681 48.3291 75.0604 48.4795 74.8706C48.6335 74.6772 48.8322 74.5161 49.0757 74.3872C49.3228 74.2583 49.6217 74.1938 49.9727 74.1938H52.4917C52.6851 74.1938 52.8927 74.2279 53.1147 74.2959C53.3403 74.3639 53.548 74.4749 53.7378 74.6289C53.9312 74.7793 54.0923 74.978 54.2212 75.2251C54.3501 75.4686 54.4146 75.7658 54.4146 76.1167ZM62.9116 77.7334C62.9116 78.0091 62.8758 78.258 62.8042 78.48C62.7362 78.6984 62.6449 78.8918 62.5303 79.0601C62.4157 79.2284 62.2814 79.3716 62.1274 79.4897C61.9735 79.6079 61.8141 79.7046 61.6494 79.7798C61.4847 79.855 61.3164 79.9105 61.1445 79.9463C60.9762 79.9821 60.8169 80 60.6665 80H55.2793V78.6035H60.6665C60.9351 78.6035 61.1427 78.5247 61.2896 78.3672C61.4399 78.2096 61.5151 77.9984 61.5151 77.7334C61.5151 77.6045 61.4954 77.4863 61.4561 77.3789C61.4167 77.2715 61.3594 77.1784 61.2842 77.0996C61.2126 77.0208 61.123 76.96 61.0156 76.917C60.9118 76.874 60.7954 76.8525 60.6665 76.8525H57.4546C57.229 76.8525 56.9855 76.8132 56.7241 76.7344C56.4627 76.652 56.2192 76.5213 55.9937 76.3423C55.7716 76.1632 55.5854 75.9287 55.4351 75.6387C55.2882 75.3486 55.2148 74.9941 55.2148 74.5752C55.2148 74.1562 55.2882 73.8035 55.4351 73.5171C55.5854 73.2271 55.7716 72.9925 55.9937 72.8135C56.2192 72.6309 56.4627 72.5002 56.7241 72.4214C56.9855 72.339 57.229 72.2979 57.4546 72.2979H62.208V73.6943H57.4546C57.1896 73.6943 56.9819 73.7749 56.8315 73.936C56.6847 74.0972 56.6113 74.3102 56.6113 74.5752C56.6113 74.8438 56.6847 75.0568 56.8315 75.2144C56.9819 75.3683 57.1896 75.4453 57.4546 75.4453H60.6665H60.6772C60.8276 75.4489 60.987 75.4704 61.1553 75.5098C61.3236 75.5456 61.4901 75.6029 61.6548 75.6816C61.8231 75.7604 61.9824 75.8607 62.1328 75.9824C62.2832 76.1006 62.4157 76.2438 62.5303 76.4121C62.6484 76.5804 62.7415 76.7738 62.8096 76.9922C62.8776 77.2106 62.9116 77.4577 62.9116 77.7334ZM69.9102 78.0771C69.9102 78.2705 69.8761 78.48 69.8081 78.7056C69.7401 78.9276 69.6291 79.1353 69.4751 79.3286C69.3247 79.5184 69.126 79.6777 68.8789 79.8066C68.6354 79.9355 68.3382 80 67.9873 80H65.4683C65.2749 80 65.0654 79.966 64.8398 79.8979C64.6178 79.8299 64.4102 79.7207 64.2168 79.5703C64.027 79.4163 63.8677 79.2176 63.7388 78.9741C63.6099 78.7271 63.5454 78.4281 63.5454 78.0771C63.5454 77.8838 63.5794 77.6743 63.6475 77.4487C63.7155 77.2231 63.8247 77.0155 63.9751 76.8257C64.1291 76.6323 64.3278 76.4712 64.5713 76.3423C64.8184 76.2134 65.1174 76.1489 65.4683 76.1489H67.9873V77.481H65.4683C65.2785 77.481 65.1317 77.54 65.0278 77.6582C64.924 77.7728 64.8721 77.916 64.8721 78.0879C64.8721 78.2705 64.9312 78.4137 65.0493 78.5176C65.1711 78.6178 65.3143 78.668 65.479 78.668H67.9873C68.1771 78.668 68.3239 78.6107 68.4277 78.4961C68.5316 78.3815 68.5835 78.2383 68.5835 78.0664V76.1167C68.5835 75.9341 68.5262 75.7891 68.4116 75.6816C68.3006 75.5742 68.1592 75.5205 67.9873 75.5205H64.9204V74.1938H67.9873C68.1807 74.1938 68.3883 74.2279 68.6104 74.2959C68.8359 74.3639 69.0436 74.4749 69.2334 74.6289C69.4268 74.7793 69.5879 74.978 69.7168 75.2251C69.8457 75.4686 69.9102 75.7658 69.9102 76.1167V78.0771ZM73.6538 80H73.0308C72.8302 80 72.6154 79.966 72.3862 79.8979C72.1606 79.8299 71.9494 79.7189 71.7524 79.5649C71.5555 79.4074 71.3926 79.2051 71.2637 78.958C71.1348 78.7074 71.0703 78.4012 71.0703 78.0396V71.7393H72.4668V78.0396C72.4668 78.2114 72.5205 78.3493 72.6279 78.4531C72.7354 78.5534 72.8696 78.6035 73.0308 78.6035H73.6538V80ZM80.7974 76.1167C80.7974 76.3101 80.7633 76.5195 80.6953 76.7451C80.6273 76.9671 80.5163 77.1748 80.3623 77.3682C80.2119 77.5579 80.0132 77.7173 79.7661 77.8462C79.5226 77.9751 79.2254 78.0396 78.8745 78.0396H76.3555V76.7129H78.8745C79.0643 76.7129 79.2111 76.6556 79.3149 76.541C79.4188 76.4229 79.4707 76.2778 79.4707 76.106C79.4707 75.9233 79.4116 75.7801 79.2935 75.6763C79.1789 75.5724 79.0392 75.5205 78.8745 75.5205H76.3555C76.1657 75.5205 76.0189 75.5796 75.915 75.6978C75.8112 75.8123 75.7593 75.9556 75.7593 76.1274V78.0771C75.7593 78.2633 75.8166 78.4084 75.9312 78.5122C76.0493 78.616 76.1943 78.668 76.3662 78.668H78.8745V80H76.3555C76.1621 80 75.9526 79.966 75.7271 79.8979C75.505 79.8299 75.2974 79.7207 75.104 79.5703C74.9142 79.4163 74.7549 79.2176 74.626 78.9741C74.4971 78.7271 74.4326 78.4281 74.4326 78.0771V76.1167C74.4326 75.9233 74.4666 75.7157 74.5347 75.4937C74.6027 75.2681 74.7119 75.0604 74.8623 74.8706C75.0163 74.6772 75.215 74.5161 75.4585 74.3872C75.7056 74.2583 76.0046 74.1938 76.3555 74.1938H78.8745C79.0679 74.1938 79.2756 74.2279 79.4976 74.2959C79.7231 74.3639 79.9308 74.4749 80.1206 74.6289C80.314 74.7793 80.4751 74.978 80.604 75.2251C80.7329 75.4686 80.7974 75.7658 80.7974 76.1167Z" fill="#00F0FF"/>
</svg>
