<svg width="53" height="67" viewBox="0 0 53 67" fill="none" xmlns="http://www.w3.org/2000/svg">
<path fill-rule="evenodd" clip-rule="evenodd" d="M0.642118 43.8127L0.536255 44.4835L0.860707 45.0801L9.63979 61.2219L10.0399 61.9575L10.8447 62.1886L25.7378 66.4655L26.3117 66.6304L26.8821 66.4535L40.6778 62.1766L41.3753 61.9604L41.7693 61.3456L52.1161 45.2038L52.4323 44.7105V44.1245V35.2948V34.5753L51.974 34.0207L39.4325 18.8446L36.7488 15.5973L35.929 19.7295L34.9062 24.8845L33.5479 23.6094L34.3947 14.7913L34.4038 14.6959V14.6001V7.01206V6.26799L33.9175 5.70486L30.9389 2.25574L29.1256 0.156006L27.7066 2.54002L22.5903 11.1359L16.7004 18.911L16.5155 19.155L16.4121 19.4432L13.5922 27.3019L10.9168 25.1753L9.31422 23.9015L8.07807 25.5333L3.68853 31.3278L3.46157 31.6274L3.35887 31.989L1.47763 38.6112L1.44473 38.7271L1.42596 38.846L0.642118 43.8127ZM36.4729 27.2649L36.6251 26.498L37.3885 22.6504L37.8908 20.1187L39.535 22.1083L45.4537 29.2703L36.4729 27.2649ZM35.4431 28.1316L36.1663 28.8104L36.2783 28.2461L45.3677 30.2757L42.6509 37.3288L29.9947 30.0272L35.4431 28.1316ZM34.6202 27.3591L29.8339 29.0244L32.0094 24.9083L34.4474 27.1969L34.6202 27.3591ZM31.5938 23.0356L32.1761 16.9713L27.8968 19.887L31.5938 23.0356ZM32.2588 16.1102L32.4038 14.6001V7.01206L30.8031 5.15841L29.8945 4.10633L29.3098 11.4387L32.2588 16.1102ZM29.5532 3.71111L29.4252 3.56294L29.3468 3.69466L29.5532 3.71111ZM28.8587 4.51467L28.347 5.37442L24.2518 12.2547L18.2946 20.1187L16.6151 24.7991L22.8494 19.9985L22.954 19.9179L23.0847 19.8995L26.8885 19.3639L31.253 16.3902L28.3753 11.8318L28.2865 11.691L28.2997 11.5251L28.8587 4.51467ZM15.9893 26.5431L23.3549 20.8713L26.9207 20.3692L31.3042 24.1024L28.4746 29.4563L18.5057 30.9184L14.9009 29.5763L15.2454 28.6161L15.9893 26.5431ZM14.3647 30.4709L14.5321 30.604L14.5631 30.5176L17.8164 31.7289L15.2431 39.026L9.23547 40.7883L4.80083 34.9343L14.3647 30.4709ZM13.49 29.7756L12.8788 29.2898L11.2383 27.9858L9.67229 26.741L8.46428 28.3356L5.28274 32.5355L4.93221 33.7694L13.49 29.7756ZM4.31357 35.9471L3.40151 39.1578L2.61767 44.1245L4.00629 46.6777L8.40772 41.3517L4.31357 35.9471ZM4.81623 48.1669L11.3967 60.2663L11.7172 60.3584L20.3254 57.5175L15.9492 51.1816L4.81623 48.1669ZM13.4234 60.8483L24.903 64.145L20.9177 58.3751L13.4234 60.8483ZM28.0169 64.0078L40.0855 60.2663L45.4797 51.8509L28.0169 64.0078ZM47.1775 49.2022L50.4323 44.1245V35.2948L46.3901 30.4034L43.4387 38.0657L47.1775 49.2022ZM18.8225 31.8827L28.2981 30.4928V37.8353L22.4717 43.2193L16.2329 39.2262L18.8225 31.8827ZM16.8937 50.7893L22.6518 44.4551L34.2018 49.7304L25.9408 63.8879L21.5279 57.4988L16.8937 50.7893ZM27.5499 63.1145L35.3338 49.7747L42.7492 39.154L46.3901 49.9987L27.5499 63.1145ZM42.1854 38.2148L29.2981 30.7799V38.0541V38.2728L29.1375 38.4213L23.4185 43.7059L34.7408 48.8772L42.1854 38.2148ZM21.759 43.9504L16.0922 50.1843L4.90843 47.1559L9.33301 41.8018L15.5518 39.9776L21.759 43.9504Z" fill="white"/>
<mask id="path-2-outside-1_146_824" maskUnits="userSpaceOnUse" x="14.7363" y="31.5596" width="24" height="26" fill="black">
<rect fill="white" x="14.7363" y="31.5596" width="24" height="26"/>
<path fill-rule="evenodd" clip-rule="evenodd" d="M37.057 39.2162L26.3966 33.5596L15.7363 39.2162V50.5293L26.3966 56.1858L37.057 50.5293V39.2162ZM26.9554 36.5533L26.6558 36.3291L26.3562 36.5533L25.4492 37.232L25.2488 37.382V37.6324V38.4909L24.3264 38.7325L24.1675 38.7741L24.0642 38.9018L22.5093 40.8251L22.3874 40.9759L22.3991 41.1695L22.5286 43.319L22.5405 43.5153L22.6829 43.6509L24.1082 45.0085L24.1589 45.0569L24.221 45.0894L25.5168 45.7682L25.5923 45.8078L25.6768 45.82L27.1012 46.0273L27.9698 46.7014V47.4738L27.1161 48.2192H25.9179L25.2122 47.68V47.0222V46.795L25.041 46.6456L24.134 45.8537L23.7788 45.5435L23.4484 45.88L22.6709 46.6719L22.5277 46.8178V47.0222V48.1535V48.3356L22.6449 48.4751L24.0702 50.1721L24.1585 50.2772L24.2882 50.3225L25.2488 50.658V51.7737V52.0009L25.4199 52.1504L26.3269 52.9423L26.6999 53.2679L27.0291 52.8982L27.9362 51.88L28.0628 51.7379V51.5474V50.8318L29.7384 49.954L29.8677 49.8863L29.9403 49.7596L30.7177 48.402L30.7838 48.2866V48.1535V46.4566V46.3405L30.7327 46.2362L29.9552 44.6524L29.8832 44.5057L29.7384 44.4298L27.7948 43.4116L27.7284 43.3769L27.6548 43.3631L25.9748 43.0488L25.2122 42.3829V41.706L25.9363 41.0738H27.3915L28.229 41.7237V42.6101V42.8373L28.4001 42.9868L29.1776 43.6655L29.5064 43.9527L29.8353 43.6655L30.6127 42.9868L30.7838 42.8373V42.6101V41.0263V40.8829L30.7079 40.7614L29.9305 39.5169L29.8519 39.3912L29.7175 39.3286L28.0628 38.5581V37.6324V37.382L27.8624 37.232L26.9554 36.5533ZM26.2488 38.8768V37.8827L26.6558 37.5781L27.0628 37.8827V38.8768V39.1955L27.3517 39.3301L29.1609 40.1725L29.7838 41.1696V42.3829L29.5064 42.6251L29.229 42.3829V41.4788V41.2339L29.0355 41.0838L27.8694 40.1788L27.7341 40.0738H27.5628H25.7488H25.5612L25.4199 40.1971L24.3833 41.1022L24.2122 41.2516V41.4788V42.6101V42.8373L24.3833 42.9868L25.4199 43.8918L25.5227 43.9815L25.6568 44.0066L27.3972 44.3322L29.1296 45.2398L29.7838 46.5727V48.0205L29.1451 49.1359L27.3308 50.0864L27.0628 50.2267V50.5293V51.357L26.6117 51.8634L26.2488 51.5465V50.303V49.948L25.9136 49.831L24.7476 49.4237L23.5277 47.9714V47.2266L23.8316 46.9171L24.2122 47.2494V47.9273V48.1745L24.4087 48.3246L25.4452 49.1165L25.5796 49.2192H25.7488H27.3037H27.4912L27.6325 49.0958L28.7987 48.0776L28.9698 47.9282V47.701V46.4566V46.2117L28.7764 46.0616L27.6102 45.1565L27.5061 45.0757L27.3757 45.0567L25.9052 44.8427L24.7471 44.2361L23.515 43.0625L23.4089 41.3029L24.7386 39.6583L25.8755 39.3605L26.2488 39.2627V38.8768Z"/>
</mask>
<path fill-rule="evenodd" clip-rule="evenodd" d="M37.057 39.2162L26.3966 33.5596L15.7363 39.2162V50.5293L26.3966 56.1858L37.057 50.5293V39.2162ZM26.9554 36.5533L26.6558 36.3291L26.3562 36.5533L25.4492 37.232L25.2488 37.382V37.6324V38.4909L24.3264 38.7325L24.1675 38.7741L24.0642 38.9018L22.5093 40.8251L22.3874 40.9759L22.3991 41.1695L22.5286 43.319L22.5405 43.5153L22.6829 43.6509L24.1082 45.0085L24.1589 45.0569L24.221 45.0894L25.5168 45.7682L25.5923 45.8078L25.6768 45.82L27.1012 46.0273L27.9698 46.7014V47.4738L27.1161 48.2192H25.9179L25.2122 47.68V47.0222V46.795L25.041 46.6456L24.134 45.8537L23.7788 45.5435L23.4484 45.88L22.6709 46.6719L22.5277 46.8178V47.0222V48.1535V48.3356L22.6449 48.4751L24.0702 50.1721L24.1585 50.2772L24.2882 50.3225L25.2488 50.658V51.7737V52.0009L25.4199 52.1504L26.3269 52.9423L26.6999 53.2679L27.0291 52.8982L27.9362 51.88L28.0628 51.7379V51.5474V50.8318L29.7384 49.954L29.8677 49.8863L29.9403 49.7596L30.7177 48.402L30.7838 48.2866V48.1535V46.4566V46.3405L30.7327 46.2362L29.9552 44.6524L29.8832 44.5057L29.7384 44.4298L27.7948 43.4116L27.7284 43.3769L27.6548 43.3631L25.9748 43.0488L25.2122 42.3829V41.706L25.9363 41.0738H27.3915L28.229 41.7237V42.6101V42.8373L28.4001 42.9868L29.1776 43.6655L29.5064 43.9527L29.8353 43.6655L30.6127 42.9868L30.7838 42.8373V42.6101V41.0263V40.8829L30.7079 40.7614L29.9305 39.5169L29.8519 39.3912L29.7175 39.3286L28.0628 38.5581V37.6324V37.382L27.8624 37.232L26.9554 36.5533ZM26.2488 38.8768V37.8827L26.6558 37.5781L27.0628 37.8827V38.8768V39.1955L27.3517 39.3301L29.1609 40.1725L29.7838 41.1696V42.3829L29.5064 42.6251L29.229 42.3829V41.4788V41.2339L29.0355 41.0838L27.8694 40.1788L27.7341 40.0738H27.5628H25.7488H25.5612L25.4199 40.1971L24.3833 41.1022L24.2122 41.2516V41.4788V42.6101V42.8373L24.3833 42.9868L25.4199 43.8918L25.5227 43.9815L25.6568 44.0066L27.3972 44.3322L29.1296 45.2398L29.7838 46.5727V48.0205L29.1451 49.1359L27.3308 50.0864L27.0628 50.2267V50.5293V51.357L26.6117 51.8634L26.2488 51.5465V50.303V49.948L25.9136 49.831L24.7476 49.4237L23.5277 47.9714V47.2266L23.8316 46.9171L24.2122 47.2494V47.9273V48.1745L24.4087 48.3246L25.4452 49.1165L25.5796 49.2192H25.7488H27.3037H27.4912L27.6325 49.0958L28.7987 48.0776L28.9698 47.9282V47.701V46.4566V46.2117L28.7764 46.0616L27.6102 45.1565L27.5061 45.0757L27.3757 45.0567L25.9052 44.8427L24.7471 44.2361L23.515 43.0625L23.4089 41.3029L24.7386 39.6583L25.8755 39.3605L26.2488 39.2627V38.8768Z" fill="white"/>
<path d="M26.3966 33.5596L26.8654 32.6763L26.3966 32.4276L25.9279 32.6763L26.3966 33.5596ZM37.057 39.2162H38.057V38.6147L37.5257 38.3328L37.057 39.2162ZM15.7363 39.2162L15.2676 38.3328L14.7363 38.6147V39.2162H15.7363ZM15.7363 50.5293H14.7363V51.1307L15.2676 51.4126L15.7363 50.5293ZM26.3966 56.1858L25.9279 57.0691L26.3966 57.3179L26.8654 57.0691L26.3966 56.1858ZM37.057 50.5293L37.5257 51.4126L38.057 51.1307V50.5293H37.057ZM26.6558 36.3291L27.255 35.5284L26.6558 35.08L26.0566 35.5284L26.6558 36.3291ZM26.9554 36.5533L26.3562 37.3539L26.3562 37.3539L26.9554 36.5533ZM26.3562 36.5533L25.757 35.7526V35.7526L26.3562 36.5533ZM25.4492 37.232L24.85 36.4314L24.85 36.4314L25.4492 37.232ZM25.2488 37.382L24.6496 36.5814L24.2488 36.8814V37.382H25.2488ZM25.2488 38.4909L25.5022 39.4583L26.2488 39.2627V38.4909H25.2488ZM24.3264 38.7325L24.5797 39.6999L24.5797 39.6999L24.3264 38.7325ZM24.1675 38.7741L23.9141 37.8067L23.5963 37.89L23.3898 38.1454L24.1675 38.7741ZM24.0642 38.9018L24.8419 39.5305L24.8419 39.5305L24.0642 38.9018ZM22.5093 40.8251L23.287 41.4538L23.287 41.4538L22.5093 40.8251ZM22.3874 40.9759L21.6098 40.3472L21.3659 40.6488L21.3892 41.0361L22.3874 40.9759ZM22.3991 41.1695L23.3973 41.1093V41.1093L22.3991 41.1695ZM22.5286 43.319L21.5305 43.3792V43.3792L22.5286 43.319ZM22.5405 43.5153L21.5423 43.5755L21.566 43.9681L21.8508 44.2394L22.5405 43.5153ZM22.6829 43.6509L23.3726 42.9268L22.6829 43.6509ZM24.1082 45.0085L23.4185 45.7326L23.4185 45.7326L24.1082 45.0085ZM24.1589 45.0569L23.4693 45.781L23.5707 45.8776L23.6949 45.9427L24.1589 45.0569ZM24.221 45.0894L23.757 45.9752L23.757 45.9752L24.221 45.0894ZM25.5168 45.7682L25.9808 44.8823L25.9808 44.8823L25.5168 45.7682ZM25.5923 45.8078L25.1283 46.6936L25.2795 46.7728L25.4483 46.7973L25.5923 45.8078ZM25.6768 45.82L25.5328 46.8096H25.5328L25.6768 45.82ZM27.1012 46.0273L27.7143 45.2373L27.5061 45.0757L27.2452 45.0377L27.1012 46.0273ZM27.9698 46.7014H28.9698V46.2117L28.5829 45.9114L27.9698 46.7014ZM27.9698 47.4738L28.6275 48.2271L28.9698 47.9282V47.4738H27.9698ZM27.1161 48.2192V49.2192H27.4912L27.7738 48.9725L27.1161 48.2192ZM25.9179 48.2192L25.3108 49.0138L25.5796 49.2192H25.9179V48.2192ZM25.2122 47.68H24.2122V48.1745L24.6051 48.4747L25.2122 47.68ZM25.2122 46.795H26.2122V46.3406L25.8699 46.0417L25.2122 46.795ZM25.041 46.6456L24.3833 47.3989L24.3833 47.3989L25.041 46.6456ZM24.134 45.8537L23.4763 46.6069L23.4763 46.6069L24.134 45.8537ZM23.7788 45.5435L24.4365 44.7902L23.7259 44.1698L23.0652 44.8429L23.7788 45.5435ZM23.4484 45.88L22.7348 45.1795L23.4484 45.88ZM22.6709 46.6719L21.9573 45.9714L21.9573 45.9714L22.6709 46.6719ZM22.5277 46.8178L21.8141 46.1172L21.5277 46.409V46.8178H22.5277ZM22.5277 48.3356H21.5277V48.6999L21.762 48.9788L22.5277 48.3356ZM22.6449 48.4751L21.8791 49.1183L21.8791 49.1183L22.6449 48.4751ZM24.0702 50.1721L23.3044 50.8152L23.3044 50.8152L24.0702 50.1721ZM24.1585 50.2772L23.3928 50.9204L23.5695 51.1307L23.8288 51.2213L24.1585 50.2772ZM24.2882 50.3225L23.9585 51.2666L23.9585 51.2666L24.2882 50.3225ZM25.2488 50.658H26.2488V49.948L25.5785 49.7139L25.2488 50.658ZM25.2488 52.0009H24.2488V52.4553L24.5911 52.7542L25.2488 52.0009ZM25.4199 52.1504L24.7622 52.9036L24.7622 52.9036L25.4199 52.1504ZM26.3269 52.9423L26.9846 52.189H26.9846L26.3269 52.9423ZM26.6999 53.2679L26.0422 54.0211L26.788 54.6723L27.4465 53.933L26.6999 53.2679ZM27.0291 52.8982L26.2824 52.233L27.0291 52.8982ZM27.9362 51.88L28.6828 52.5452L28.6828 52.5452L27.9362 51.88ZM28.0628 51.7379L28.8095 52.403L29.0628 52.1187V51.7379H28.0628ZM28.0628 50.8318L27.5988 49.946L27.0628 50.2267V50.8318H28.0628ZM29.7384 49.954L29.2744 49.0682L29.7384 49.954ZM29.8677 49.8863L30.3318 50.7721L30.5904 50.6366L30.7355 50.3832L29.8677 49.8863ZM29.9403 49.7596L29.0725 49.2626L29.0725 49.2626L29.9403 49.7596ZM30.7177 48.402L31.5855 48.8989L31.5855 48.8989L30.7177 48.402ZM30.7838 48.2866L31.6516 48.7835L31.7838 48.5526V48.2866H30.7838ZM30.7838 46.3405H31.7838V46.1083L31.6815 45.8998L30.7838 46.3405ZM30.7327 46.2362L31.6304 45.7956L31.6304 45.7956L30.7327 46.2362ZM29.9552 44.6524L29.0576 45.093V45.093L29.9552 44.6524ZM29.8832 44.5057L30.7809 44.065L30.6369 43.7716L30.3473 43.6199L29.8832 44.5057ZM29.7384 44.4298L29.2744 45.3156L29.2744 45.3156L29.7384 44.4298ZM27.7948 43.4116L28.2589 42.5258L28.2589 42.5258L27.7948 43.4116ZM27.7284 43.3769L28.1925 42.491L28.0597 42.4215L27.9123 42.3939L27.7284 43.3769ZM27.6548 43.3631L27.8387 42.3801L27.8387 42.3801L27.6548 43.3631ZM25.9748 43.0488L25.3172 43.8021L25.5227 43.9815L25.7909 44.0317L25.9748 43.0488ZM25.2122 42.3829H24.2122V42.8373L24.5545 43.1362L25.2122 42.3829ZM25.2122 41.706L24.5545 40.9527L24.2122 41.2516V41.706H25.2122ZM25.9363 41.0738V40.0738H25.5612L25.2786 40.3205L25.9363 41.0738ZM27.3915 41.0738L28.0047 40.2838L27.7341 40.0738H27.3915V41.0738ZM28.229 41.7237H29.229V41.2339L28.8421 40.9337L28.229 41.7237ZM28.229 42.8373H27.229V43.2917L27.5713 43.5906L28.229 42.8373ZM28.4001 42.9868L29.0578 42.2335L29.0578 42.2335L28.4001 42.9868ZM29.1776 43.6655L29.8353 42.9123L29.1776 43.6655ZM29.5064 43.9527L28.8487 44.7059L29.5064 45.2802L30.1641 44.7059L29.5064 43.9527ZM29.8353 43.6655L29.1776 42.9123L29.8353 43.6655ZM30.6127 42.9868L29.955 42.2335L29.955 42.2335L30.6127 42.9868ZM30.7838 42.8373L31.4415 43.5906L31.7838 43.2917V42.8373H30.7838ZM30.7838 40.8829H31.7838V40.5962L31.6319 40.3531L30.7838 40.8829ZM30.7079 40.7614L31.556 40.2315L31.556 40.2315L30.7079 40.7614ZM29.9305 39.5169L29.0824 40.0468L29.0824 40.0468L29.9305 39.5169ZM29.8519 39.3912L30.7 38.8613L30.5429 38.6098L30.274 38.4846L29.8519 39.3912ZM29.7175 39.3286L29.2953 40.2351L29.2953 40.2351L29.7175 39.3286ZM28.0628 38.5581H27.0628V39.1955L27.6407 39.4646L28.0628 38.5581ZM28.0628 37.382H29.0628V36.8814L28.662 36.5814L28.0628 37.382ZM27.8624 37.232L28.4616 36.4314L28.4616 36.4314L27.8624 37.232ZM26.2488 37.8827L25.6496 37.0821L25.2488 37.382V37.8827H26.2488ZM26.6558 37.5781L27.255 36.7775L26.6558 36.3291L26.0566 36.7775L26.6558 37.5781ZM27.0628 37.8827H28.0628V37.382L27.662 37.0821L27.0628 37.8827ZM27.0628 39.1955H26.0628V39.833L26.6407 40.102L27.0628 39.1955ZM27.3517 39.3301L26.9296 40.2366L26.9296 40.2366L27.3517 39.3301ZM29.1609 40.1725L30.009 39.6427L29.8519 39.3912L29.5831 39.266L29.1609 40.1725ZM29.7838 41.1696H30.7838V40.8829L30.6319 40.6398L29.7838 41.1696ZM29.7838 42.3829L30.4415 43.1362L30.7838 42.8373V42.3829H29.7838ZM29.5064 42.6251L28.8487 43.3784L29.5064 43.9527L30.1641 43.3784L29.5064 42.6251ZM29.229 42.3829H28.229V42.8373L28.5713 43.1362L29.229 42.3829ZM29.229 41.2339H30.229V40.7442L29.8421 40.4439L29.229 41.2339ZM29.0355 41.0838L28.4224 41.8738L28.4224 41.8738L29.0355 41.0838ZM27.8694 40.1788L27.2562 40.9688L27.2562 40.9688L27.8694 40.1788ZM27.7341 40.0738L28.3472 39.2838L28.0766 39.0738H27.7341V40.0738ZM25.5612 40.0738V39.0738H25.1861L24.9035 39.3205L25.5612 40.0738ZM25.4199 40.1971L24.7622 39.4438L24.7622 39.4438L25.4199 40.1971ZM24.3833 41.1022L23.7256 40.3489L23.7256 40.3489L24.3833 41.1022ZM24.2122 41.2516L23.5545 40.4983L23.2122 40.7972V41.2516H24.2122ZM24.2122 42.8373H23.2122V43.2917L23.5545 43.5906L24.2122 42.8373ZM24.3833 42.9868L25.041 42.2335L25.041 42.2335L24.3833 42.9868ZM25.4199 43.8918L24.7622 44.6451L24.7622 44.6451L25.4199 43.8918ZM25.5227 43.9815L24.865 44.7348L25.0706 44.9143L25.3388 44.9645L25.5227 43.9815ZM25.6568 44.0066L25.4729 44.9896L25.6568 44.0066ZM27.3972 44.3322L27.8612 43.4464L27.7284 43.3769L27.5811 43.3493L27.3972 44.3322ZM29.1296 45.2398L30.0273 44.7991L29.8832 44.5057L29.5936 44.354L29.1296 45.2398ZM29.7838 46.5727H30.7838V46.3405L30.6815 46.132L29.7838 46.5727ZM29.7838 48.0205L30.6516 48.5174L30.7838 48.2866V48.0205H29.7838ZM29.1451 49.1359L29.6091 50.0217L29.8677 49.8863L30.0128 49.6329L29.1451 49.1359ZM27.3308 50.0864L27.7948 50.9722L27.7948 50.9722L27.3308 50.0864ZM27.0628 50.2267L26.5988 49.3409L26.0628 49.6217V50.2267H27.0628ZM27.0628 51.357L27.8095 52.0222L28.0628 51.7379V51.357H27.0628ZM26.6117 51.8634L25.954 52.6167L26.6999 53.2679L27.3584 52.5286L26.6117 51.8634ZM26.2488 51.5465H25.2488V52.0009L25.5911 52.2998L26.2488 51.5465ZM26.2488 49.948H27.2488V49.238L26.5785 49.0039L26.2488 49.948ZM25.9136 49.831L26.2433 48.8869L25.9136 49.831ZM24.7476 49.4237L23.9818 50.0669L24.1585 50.2772L24.4179 50.3678L24.7476 49.4237ZM23.5277 47.9714H22.5277V48.3356L22.762 48.6146L23.5277 47.9714ZM23.5277 47.2266L22.8141 46.5261L22.5277 46.8178V47.2266H23.5277ZM23.8316 46.9171L24.4893 46.1638L23.7788 45.5435L23.118 46.2166L23.8316 46.9171ZM24.2122 47.2494H25.2122V46.795L24.8699 46.4961L24.2122 47.2494ZM24.2122 48.1745H23.2122V48.669L23.6051 48.9691L24.2122 48.1745ZM24.4087 48.3246L23.8016 49.1192L24.4087 48.3246ZM25.4452 49.1165L24.8382 49.9111L25.4452 49.1165ZM25.5796 49.2192L24.9726 50.0138L25.2414 50.2192H25.5796V49.2192ZM27.4912 49.2192V50.2192H27.8663L28.1489 49.9725L27.4912 49.2192ZM27.6325 49.0958L28.2902 49.8491H28.2902L27.6325 49.0958ZM28.7987 48.0776L29.4564 48.8309L29.4564 48.8309L28.7987 48.0776ZM28.9698 47.9282L29.6275 48.6815L29.9698 48.3826V47.9282H28.9698ZM28.9698 46.2117H29.9698V45.722L29.5829 45.4217L28.9698 46.2117ZM28.7764 46.0616L29.3895 45.2716L28.7764 46.0616ZM27.6102 45.1565L26.9971 45.9465L27.6102 45.1565ZM27.5061 45.0757L28.1192 44.2857L27.9109 44.1241L27.6501 44.0861L27.5061 45.0757ZM27.3757 45.0567L27.5197 44.0671H27.5197L27.3757 45.0567ZM25.9052 44.8427L25.4412 45.7286L25.5923 45.8078L25.7612 45.8323L25.9052 44.8427ZM24.7471 44.2361L24.0575 44.9602L24.1589 45.0568L24.2831 45.1219L24.7471 44.2361ZM23.515 43.0625L22.5168 43.1227L22.5405 43.5153L22.8253 43.7866L23.515 43.0625ZM23.4089 41.3029L22.6313 40.6742L22.3874 40.9759L22.4107 41.3631L23.4089 41.3029ZM24.7386 39.6583L24.4852 38.6909L24.1675 38.7741L23.961 39.0295L24.7386 39.6583ZM25.8755 39.3605L25.6221 38.3931L25.8755 39.3605ZM26.2488 39.2627L26.5022 40.2301L27.2488 40.0345V39.2627H26.2488ZM25.9279 34.443L36.5882 40.0995L37.5257 38.3328L26.8654 32.6763L25.9279 34.443ZM16.205 40.0995L26.8654 34.443L25.9279 32.6763L15.2676 38.3328L16.205 40.0995ZM16.7363 50.5293V39.2162H14.7363V50.5293H16.7363ZM26.8654 55.3025L16.205 49.6459L15.2676 51.4126L25.9279 57.0691L26.8654 55.3025ZM36.5882 49.6459L25.9279 55.3025L26.8654 57.0691L37.5257 51.4126L36.5882 49.6459ZM36.057 39.2162V50.5293H38.057V39.2162H36.057ZM26.0566 37.1297L26.3562 37.3539L27.5545 35.7526L27.255 35.5284L26.0566 37.1297ZM26.9554 37.3539L27.255 37.1297L26.0566 35.5284L25.757 35.7526L26.9554 37.3539ZM26.0484 38.0327L26.9554 37.3539L25.757 35.7526L24.85 36.4314L26.0484 38.0327ZM25.8479 38.1827L26.0484 38.0327L24.85 36.4314L24.6496 36.5814L25.8479 38.1827ZM26.2488 37.6324V37.382H24.2488V37.6324H26.2488ZM26.2488 38.4909V37.6324H24.2488V38.4909H26.2488ZM24.5797 39.6999L25.5022 39.4583L24.9954 37.5235L24.073 37.7651L24.5797 39.6999ZM24.4209 39.7415L24.5797 39.6999L24.073 37.7651L23.9141 37.8067L24.4209 39.7415ZM24.8419 39.5305L24.9451 39.4028L23.3898 38.1454L23.2866 38.2731L24.8419 39.5305ZM23.287 41.4538L24.8419 39.5305L23.2866 38.2731L21.7317 40.1964L23.287 41.4538ZM23.165 41.6046L23.287 41.4538L21.7317 40.1963L21.6098 40.3472L23.165 41.6046ZM23.3973 41.1093L23.3856 40.9157L21.3892 41.0361L21.4009 41.2297L23.3973 41.1093ZM23.5268 43.2588L23.3973 41.1093L21.4009 41.2297L21.5305 43.3792L23.5268 43.2588ZM23.5387 43.4551L23.5268 43.2588L21.5305 43.3792L21.5423 43.5755L23.5387 43.4551ZM23.3726 42.9268L23.2302 42.7912L21.8508 44.2394L21.9932 44.3751L23.3726 42.9268ZM24.7979 44.2844L23.3726 42.9268L21.9932 44.3751L23.4185 45.7326L24.7979 44.2844ZM24.8486 44.3327L24.7979 44.2844L23.4185 45.7326L23.4693 45.781L24.8486 44.3327ZM24.6851 44.2036L24.623 44.171L23.6949 45.9427L23.757 45.9752L24.6851 44.2036ZM25.9808 44.8823L24.6851 44.2036L23.757 45.9752L25.0527 46.654L25.9808 44.8823ZM26.0564 44.9219L25.9808 44.8823L25.0527 46.654L25.1283 46.6936L26.0564 44.9219ZM25.8208 44.8305L25.7363 44.8182L25.4483 46.7973L25.5328 46.8096L25.8208 44.8305ZM27.2452 45.0377L25.8208 44.8305L25.5328 46.8096L26.9572 47.0169L27.2452 45.0377ZM28.5829 45.9114L27.7143 45.2373L26.4881 46.8173L27.3567 47.4914L28.5829 45.9114ZM28.9698 47.4738V46.7014H26.9698V47.4738H28.9698ZM27.7738 48.9725L28.6275 48.2271L27.3121 46.7205L26.4584 47.4659L27.7738 48.9725ZM25.9179 49.2192H27.1161V47.2192H25.9179V49.2192ZM24.6051 48.4747L25.3108 49.0138L26.525 47.4245L25.8193 46.8854L24.6051 48.4747ZM24.2122 47.0222V47.68H26.2122V47.0222H24.2122ZM24.2122 46.795V47.0222H26.2122V46.795H24.2122ZM24.3833 47.3989L24.5545 47.5483L25.8699 46.0417L25.6987 45.8923L24.3833 47.3989ZM23.4763 46.6069L24.3833 47.3989L25.6987 45.8923L24.7917 45.1004L23.4763 46.6069ZM23.1211 46.2968L23.4763 46.6069L24.7917 45.1004L24.4365 44.7902L23.1211 46.2968ZM24.162 46.5806L24.4924 46.244L23.0652 44.8429L22.7348 45.1795L24.162 46.5806ZM23.3845 47.3725L24.162 46.5806L22.7348 45.1795L21.9573 45.9714L23.3845 47.3725ZM23.2413 47.5184L23.3845 47.3725L21.9573 45.9714L21.8141 46.1172L23.2413 47.5184ZM23.5277 47.0222V46.8178H21.5277V47.0222H23.5277ZM23.5277 48.1535V47.0222H21.5277V48.1535H23.5277ZM23.5277 48.3356V48.1535H21.5277V48.3356H23.5277ZM23.4106 47.8319L23.2935 47.6925L21.762 48.9788L21.8791 49.1183L23.4106 47.8319ZM24.8359 49.5289L23.4106 47.8319L21.8791 49.1183L23.3044 50.8152L24.8359 49.5289ZM24.9242 49.6341L24.8359 49.5289L23.3044 50.8152L23.3928 50.9204L24.9242 49.6341ZM24.6179 49.3784L24.4882 49.3332L23.8288 51.2213L23.9585 51.2666L24.6179 49.3784ZM25.5785 49.7139L24.6179 49.3784L23.9585 51.2666L24.9191 51.6021L25.5785 49.7139ZM26.2488 51.7737V50.658H24.2488V51.7737H26.2488ZM26.2488 52.0009V51.7737H24.2488V52.0009H26.2488ZM26.0776 51.3971L25.9065 51.2476L24.5911 52.7542L24.7622 52.9036L26.0776 51.3971ZM26.9846 52.189L26.0776 51.3971L24.7622 52.9036L25.6693 53.6956L26.9846 52.189ZM27.3575 52.5146L26.9846 52.189L25.6692 53.6956L26.0422 54.0211L27.3575 52.5146ZM26.2824 52.233L25.9532 52.6027L27.4465 53.933L27.7758 53.5634L26.2824 52.233ZM27.1895 51.2149L26.2824 52.233L27.7758 53.5634L28.6828 52.5452L27.1895 51.2149ZM27.3161 51.0727L27.1895 51.2149L28.6828 52.5452L28.8095 52.403L27.3161 51.0727ZM27.0628 51.5474V51.7379H29.0628V51.5474H27.0628ZM27.0628 50.8318V51.5474H29.0628V50.8318H27.0628ZM29.2744 49.0682L27.5988 49.946L28.5268 51.7176L30.2025 50.8398L29.2744 49.0682ZM29.4037 49.0004L29.2744 49.0682L30.2025 50.8398L30.3318 50.7721L29.4037 49.0004ZM29.0725 49.2626L29 49.3893L30.7355 50.3832L30.8081 50.2565L29.0725 49.2626ZM29.85 47.905L29.0725 49.2626L30.8081 50.2565L31.5855 48.8989L29.85 47.905ZM29.9161 47.7896L29.85 47.905L31.5855 48.8989L31.6516 48.7835L29.9161 47.7896ZM29.7838 48.1535V48.2866H31.7838V48.1535H29.7838ZM29.7838 46.4566V48.1535H31.7838V46.4566H29.7838ZM29.7838 46.3405V46.4566H31.7838V46.3405H29.7838ZM29.835 46.6769L29.8862 46.7811L31.6815 45.8998L31.6304 45.7956L29.835 46.6769ZM29.0576 45.093L29.835 46.6769L31.6304 45.7956L30.8529 44.2118L29.0576 45.093ZM28.9855 44.9463L29.0576 45.093L30.8529 44.2118L30.7809 44.065L28.9855 44.9463ZM29.2744 45.3156L29.4192 45.3915L30.3473 43.6199L30.2025 43.544L29.2744 45.3156ZM27.3308 44.2975L29.2744 45.3156L30.2025 43.544L28.2589 42.5258L27.3308 44.2975ZM27.2644 44.2627L27.3308 44.2975L28.2589 42.5258L28.1925 42.491L27.2644 44.2627ZM27.4709 44.346L27.5445 44.3598L27.9123 42.3939L27.8387 42.3801L27.4709 44.346ZM25.7909 44.0317L27.4709 44.346L27.8387 42.3801L26.1587 42.0658L25.7909 44.0317ZM24.5545 43.1362L25.3172 43.8021L26.6325 42.2955L25.8699 41.6296L24.5545 43.1362ZM24.2122 41.706V42.3829H26.2122V41.706H24.2122ZM25.2786 40.3205L24.5545 40.9527L25.8699 42.4593L26.594 41.827L25.2786 40.3205ZM27.3915 40.0738H25.9363V42.0738H27.3915V40.0738ZM28.8421 40.9337L28.0047 40.2838L26.7784 41.8638L27.6159 42.5137L28.8421 40.9337ZM29.229 42.6101V41.7237H27.229V42.6101H29.229ZM29.229 42.8373V42.6101H27.229V42.8373H29.229ZM29.0578 42.2335L28.8867 42.084L27.5713 43.5906L27.7424 43.74L29.0578 42.2335ZM29.8353 42.9123L29.0578 42.2335L27.7424 43.74L28.5199 44.4188L29.8353 42.9123ZM30.1641 43.1994L29.8353 42.9123L28.5199 44.4188L28.8487 44.7059L30.1641 43.1994ZM29.1776 42.9123L28.8487 43.1994L30.1641 44.7059L30.4929 44.4188L29.1776 42.9123ZM29.955 42.2335L29.1776 42.9123L30.4929 44.4188L31.2704 43.74L29.955 42.2335ZM30.1262 42.084L29.955 42.2335L31.2704 43.74L31.4415 43.5906L30.1262 42.084ZM29.7838 42.6101V42.8373H31.7838V42.6101H29.7838ZM29.7838 41.0263V42.6101H31.7838V41.0263H29.7838ZM29.7838 40.8829V41.0263H31.7838V40.8829H29.7838ZM29.8598 41.2912L29.9357 41.4128L31.6319 40.3531L31.556 40.2315L29.8598 41.2912ZM29.0824 40.0468L29.8598 41.2912L31.556 40.2315L30.7786 38.9871L29.0824 40.0468ZM29.0038 39.921L29.0824 40.0468L30.7786 38.9871L30.7 38.8613L29.0038 39.921ZM29.2953 40.2351L29.4298 40.2977L30.274 38.4846L30.1396 38.422L29.2953 40.2351ZM27.6407 39.4646L29.2953 40.2351L30.1396 38.422L28.4849 37.6515L27.6407 39.4646ZM27.0628 37.6324V38.5581H29.0628V37.6324H27.0628ZM27.0628 37.382V37.6324H29.0628V37.382H27.0628ZM27.2632 38.0327L27.4636 38.1827L28.662 36.5814L28.4616 36.4314L27.2632 38.0327ZM26.3562 37.3539L27.2632 38.0327L28.4616 36.4314L27.5545 35.7526L26.3562 37.3539ZM25.2488 37.8827V38.8768H27.2488V37.8827H25.2488ZM26.0566 36.7775L25.6496 37.0821L26.8479 38.6833L27.255 38.3787L26.0566 36.7775ZM27.662 37.0821L27.255 36.7775L26.0566 38.3787L26.4636 38.6833L27.662 37.0821ZM28.0628 38.8768V37.8827H26.0628V38.8768H28.0628ZM28.0628 39.1955V38.8768H26.0628V39.1955H28.0628ZM27.7739 38.4235L27.4849 38.289L26.6407 40.102L26.9296 40.2366L27.7739 38.4235ZM29.5831 39.266L27.7739 38.4235L26.9296 40.2366L28.7388 41.079L29.5831 39.266ZM30.6319 40.6398L30.009 39.6427L28.3128 40.7023L28.9357 41.6995L30.6319 40.6398ZM30.7838 42.3829V41.1696H28.7838V42.3829H30.7838ZM30.1641 43.3784L30.4415 43.1362L29.1262 41.6296L28.8487 41.8719L30.1641 43.3784ZM28.5713 43.1362L28.8487 43.3784L30.1641 41.8719L29.8867 41.6296L28.5713 43.1362ZM28.229 41.4788V42.3829H30.229V41.4788H28.229ZM28.229 41.2339V41.4788H30.229V41.2339H28.229ZM28.4224 41.8738L28.6159 42.0239L29.8421 40.4439L29.6486 40.2938L28.4224 41.8738ZM27.2562 40.9688L28.4224 41.8738L29.6486 40.2938L28.4825 39.3888L27.2562 40.9688ZM27.121 40.8638L27.2562 40.9688L28.4825 39.3888L28.3472 39.2838L27.121 40.8638ZM27.5628 41.0738H27.7341V39.0738H27.5628V41.0738ZM25.7488 41.0738H27.5628V39.0738H25.7488V41.0738ZM25.5612 41.0738H25.7488V39.0738H25.5612V41.0738ZM26.0776 40.9504L26.2189 40.827L24.9035 39.3205L24.7622 39.4438L26.0776 40.9504ZM25.041 41.8554L26.0776 40.9504L24.7622 39.4438L23.7256 40.3489L25.041 41.8554ZM24.8699 42.0049L25.041 41.8554L23.7256 40.3489L23.5545 40.4983L24.8699 42.0049ZM25.2122 41.4788V41.2516H23.2122V41.4788H25.2122ZM25.2122 42.6101V41.4788H23.2122V42.6101H25.2122ZM25.2122 42.8373V42.6101H23.2122V42.8373H25.2122ZM25.041 42.2335L24.8699 42.084L23.5545 43.5906L23.7256 43.74L25.041 42.2335ZM26.0776 43.1385L25.041 42.2335L23.7256 43.74L24.7622 44.6451L26.0776 43.1385ZM26.1804 43.2282L26.0776 43.1385L24.7622 44.6451L24.865 44.7348L26.1804 43.2282ZM25.8407 43.0237L25.7066 42.9986L25.3388 44.9645L25.4729 44.9896L25.8407 43.0237ZM27.5811 43.3493L25.8407 43.0237L25.4729 44.9896L27.2133 45.3152L27.5811 43.3493ZM29.5936 44.354L27.8612 43.4464L26.9331 45.2181L28.6655 46.1256L29.5936 44.354ZM30.6815 46.132L30.0273 44.7991L28.2319 45.6804L28.8862 47.0133L30.6815 46.132ZM30.7838 48.0205V46.5727H28.7838V48.0205H30.7838ZM30.0128 49.6329L30.6516 48.5174L28.9161 47.5235L28.2773 48.639L30.0128 49.6329ZM27.7948 50.9722L29.6091 50.0217L28.681 48.2501L26.8667 49.2006L27.7948 50.9722ZM27.5268 51.1126L27.7948 50.9722L26.8667 49.2005L26.5988 49.3409L27.5268 51.1126ZM28.0628 50.5293V50.2267H26.0628V50.5293H28.0628ZM28.0628 51.357V50.5293H26.0628V51.357H28.0628ZM27.3584 52.5286L27.8095 52.0222L26.3161 50.6919L25.865 51.1982L27.3584 52.5286ZM25.5911 52.2998L25.954 52.6167L27.2694 51.1101L26.9065 50.7932L25.5911 52.2998ZM25.2488 50.303V51.5465H27.2488V50.303H25.2488ZM25.2488 49.948V50.303H27.2488V49.948H25.2488ZM25.5839 50.775L25.9191 50.8921L26.5785 49.0039L26.2433 48.8869L25.5839 50.775ZM24.4179 50.3678L25.5839 50.775L26.2433 48.8869L25.0773 48.4796L24.4179 50.3678ZM22.762 48.6146L23.9818 50.0669L25.5133 48.7806L24.2935 47.3282L22.762 48.6146ZM22.5277 47.2266V47.9714H24.5277V47.2266H22.5277ZM23.118 46.2166L22.8141 46.5261L24.2413 47.9272L24.5452 47.6177L23.118 46.2166ZM24.8699 46.4961L24.4893 46.1638L23.1739 47.6704L23.5545 48.0027L24.8699 46.4961ZM25.2122 47.9273V47.2494H23.2122V47.9273H25.2122ZM25.2122 48.1745V47.9273H23.2122V48.1745H25.2122ZM25.0157 47.5299L24.8193 47.3798L23.6051 48.9691L23.8016 49.1192L25.0157 47.5299ZM26.0523 48.3219L25.0157 47.5299L23.8016 49.1192L24.8382 49.9111L26.0523 48.3219ZM26.1867 48.4245L26.0523 48.3219L24.8382 49.9111L24.9726 50.0138L26.1867 48.4245ZM25.7488 48.2192H25.5796V50.2192H25.7488V48.2192ZM27.3037 48.2192H25.7488V50.2192H27.3037V48.2192ZM27.4912 48.2192H27.3037V50.2192H27.4912V48.2192ZM26.9748 48.3425L26.8335 48.4659L28.1489 49.9725L28.2902 49.8491L26.9748 48.3425ZM28.141 47.3244L26.9748 48.3425L28.2902 49.8491L29.4564 48.8309L28.141 47.3244ZM28.3121 47.1749L28.141 47.3244L29.4564 48.8309L29.6275 48.6815L28.3121 47.1749ZM27.9698 47.701V47.9282H29.9698V47.701H27.9698ZM27.9698 46.4566V47.701H29.9698V46.4566H27.9698ZM27.9698 46.2117V46.4566H29.9698V46.2117H27.9698ZM28.1633 46.8516L28.3567 47.0017L29.5829 45.4217L29.3895 45.2716L28.1633 46.8516ZM26.9971 45.9465L28.1633 46.8516L29.3895 45.2716L28.2233 44.3665L26.9971 45.9465ZM26.893 45.8657L26.9971 45.9465L28.2233 44.3665L28.1192 44.2857L26.893 45.8657ZM27.2317 46.0463L27.3621 46.0653L27.6501 44.0861L27.5197 44.0671L27.2317 46.0463ZM25.7612 45.8323L27.2317 46.0463L27.5197 44.0671L26.0492 43.8532L25.7612 45.8323ZM24.2831 45.1219L25.4412 45.7286L26.3693 43.9569L25.2112 43.3503L24.2831 45.1219ZM22.8253 43.7866L24.0575 44.9602L25.4368 43.512L24.2047 42.3384L22.8253 43.7866ZM22.4107 41.3631L22.5168 43.1227L24.5132 43.0023L24.4071 41.2428L22.4107 41.3631ZM23.961 39.0295L22.6313 40.6742L24.1866 41.9316L25.5163 40.287L23.961 39.0295ZM25.6221 38.3931L24.4852 38.6909L24.992 40.6256L26.1289 40.3278L25.6221 38.3931ZM25.9954 38.2953L25.6221 38.3931L26.1289 40.3278L26.5022 40.2301L25.9954 38.2953ZM25.2488 38.8768V39.2627H27.2488V38.8768H25.2488Z" fill="black" mask="url(#path-2-outside-1_146_824)"/>
</svg>
