<svg width="82" height="74" viewBox="0 0 82 74" fill="none" xmlns="http://www.w3.org/2000/svg">
<path fill-rule="evenodd" clip-rule="evenodd" d="M18.8882 38.1793L18.7831 38.8479L19.1055 39.4429L26.5075 53.1014L26.9068 53.8382L27.712 54.0702L40.2689 57.6891L40.8448 57.8551L41.417 57.6771L53.0486 54.0582L53.7466 53.841L54.14 53.225L62.8637 39.5665L63.1782 39.0742V38.49V31.0187V30.3012L62.7221 29.7473L52.1479 16.906L49.4615 13.6437L48.6419 17.7895L47.8893 21.5965L47.2689 21.012L47.9686 13.6983L47.9777 13.6033V13.5078V7.08713V6.34508L47.4937 5.78261L44.9823 2.86413L43.1664 0.753784L41.7461 3.14842L37.4411 10.4072L32.4854 16.9724L32.3013 17.2163L32.1985 17.504L29.9686 23.7406L28.0591 22.2174L26.4533 20.9363L25.2156 22.5759L21.5146 27.4789L21.2887 27.7783L21.1865 28.1392L19.6004 33.7426L19.5677 33.8581L19.5491 33.9767L18.8882 38.1793ZM49.4235 24.1486L49.6079 23.2156L50.1024 20.7145L50.604 18.1774L52.248 20.1738L56.9009 25.8243L49.4235 24.1486ZM48.6035 25.0171L49.15 25.5319L49.2295 25.13L56.803 26.8271L54.5769 32.627L44.1307 26.5788L48.6035 25.0171ZM47.7832 24.2443L43.9718 25.5751L45.7041 22.2857L47.4314 23.9128L47.7832 24.2443ZM45.3038 20.5512L45.7762 15.6145L42.3049 17.988L45.3038 20.5512ZM45.8676 14.6584L45.9777 13.5078V7.08713L44.8429 5.76834L43.934 4.71214L43.4492 10.8137L45.8676 14.6584ZM43.5742 4.29396L43.4664 4.16865L43.4002 4.28014L43.5742 4.29396ZM42.8979 5.12713L42.3898 5.98384L39.1045 11.5232L34.0817 18.1774L32.7141 22.0024L37.8735 18.0152L37.9782 17.9343L38.1093 17.9157L41.298 17.4651L44.9017 15.001L42.5144 11.2057L42.4261 11.0653L42.4392 10.8999L42.8979 5.12713ZM32.1153 23.677L32.1404 23.7095L38.3803 18.8874L41.3303 18.4705L44.9526 21.5666L42.6136 26.0081L34.2684 27.2366L31.2463 26.1073L31.6212 25.0589L32.1153 23.677ZM30.9082 27.0485L30.9094 27.0495L30.9096 27.049L33.5796 28.0467L31.4479 34.1135L26.4739 35.5778L22.8242 30.7428L30.7991 27.0077L30.9082 27.0485ZM29.9634 26.2949L29.2568 25.7312L28.376 25.0285L26.8119 23.7808L25.6066 25.3777L23.1109 28.6839L22.8432 29.6297L29.9634 26.2949ZM22.2672 31.6647L21.5248 34.2874L20.8639 38.49L21.9947 40.5766L25.6466 36.1417L22.2672 31.6647ZM22.7683 42.0041L28.2659 52.1484L28.405 52.1885L35.6714 49.7819L32.0554 44.5279L22.7683 42.0041ZM30.1057 52.6787L39.5354 55.3963L36.2618 50.6398L30.1057 52.6787ZM42.5226 55.2385L52.4545 52.1484L56.8936 45.1983L42.5226 55.2385ZM58.4882 42.7017L61.1782 38.49V31.0187L57.8273 26.9493L55.3648 33.365L58.4882 42.7017ZM34.5855 28.2006L42.4376 27.0448V33.1352L37.5947 37.6264L32.4374 34.3137L34.5855 28.2006ZM32.9996 44.1359L37.7752 38.8636L47.3834 43.2677L40.5229 55.0672L36.8728 49.7637L32.9996 44.1359ZM42.1297 54.2931L48.5146 43.3117L54.6754 34.4564L57.6776 43.4307L42.1297 54.2931ZM54.1129 33.5139L43.4376 27.3331V33.3534V33.5717L43.2776 33.7201L38.5395 38.114L47.9209 42.4141L54.1129 33.5139ZM36.8837 38.3582L32.1987 43.5305L22.9314 41.0121L26.5716 36.5915L31.7567 35.065L36.8837 38.3582Z" fill="#00F0FF"/>
<mask id="path-2-outside-1_137_1169" maskUnits="userSpaceOnUse" x="30.9247" y="27.5504" width="20" height="23" fill="black">
<rect fill="white" x="30.9247" y="27.5504" width="20" height="23"/>
<path fill-rule="evenodd" clip-rule="evenodd" d="M49.901 34.3367L40.9129 29.5504L31.9247 34.3367V43.9093L40.9129 48.6956L49.901 43.9093V34.3367ZM41.4316 32.0224L41.1314 31.7969L40.8311 32.0224L40.0663 32.5968L39.8666 32.7468V32.9966V33.664L39.147 33.8532L38.9879 33.895L38.8848 34.0231L37.5738 35.6504L37.4525 35.801L37.4641 35.9941L37.5733 37.8128L37.5851 38.0087L37.7269 38.1443L38.9286 39.293L38.9794 39.3415L39.0415 39.3741L40.1339 39.9485L40.2097 39.9883L40.2944 40.0007L41.4746 40.173L42.1608 40.7075V41.2895L41.4895 41.8777H40.5362L39.9926 41.4609V40.9418V40.7152L39.8221 40.5658L39.0574 39.8957L38.7014 39.5838L38.3705 39.9221L37.715 40.5922L37.5724 40.7379V40.9418V41.8991V42.0807L37.689 42.22L38.8907 43.6559L38.979 43.7614L39.1088 43.8068L39.8666 44.0725V44.9623V45.189L40.0371 45.3384L40.8018 46.0085L41.1755 46.3359L41.5053 45.9643L42.27 45.1028L42.3961 44.9608V44.7709V44.2114L43.7675 43.4904L43.8967 43.4224L43.9691 43.2956L44.6246 42.1469L44.6903 42.0317V41.8991V40.4632V40.3475L44.6395 40.2435L43.984 38.9033L43.9122 38.7565L43.7675 38.6805L42.1288 37.8189L42.0622 37.784L41.9884 37.7701L40.5933 37.5081L39.9926 36.9818V36.4779L40.5547 35.9854H41.7243L42.3793 36.4956V37.2085V37.4352L42.5498 37.5846L43.2053 38.1589L43.5348 38.4477L43.8643 38.1589L44.5198 37.5846L44.6903 37.4352V37.2085V35.8683V35.7254L44.6148 35.6041L43.9593 34.5511L43.8809 34.4252L43.7465 34.3624L42.3961 33.7313V32.9966V32.7468L42.1964 32.5968L41.4316 32.0224ZM40.8666 34.0496V33.2464L41.1314 33.0475L41.3961 33.2464V34.0496V34.3678L41.6844 34.5025L43.1887 35.2055L43.6903 36.0113V36.9818L43.5348 37.1181L43.3793 36.9818V36.2513V36.0069L43.1866 35.8568L42.2033 35.091L42.0678 34.9854H41.8961H40.3666H40.1785L40.0371 35.1094L39.1631 35.8752L38.9926 36.0246V36.2513V37.2085V37.4352L39.1631 37.5846L40.0371 38.3504L40.1399 38.4405L40.2743 38.4657L41.7299 38.739L43.1575 39.4895L43.6903 40.5789V41.7665L43.1729 42.6732L41.6634 43.4668L41.3961 43.6073V43.9093V44.581L41.0872 44.9289L40.8666 44.7357V43.7179V43.3633L40.532 43.246L39.5693 42.9086L38.5724 41.7175V41.1457L38.7544 40.9597L38.9926 41.1685V41.7076V41.9543L39.1884 42.1044L40.0624 42.7745L40.197 42.8777H40.3666H41.6776H41.8657L42.0071 42.7538L42.9903 41.8922L43.1608 41.7429V41.5162V40.4632V40.2189L42.9681 40.0687L41.9848 39.3029L41.8806 39.2217L41.7498 39.2026L40.5235 39.0236L39.5689 38.5217L38.5597 37.557L38.4738 36.1271L39.5603 34.7785L40.4937 34.5331L40.8666 34.4351V34.0496Z"/>
</mask>
<path fill-rule="evenodd" clip-rule="evenodd" d="M49.901 34.3367L40.9129 29.5504L31.9247 34.3367V43.9093L40.9129 48.6956L49.901 43.9093V34.3367ZM41.4316 32.0224L41.1314 31.7969L40.8311 32.0224L40.0663 32.5968L39.8666 32.7468V32.9966V33.664L39.147 33.8532L38.9879 33.895L38.8848 34.0231L37.5738 35.6504L37.4525 35.801L37.4641 35.9941L37.5733 37.8128L37.5851 38.0087L37.7269 38.1443L38.9286 39.293L38.9794 39.3415L39.0415 39.3741L40.1339 39.9485L40.2097 39.9883L40.2944 40.0007L41.4746 40.173L42.1608 40.7075V41.2895L41.4895 41.8777H40.5362L39.9926 41.4609V40.9418V40.7152L39.8221 40.5658L39.0574 39.8957L38.7014 39.5838L38.3705 39.9221L37.715 40.5922L37.5724 40.7379V40.9418V41.8991V42.0807L37.689 42.22L38.8907 43.6559L38.979 43.7614L39.1088 43.8068L39.8666 44.0725V44.9623V45.189L40.0371 45.3384L40.8018 46.0085L41.1755 46.3359L41.5053 45.9643L42.27 45.1028L42.3961 44.9608V44.7709V44.2114L43.7675 43.4904L43.8967 43.4224L43.9691 43.2956L44.6246 42.1469L44.6903 42.0317V41.8991V40.4632V40.3475L44.6395 40.2435L43.984 38.9033L43.9122 38.7565L43.7675 38.6805L42.1288 37.8189L42.0622 37.784L41.9884 37.7701L40.5933 37.5081L39.9926 36.9818V36.4779L40.5547 35.9854H41.7243L42.3793 36.4956V37.2085V37.4352L42.5498 37.5846L43.2053 38.1589L43.5348 38.4477L43.8643 38.1589L44.5198 37.5846L44.6903 37.4352V37.2085V35.8683V35.7254L44.6148 35.6041L43.9593 34.5511L43.8809 34.4252L43.7465 34.3624L42.3961 33.7313V32.9966V32.7468L42.1964 32.5968L41.4316 32.0224ZM40.8666 34.0496V33.2464L41.1314 33.0475L41.3961 33.2464V34.0496V34.3678L41.6844 34.5025L43.1887 35.2055L43.6903 36.0113V36.9818L43.5348 37.1181L43.3793 36.9818V36.2513V36.0069L43.1866 35.8568L42.2033 35.091L42.0678 34.9854H41.8961H40.3666H40.1785L40.0371 35.1094L39.1631 35.8752L38.9926 36.0246V36.2513V37.2085V37.4352L39.1631 37.5846L40.0371 38.3504L40.1399 38.4405L40.2743 38.4657L41.7299 38.739L43.1575 39.4895L43.6903 40.5789V41.7665L43.1729 42.6732L41.6634 43.4668L41.3961 43.6073V43.9093V44.581L41.0872 44.9289L40.8666 44.7357V43.7179V43.3633L40.532 43.246L39.5693 42.9086L38.5724 41.7175V41.1457L38.7544 40.9597L38.9926 41.1685V41.7076V41.9543L39.1884 42.1044L40.0624 42.7745L40.197 42.8777H40.3666H41.6776H41.8657L42.0071 42.7538L42.9903 41.8922L43.1608 41.7429V41.5162V40.4632V40.2189L42.9681 40.0687L41.9848 39.3029L41.8806 39.2217L41.7498 39.2026L40.5235 39.0236L39.5689 38.5217L38.5597 37.557L38.4738 36.1271L39.5603 34.7785L40.4937 34.5331L40.8666 34.4351V34.0496Z" fill="#00F0FF"/>
<path d="M40.9129 29.5504L41.3829 28.6678L40.9129 28.4175L40.4428 28.6678L40.9129 29.5504ZM49.901 34.3367H50.901V33.7363L50.371 33.4541L49.901 34.3367ZM31.9247 34.3367L31.4547 33.4541L30.9247 33.7363V34.3367H31.9247ZM31.9247 43.9093H30.9247V44.5098L31.4547 44.792L31.9247 43.9093ZM40.9129 48.6956L40.4428 49.5783L40.9129 49.8286L41.3829 49.5783L40.9129 48.6956ZM49.901 43.9093L50.371 44.792L50.901 44.5098V43.9093H49.901ZM41.1314 31.7969L41.7319 30.9973L41.1314 30.5463L40.5308 30.9973L41.1314 31.7969ZM41.4316 32.0224L42.0322 31.2228L42.0322 31.2228L41.4316 32.0224ZM40.8311 32.0224L40.2305 31.2228V31.2228L40.8311 32.0224ZM40.0663 32.5968L39.4658 31.7972L39.4658 31.7972L40.0663 32.5968ZM39.8666 32.7468L39.2661 31.9472L38.8666 32.2472V32.7468H39.8666ZM39.8666 33.664L40.1208 34.6311L40.8666 34.4351V33.664H39.8666ZM39.147 33.8532L38.8928 32.886L38.8928 32.886L39.147 33.8532ZM38.9879 33.895L38.7337 32.9278L38.4156 33.0115L38.2092 33.2676L38.9879 33.895ZM38.8848 34.0231L38.106 33.3957L38.106 33.3957L38.8848 34.0231ZM37.5738 35.6504L36.795 35.0231L36.795 35.0231L37.5738 35.6504ZM37.4525 35.801L36.6737 35.1737L36.4311 35.4749L36.4543 35.861L37.4525 35.801ZM37.4641 35.9941L36.4659 36.054V36.054L37.4641 35.9941ZM37.5733 37.8128L36.5751 37.8728V37.8728L37.5733 37.8128ZM37.5851 38.0087L36.5869 38.0687L36.6104 38.4604L36.8941 38.7316L37.5851 38.0087ZM37.7269 38.1443L37.0359 38.8672L37.0359 38.8672L37.7269 38.1443ZM38.9286 39.293L39.6196 38.5701L39.6196 38.5701L38.9286 39.293ZM38.9794 39.3415L38.2884 40.0644L38.3898 40.1613L38.514 40.2266L38.9794 39.3415ZM39.0415 39.3741L38.5761 40.2593L38.5761 40.2593L39.0415 39.3741ZM40.1339 39.9485L39.6686 40.8336L39.6686 40.8336L40.1339 39.9485ZM40.2097 39.9883L39.7443 40.8735L39.8958 40.9531L40.0652 40.9778L40.2097 39.9883ZM40.2944 40.0007L40.1499 40.9902H40.1499L40.2944 40.0007ZM41.4746 40.173L42.0891 39.3841L41.8806 39.2217L41.6191 39.1835L41.4746 40.173ZM42.1608 40.7075H43.1608V40.2189L42.7753 39.9186L42.1608 40.7075ZM42.1608 41.2895L42.8199 42.0416L43.1608 41.7429V41.2895H42.1608ZM41.4895 41.8777V42.8777H41.8657L42.1486 42.6298L41.4895 41.8777ZM40.5362 41.8777L39.9278 42.6713L40.197 42.8777H40.5362V41.8777ZM39.9926 41.4609H38.9926V41.9543L39.3842 42.2545L39.9926 41.4609ZM39.9926 40.7152H40.9926V40.2618L40.6517 39.963L39.9926 40.7152ZM39.8221 40.5658L40.4812 39.8137L40.4812 39.8136L39.8221 40.5658ZM39.0574 39.8957L39.7164 39.1436H39.7164L39.0574 39.8957ZM38.7014 39.5838L39.3605 38.8317L38.6485 38.2078L37.9866 38.8845L38.7014 39.5838ZM38.3705 39.9221L39.0853 40.6214H39.0853L38.3705 39.9221ZM37.715 40.5922L37.0001 39.8929H37.0001L37.715 40.5922ZM37.5724 40.7379L36.8576 40.0387L36.5724 40.3302V40.7379H37.5724ZM37.5724 42.0807H36.5724V42.444L36.8055 42.7225L37.5724 42.0807ZM37.689 42.22L38.4558 41.5782L38.4558 41.5782L37.689 42.22ZM38.8907 43.6559L38.1238 44.2977L38.8907 43.6559ZM38.979 43.7614L38.2121 44.4032L38.3886 44.6141L38.6482 44.7051L38.979 43.7614ZM39.1088 43.8068L39.4395 42.8631L39.4395 42.8631L39.1088 43.8068ZM39.8666 44.0725H40.8666V43.3633L40.1974 43.1287L39.8666 44.0725ZM39.8666 45.189H38.8666V45.6424L39.2076 45.9411L39.8666 45.189ZM40.0371 45.3384L40.6961 44.5863L40.6961 44.5863L40.0371 45.3384ZM40.8018 46.0085L40.1428 46.7606L40.8018 46.0085ZM41.1755 46.3359L40.5165 47.088L41.2638 47.7428L41.9234 46.9997L41.1755 46.3359ZM41.5053 45.9643L40.7574 45.3005L40.7574 45.3005L41.5053 45.9643ZM42.27 45.1028L43.0179 45.7666L43.0179 45.7666L42.27 45.1028ZM42.3961 44.9608L43.144 45.6246L43.3961 45.3406V44.9608H42.3961ZM42.3961 44.2114L41.9307 43.3262L41.3961 43.6073V44.2114H42.3961ZM43.7675 43.4904L43.3021 42.6052L43.7675 43.4904ZM43.8967 43.4224L44.3621 44.3076L44.6205 44.1717L44.7653 43.918L43.8967 43.4224ZM43.9691 43.2956L44.8376 43.7912L44.8376 43.7912L43.9691 43.2956ZM44.6246 42.1469L45.4931 42.6425L45.4931 42.6425L44.6246 42.1469ZM44.6903 42.0317L45.5588 42.5273L45.6903 42.297V42.0317H44.6903ZM44.6903 40.3475H45.6903V40.116L45.5886 39.9081L44.6903 40.3475ZM44.6395 40.2435L45.5378 39.8041L45.5378 39.8041L44.6395 40.2435ZM43.984 38.9033L44.8823 38.464L44.8823 38.464L43.984 38.9033ZM43.9122 38.7565L44.8105 38.3172L44.6668 38.0235L44.3775 37.8714L43.9122 38.7565ZM43.7675 38.6805L43.3021 39.5656L43.7675 38.6805ZM42.1288 37.8189L42.5941 36.9338L42.5941 36.9338L42.1288 37.8189ZM42.0622 37.784L42.5276 36.8988L42.3945 36.8289L42.2468 36.8011L42.0622 37.784ZM41.9884 37.7701L41.8038 38.7529L41.8038 38.7529L41.9884 37.7701ZM40.5933 37.5081L39.9343 38.2603L40.1399 38.4405L40.4087 38.491L40.5933 37.5081ZM39.9926 36.9818H38.9926V37.4352L39.3336 37.734L39.9926 36.9818ZM39.9926 36.4779L39.3336 35.7258L38.9926 36.0246V36.4779H39.9926ZM40.5547 35.9854V34.9854H40.1785L39.8957 35.2333L40.5547 35.9854ZM41.7243 35.9854L42.3388 35.1965L42.0678 34.9854H41.7243V35.9854ZM42.3793 36.4956H43.3793V36.0069L42.9938 35.7066L42.3793 36.4956ZM42.3793 37.4352H41.3793V37.8885L41.7203 38.1873L42.3793 37.4352ZM42.5498 37.5846L41.8908 38.3367L42.5498 37.5846ZM43.2053 38.1589L43.8643 37.4068L43.8643 37.4068L43.2053 38.1589ZM43.5348 38.4477L42.8758 39.1998L43.5348 39.7772L44.1938 39.1998L43.5348 38.4477ZM43.8643 38.1589L43.2053 37.4068L43.2053 37.4068L43.8643 38.1589ZM44.5198 37.5846L45.1788 38.3367L45.1788 38.3367L44.5198 37.5846ZM44.6903 37.4352L45.3493 38.1873L45.6903 37.8885V37.4352H44.6903ZM44.6903 35.7254H45.6903V35.4396L45.5392 35.197L44.6903 35.7254ZM44.6148 35.6041L45.4637 35.0756L45.4637 35.0756L44.6148 35.6041ZM43.9593 34.5511L43.1103 35.0796V35.0796L43.9593 34.5511ZM43.8809 34.4252L44.7298 33.8967L44.573 33.6448L44.3043 33.5192L43.8809 34.4252ZM43.7465 34.3624L44.1699 33.4564L44.1699 33.4564L43.7465 34.3624ZM42.3961 33.7313H41.3961V34.3678L41.9727 34.6373L42.3961 33.7313ZM42.3961 32.7468H43.3961V32.2472L42.9966 31.9472L42.3961 32.7468ZM42.1964 32.5968L41.5958 33.3964L41.5958 33.3964L42.1964 32.5968ZM40.8666 33.2464L40.2661 32.4468L39.8666 32.7468V33.2464H40.8666ZM41.1314 33.0475L41.7319 32.2479L41.1314 31.7969L40.5308 32.2479L41.1314 33.0475ZM41.3961 33.2464H42.3961V32.7468L41.9966 32.4468L41.3961 33.2464ZM41.3961 34.3678H40.3961V35.0043L40.9727 35.2737L41.3961 34.3678ZM41.6844 34.5025L41.261 35.4085L41.6844 34.5025ZM43.1887 35.2055L44.0377 34.6771L43.8809 34.4252L43.6121 34.2996L43.1887 35.2055ZM43.6903 36.0113H44.6903V35.7254L44.5392 35.4828L43.6903 36.0113ZM43.6903 36.9818L44.3493 37.734L44.6903 37.4352V36.9818H43.6903ZM43.5348 37.1181L42.8758 37.8702L43.5348 38.4477L44.1938 37.8702L43.5348 37.1181ZM43.3793 36.9818H42.3793V37.4352L42.7203 37.734L43.3793 36.9818ZM43.3793 36.0069H44.3793V35.5183L43.9938 35.218L43.3793 36.0069ZM43.1866 35.8568L43.801 35.0678L43.801 35.0678L43.1866 35.8568ZM42.2033 35.091L41.5888 35.8799L42.2033 35.091ZM42.0678 34.9854L42.6823 34.1965L42.4113 33.9854H42.0678V34.9854ZM40.1785 34.9854V33.9854H39.8024L39.5195 34.2333L40.1785 34.9854ZM40.0371 35.1094L39.3781 34.3573L39.3781 34.3573L40.0371 35.1094ZM39.1631 35.8752L38.5041 35.1231L38.5041 35.1231L39.1631 35.8752ZM38.9926 36.0246L38.3336 35.2725L37.9926 35.5712V36.0246H38.9926ZM38.9926 37.4352H37.9926V37.8885L38.3336 38.1873L38.9926 37.4352ZM39.1631 37.5846L38.5041 38.3367L38.5041 38.3367L39.1631 37.5846ZM40.0371 38.3504L40.6961 37.5983L40.6961 37.5983L40.0371 38.3504ZM40.1399 38.4405L39.4809 39.1926L39.6866 39.3729L39.9554 39.4233L40.1399 38.4405ZM40.2743 38.4657L40.4589 37.4829L40.4589 37.4829L40.2743 38.4657ZM41.7299 38.739L42.1953 37.8539L42.0622 37.784L41.9145 37.7562L41.7299 38.739ZM43.1575 39.4895L44.0558 39.0502L43.9122 38.7565L43.6228 38.6044L43.1575 39.4895ZM43.6903 40.5789H44.6903V40.3475L44.5886 40.1396L43.6903 40.5789ZM43.6903 41.7665L44.5588 42.2621L44.6903 42.0317V41.7665H43.6903ZM43.1729 42.6732L43.6382 43.5583L43.8967 43.4224L44.0414 43.1688L43.1729 42.6732ZM41.6634 43.4668L42.1288 44.3519L42.1288 44.3519L41.6634 43.4668ZM41.3961 43.6073L40.9307 42.7222L40.3961 43.0033V43.6073H41.3961ZM41.3961 44.581L42.144 45.2448L42.3961 44.9608V44.581H41.3961ZM41.0872 44.9289L40.4282 45.6811L41.1755 46.3359L41.8351 45.5928L41.0872 44.9289ZM40.8666 44.7357H39.8666V45.189L40.2076 45.4878L40.8666 44.7357ZM40.8666 43.3633H41.8666V42.6542L41.1974 42.4196L40.8666 43.3633ZM40.532 43.246L40.8628 42.3023L40.8628 42.3023L40.532 43.246ZM39.5693 42.9086L38.8024 43.5504L38.979 43.7613L39.2385 43.8523L39.5693 42.9086ZM38.5724 41.7175H37.5724V42.0807L37.8055 42.3593L38.5724 41.7175ZM38.5724 41.1457L37.8576 40.4464L37.5724 40.7379V41.1457H38.5724ZM38.7544 40.9597L39.4134 40.2076L38.7014 39.5838L38.0395 40.2604L38.7544 40.9597ZM38.9926 41.1685H39.9926V40.7152L39.6517 40.4164L38.9926 41.1685ZM38.9926 41.9543H37.9926V42.4477L38.3842 42.7479L38.9926 41.9543ZM39.1884 42.1044L39.7969 41.3108L39.7968 41.3108L39.1884 42.1044ZM40.0624 42.7745L39.4539 43.5681L39.4539 43.5681L40.0624 42.7745ZM40.197 42.8777L39.5886 43.6713L39.8578 43.8777H40.197V42.8777ZM41.8657 42.8777V43.8777H42.2418L42.5247 43.6298L41.8657 42.8777ZM42.0071 42.7538L41.3481 42.0017L41.3481 42.0017L42.0071 42.7538ZM42.9903 41.8922L43.6494 42.6444L43.6494 42.6444L42.9903 41.8922ZM43.1608 41.7429L43.8199 42.495L44.1608 42.1962V41.7429H43.1608ZM43.1608 40.2189H44.1608V39.7302L43.7753 39.4299L43.1608 40.2189ZM42.9681 40.0687L43.5825 39.2798L43.5825 39.2798L42.9681 40.0687ZM41.9848 39.3029L41.3703 40.0919L41.3704 40.0919L41.9848 39.3029ZM41.8806 39.2217L42.4951 38.4328L42.2866 38.2704L42.0251 38.2322L41.8806 39.2217ZM41.7498 39.2026L41.6053 40.1921L41.6053 40.1921L41.7498 39.2026ZM40.5235 39.0236L40.0582 39.9087L40.2097 39.9883L40.379 40.0131L40.5235 39.0236ZM39.5689 38.5217L38.8779 39.2445L38.9794 39.3415L39.1036 39.4068L39.5689 38.5217ZM38.5597 37.557L37.5615 37.617L37.5851 38.0087L37.8688 38.2799L38.5597 37.557ZM38.4738 36.1271L37.6951 35.4998L37.4525 35.801L37.4756 36.1871L38.4738 36.1271ZM39.5603 34.7785L39.3061 33.8113L38.9879 33.895L38.7816 34.1511L39.5603 34.7785ZM40.4937 34.5331L40.748 35.5003H40.748L40.4937 34.5331ZM40.8666 34.4351L41.1208 35.4022L41.8666 35.2062V34.4351H40.8666ZM40.4428 30.4331L49.4309 35.2194L50.371 33.4541L41.3829 28.6678L40.4428 30.4331ZM32.3948 35.2194L41.3829 30.4331L40.4428 28.6678L31.4547 33.4541L32.3948 35.2194ZM32.9247 43.9093V34.3367H30.9247V43.9093H32.9247ZM41.3829 47.813L32.3948 43.0267L31.4547 44.792L40.4428 49.5783L41.3829 47.813ZM49.4309 43.0267L40.4428 47.813L41.3829 49.5783L50.371 44.792L49.4309 43.0267ZM48.901 34.3367V43.9093H50.901V34.3367H48.901ZM40.5308 32.5965L40.8311 32.822L42.0322 31.2228L41.7319 30.9973L40.5308 32.5965ZM41.4316 32.822L41.7319 32.5965L40.5308 30.9973L40.2305 31.2228L41.4316 32.822ZM40.6669 33.3964L41.4316 32.822L40.2305 31.2228L39.4658 31.7972L40.6669 33.3964ZM40.4672 33.5464L40.6669 33.3964L39.4658 31.7972L39.2661 31.9472L40.4672 33.5464ZM40.8666 32.9966V32.7468H38.8666V32.9966H40.8666ZM40.8666 33.664V32.9966H38.8666V33.664H40.8666ZM39.4012 34.8203L40.1208 34.6311L39.6124 32.6969L38.8928 32.886L39.4012 34.8203ZM39.2422 34.8621L39.4012 34.8203L38.8928 32.886L38.7337 32.9278L39.2422 34.8621ZM39.6635 34.6504L39.7667 34.5223L38.2092 33.2676L38.106 33.3957L39.6635 34.6504ZM38.3525 36.2777L39.6635 34.6504L38.106 33.3957L36.795 35.0231L38.3525 36.2777ZM38.2312 36.4284L38.3525 36.2777L36.795 35.0231L36.6737 35.1737L38.2312 36.4284ZM38.4623 35.9341L38.4507 35.741L36.4543 35.861L36.4659 36.054L38.4623 35.9341ZM38.5715 37.7529L38.4623 35.9341L36.4659 36.054L36.5751 37.8728L38.5715 37.7529ZM38.5833 37.9488L38.5715 37.7529L36.5751 37.8728L36.5869 38.0687L38.5833 37.9488ZM38.4179 37.4214L38.276 37.2858L36.8941 38.7316L37.0359 38.8672L38.4179 37.4214ZM39.6196 38.5701L38.4179 37.4214L37.0359 38.8672L38.2377 40.0159L39.6196 38.5701ZM39.6703 38.6186L39.6196 38.5701L38.2377 40.0159L38.2884 40.0644L39.6703 38.6186ZM39.5068 38.489L39.4447 38.4564L38.514 40.2266L38.5761 40.2593L39.5068 38.489ZM40.5993 39.0634L39.5068 38.489L38.5761 40.2593L39.6686 40.8336L40.5993 39.0634ZM40.675 39.1032L40.5993 39.0634L39.6686 40.8336L39.7443 40.8735L40.675 39.1032ZM40.4389 39.0112L40.3542 38.9988L40.0652 40.9778L40.1499 40.9902L40.4389 39.0112ZM41.6191 39.1835L40.4389 39.0112L40.1499 40.9902L41.3301 41.1626L41.6191 39.1835ZM42.7753 39.9186L42.0891 39.3841L40.8601 40.962L41.5463 41.4965L42.7753 39.9186ZM43.1608 41.2895V40.7075H41.1608V41.2895H43.1608ZM42.1486 42.6298L42.8199 42.0416L41.5018 40.5374L40.8305 41.1256L42.1486 42.6298ZM40.5362 42.8777H41.4895V40.8777H40.5362V42.8777ZM39.3842 42.2545L39.9278 42.6713L41.1447 41.0841L40.6011 40.6673L39.3842 42.2545ZM38.9926 40.9418V41.4609H40.9926V40.9418H38.9926ZM38.9926 40.7152V40.9418H40.9926V40.7152H38.9926ZM39.1631 41.3179L39.3336 41.4673L40.6517 39.963L40.4812 39.8137L39.1631 41.3179ZM38.3984 40.6478L39.1631 41.3179L40.4812 39.8136L39.7164 39.1436L38.3984 40.6478ZM38.0424 40.3359L38.3984 40.6478L39.7164 39.1436L39.3605 38.8317L38.0424 40.3359ZM39.0853 40.6214L39.4163 40.2831L37.9866 38.8845L37.6556 39.2228L39.0853 40.6214ZM38.4298 41.2915L39.0853 40.6214L37.6556 39.2228L37.0001 39.8929L38.4298 41.2915ZM38.2873 41.4372L38.4298 41.2915L37.0001 39.8929L36.8576 40.0387L38.2873 41.4372ZM38.5724 40.9418V40.7379H36.5724V40.9418H38.5724ZM38.5724 41.8991V40.9418H36.5724V41.8991H38.5724ZM38.5724 42.0807V41.8991H36.5724V42.0807H38.5724ZM38.4558 41.5782L38.3393 41.4389L36.8055 42.7225L36.9221 42.8618L38.4558 41.5782ZM39.6576 43.0141L38.4558 41.5782L36.9221 42.8618L38.1238 44.2977L39.6576 43.0141ZM39.7458 43.1195L39.6576 43.0141L38.1238 44.2977L38.2121 44.4032L39.7458 43.1195ZM39.4395 42.8631L39.3097 42.8176L38.6482 44.7051L38.778 44.7506L39.4395 42.8631ZM40.1974 43.1287L39.4395 42.8631L38.778 44.7506L39.5359 45.0162L40.1974 43.1287ZM40.8666 44.9623V44.0725H38.8666V44.9623H40.8666ZM40.8666 45.189V44.9623H38.8666V45.189H40.8666ZM40.6961 44.5863L40.5256 44.4369L39.2076 45.9411L39.3781 46.0905L40.6961 44.5863ZM41.4609 45.2563L40.6961 44.5863L39.3781 46.0905L40.1428 46.7606L41.4609 45.2563ZM41.8345 45.5838L41.4609 45.2563L40.1428 46.7606L40.5165 47.088L41.8345 45.5838ZM40.7574 45.3005L40.4276 45.672L41.9234 46.9997L42.2532 46.6282L40.7574 45.3005ZM41.5222 44.439L40.7574 45.3005L42.2532 46.6282L43.0179 45.7666L41.5222 44.439ZM41.6482 44.2969L41.5221 44.439L43.0179 45.7666L43.144 45.6246L41.6482 44.2969ZM41.3961 44.7709V44.9608H43.3961V44.7709H41.3961ZM41.3961 44.2114V44.7709H43.3961V44.2114H41.3961ZM43.3021 42.6052L41.9307 43.3262L42.8614 45.0965L44.2328 44.3755L43.3021 42.6052ZM43.4314 42.5373L43.3021 42.6052L44.2328 44.3755L44.3621 44.3076L43.4314 42.5373ZM43.1005 42.8L43.0282 42.9268L44.7653 43.918L44.8376 43.7912L43.1005 42.8ZM43.756 41.6513L43.1005 42.8L44.8376 43.7912L45.4931 42.6425L43.756 41.6513ZM43.8218 41.5361L43.756 41.6513L45.4931 42.6425L45.5588 42.5273L43.8218 41.5361ZM43.6903 41.8991V42.0317H45.6903V41.8991H43.6903ZM43.6903 40.4632V41.8991H45.6903V40.4632H43.6903ZM43.6903 40.3475V40.4632H45.6903V40.3475H43.6903ZM43.7411 40.6829L43.792 40.7868L45.5886 39.9081L45.5378 39.8041L43.7411 40.6829ZM43.0857 39.3427L43.7411 40.6829L45.5378 39.8041L44.8823 38.464L43.0857 39.3427ZM43.0138 39.1959L43.0857 39.3427L44.8823 38.464L44.8105 38.3172L43.0138 39.1959ZM43.3021 39.5656L43.4468 39.6417L44.3775 37.8714L44.2328 37.7953L43.3021 39.5656ZM41.6634 38.7041L43.3021 39.5656L44.2328 37.7953L42.5941 36.9338L41.6634 38.7041ZM41.5969 38.6691L41.6634 38.7041L42.5941 36.9338L42.5276 36.8988L41.5969 38.6691ZM41.8038 38.7529L41.8777 38.7668L42.2468 36.8011L42.1729 36.7873L41.8038 38.7529ZM40.4087 38.491L41.8038 38.7529L42.1729 36.7873L40.7778 36.5253L40.4087 38.491ZM39.3336 37.734L39.9343 38.2603L41.2523 36.756L40.6517 36.2297L39.3336 37.734ZM38.9926 36.4779V36.9818H40.9926V36.4779H38.9926ZM39.8957 35.2333L39.3336 35.7258L40.6517 37.23L41.2137 36.7376L39.8957 35.2333ZM41.7243 34.9854H40.5547V36.9854H41.7243V34.9854ZM42.9938 35.7066L42.3388 35.1965L41.1099 36.7744L41.7648 37.2845L42.9938 35.7066ZM43.3793 37.2085V36.4956H41.3793V37.2085H43.3793ZM43.3793 37.4352V37.2085H41.3793V37.4352H43.3793ZM43.2088 36.8325L43.0383 36.6831L41.7203 38.1873L41.8908 38.3367L43.2088 36.8325ZM43.8643 37.4068L43.2088 36.8325L41.8908 38.3367L42.5463 38.911L43.8643 37.4068ZM44.1938 37.6955L43.8643 37.4068L42.5463 38.911L42.8758 39.1998L44.1938 37.6955ZM43.2053 37.4068L42.8758 37.6955L44.1938 39.1998L44.5233 38.911L43.2053 37.4068ZM43.8608 36.8325L43.2053 37.4068L44.5233 38.911L45.1788 38.3367L43.8608 36.8325ZM44.0313 36.6831L43.8608 36.8325L45.1788 38.3367L45.3493 38.1873L44.0313 36.6831ZM43.6903 37.2085V37.4352H45.6903V37.2085H43.6903ZM43.6903 35.8683V37.2085H45.6903V35.8683H43.6903ZM43.6903 35.7254V35.8683H45.6903V35.7254H43.6903ZM43.7658 36.1326L43.8413 36.2539L45.5392 35.197L45.4637 35.0756L43.7658 36.1326ZM43.1103 35.0796L43.7658 36.1326L45.4637 35.0756L44.8082 34.0226L43.1103 35.0796ZM43.0319 34.9537L43.1103 35.0796L44.8082 34.0226L44.7298 33.8967L43.0319 34.9537ZM43.3231 35.2683L43.4575 35.3311L44.3043 33.5192L44.1699 33.4564L43.3231 35.2683ZM41.9727 34.6373L43.3231 35.2683L44.1699 33.4564L42.8195 32.8254L41.9727 34.6373ZM41.3961 32.9966V33.7313H43.3961V32.9966H41.3961ZM41.3961 32.7468V32.9966H43.3961V32.7468H41.3961ZM41.5958 33.3964L41.7956 33.5464L42.9966 31.9472L42.7969 31.7972L41.5958 33.3964ZM40.8311 32.822L41.5958 33.3964L42.7969 31.7972L42.0322 31.2228L40.8311 32.822ZM39.8666 33.2464V34.0496H41.8666V33.2464H39.8666ZM40.5308 32.2479L40.2661 32.4468L41.4672 34.0459L41.7319 33.8471L40.5308 32.2479ZM41.9966 32.4468L41.7319 32.2479L40.5308 33.8471L40.7956 34.0459L41.9966 32.4468ZM42.3961 34.0496V33.2464H40.3961V34.0496H42.3961ZM42.3961 34.3678V34.0496H40.3961V34.3678H42.3961ZM42.1078 33.5966L41.8195 33.4618L40.9727 35.2737L41.261 35.4085L42.1078 33.5966ZM43.6121 34.2996L42.1078 33.5966L41.261 35.4085L42.7654 36.1115L43.6121 34.2996ZM44.5392 35.4828L44.0377 34.6771L42.3398 35.734L42.8413 36.5397L44.5392 35.4828ZM44.6903 36.9818V36.0113H42.6903V36.9818H44.6903ZM44.1938 37.8702L44.3493 37.734L43.0313 36.2297L42.8758 36.366L44.1938 37.8702ZM42.7203 37.734L42.8758 37.8702L44.1938 36.366L44.0383 36.2297L42.7203 37.734ZM42.3793 36.2513V36.9818H44.3793V36.2513H42.3793ZM42.3793 36.0069V36.2513H44.3793V36.0069H42.3793ZM42.5721 36.6457L42.7648 36.7959L43.9938 35.218L43.801 35.0678L42.5721 36.6457ZM41.5888 35.8799L42.5721 36.6457L43.801 35.0678L42.8178 34.302L41.5888 35.8799ZM41.4534 35.7744L41.5888 35.8799L42.8178 34.302L42.6823 34.1965L41.4534 35.7744ZM41.8961 35.9854H42.0678V33.9854H41.8961V35.9854ZM40.3666 35.9854H41.8961V33.9854H40.3666V35.9854ZM40.1785 35.9854H40.3666V33.9854H40.1785V35.9854ZM40.6961 35.8615L40.8376 35.7376L39.5195 34.2333L39.3781 34.3573L40.6961 35.8615ZM39.8221 36.6273L40.6961 35.8615L39.3781 34.3573L38.5041 35.1231L39.8221 36.6273ZM39.6517 36.7767L39.8221 36.6273L38.5041 35.1231L38.3336 35.2725L39.6517 36.7767ZM39.9926 36.2513V36.0246H37.9926V36.2513H39.9926ZM39.9926 37.2085V36.2513H37.9926V37.2085H39.9926ZM39.9926 37.4352V37.2085H37.9926V37.4352H39.9926ZM39.8221 36.8325L39.6517 36.6831L38.3336 38.1873L38.5041 38.3367L39.8221 36.8325ZM40.6961 37.5983L39.8221 36.8325L38.5041 38.3367L39.3781 39.1025L40.6961 37.5983ZM40.799 37.6884L40.6961 37.5983L39.3781 39.1025L39.4809 39.1926L40.799 37.6884ZM40.4589 37.4829L40.3245 37.4577L39.9554 39.4233L40.0898 39.4486L40.4589 37.4829ZM41.9145 37.7562L40.4589 37.4829L40.0898 39.4486L41.5454 39.7219L41.9145 37.7562ZM43.6228 38.6044L42.1953 37.8539L41.2646 39.6242L42.6921 40.3747L43.6228 38.6044ZM44.5886 40.1396L44.0558 39.0502L42.2592 39.9289L42.792 41.0183L44.5886 40.1396ZM44.6903 41.7665V40.5789H42.6903V41.7665H44.6903ZM44.0414 43.1688L44.5588 42.2621L42.8218 41.2709L42.3044 42.1776L44.0414 43.1688ZM42.1288 44.3519L43.6382 43.5583L42.7076 41.7881L41.1981 42.5816L42.1288 44.3519ZM41.8614 44.4924L42.1288 44.3519L41.1981 42.5816L40.9307 42.7222L41.8614 44.4924ZM42.3961 43.9093V43.6073H40.3961V43.9093H42.3961ZM42.3961 44.581V43.9093H40.3961V44.581H42.3961ZM41.8351 45.5928L42.144 45.2448L40.6482 43.9171L40.3393 44.2651L41.8351 45.5928ZM40.2076 45.4878L40.4282 45.6811L41.7462 44.1768L41.5256 43.9835L40.2076 45.4878ZM39.8666 43.7179V44.7357H41.8666V43.7179H39.8666ZM39.8666 43.3633V43.7179H41.8666V43.3633H39.8666ZM40.2012 44.1897L40.5358 44.307L41.1974 42.4196L40.8628 42.3023L40.2012 44.1897ZM39.2385 43.8523L40.2012 44.1897L40.8628 42.3023L39.9001 41.9649L39.2385 43.8523ZM37.8055 42.3593L38.8024 43.5504L40.3362 42.2668L39.3393 41.0757L37.8055 42.3593ZM37.5724 41.1457V41.7175H39.5724V41.1457H37.5724ZM38.0395 40.2604L37.8576 40.4464L39.2872 41.845L39.4692 41.659L38.0395 40.2604ZM39.6517 40.4164L39.4134 40.2076L38.0953 41.7118L38.3336 41.9206L39.6517 40.4164ZM39.9926 41.7076V41.1685H37.9926V41.7076H39.9926ZM39.9926 41.9543V41.7076H37.9926V41.9543H39.9926ZM39.7968 41.3108L39.6011 41.1607L38.3842 42.7479L38.58 42.898L39.7968 41.3108ZM40.6708 41.9809L39.7969 41.3108L38.58 42.898L39.4539 43.5681L40.6708 41.9809ZM40.8054 42.0841L40.6708 41.9809L39.4539 43.5681L39.5886 43.6713L40.8054 42.0841ZM40.3666 41.8777H40.197V43.8777H40.3666V41.8777ZM41.6776 41.8777H40.3666V43.8777H41.6776V41.8777ZM41.8657 41.8777H41.6776V43.8777H41.8657V41.8777ZM41.3481 42.0017L41.2066 42.1256L42.5247 43.6298L42.6661 43.5059L41.3481 42.0017ZM42.3313 41.1401L41.3481 42.0017L42.6661 43.5059L43.6494 42.6444L42.3313 41.1401ZM42.5018 40.9907L42.3313 41.1401L43.6494 42.6444L43.8199 42.495L42.5018 40.9907ZM42.1608 41.5162V41.7429H44.1608V41.5162H42.1608ZM42.1608 40.4632V41.5162H44.1608V40.4632H42.1608ZM42.1608 40.2189V40.4632H44.1608V40.2189H42.1608ZM42.3536 40.8577L42.5463 41.0078L43.7753 39.4299L43.5825 39.2798L42.3536 40.8577ZM41.3704 40.0919L42.3536 40.8577L43.5825 39.2798L42.5993 38.514L41.3704 40.0919ZM41.2661 40.0107L41.3703 40.0919L42.5993 38.514L42.4951 38.4328L41.2661 40.0107ZM41.6053 40.1921L41.7361 40.2112L42.0251 38.2322L41.8943 38.2131L41.6053 40.1921ZM40.379 40.0131L41.6053 40.1921L41.8943 38.2131L40.668 38.034L40.379 40.0131ZM39.1036 39.4068L40.0582 39.9087L40.9889 38.1384L40.0342 37.6365L39.1036 39.4068ZM37.8688 38.2799L38.8779 39.2445L40.2599 37.7988L39.2507 36.8341L37.8688 38.2799ZM37.4756 36.1871L37.5615 37.617L39.5579 37.4971L39.4721 36.0672L37.4756 36.1871ZM38.7816 34.1511L37.6951 35.4998L39.2526 36.7545L40.3391 35.4058L38.7816 34.1511ZM40.2395 33.566L39.3061 33.8113L39.8145 35.7456L40.748 35.5003L40.2395 33.566ZM40.6124 33.468L40.2395 33.566L40.748 35.5003L41.1208 35.4022L40.6124 33.468ZM39.8666 34.0496V34.4351H41.8666V34.0496H39.8666Z" fill="#050A0E" mask="url(#path-2-outside-1_137_1169)"/>
<path d="M8.41113 70.2964C8.41113 70.3966 8.39323 70.4897 8.35742 70.5757C8.32161 70.6616 8.27148 70.7368 8.20703 70.8013C8.14616 70.8621 8.07275 70.9105 7.98682 70.9463C7.90088 70.9821 7.80778 71 7.70752 71H2.66943C2.54053 71 2.40088 70.9857 2.25049 70.957C2.10368 70.9248 1.95687 70.8765 1.81006 70.812C1.66683 70.7476 1.52897 70.6652 1.39648 70.5649C1.264 70.4611 1.14583 70.3376 1.04199 70.1943C0.941732 70.0475 0.861165 69.8792 0.800293 69.6895C0.739421 69.4961 0.708984 69.2795 0.708984 69.0396V65.2583C0.708984 65.1294 0.723307 64.9915 0.751953 64.8447C0.78418 64.6943 0.83252 64.5475 0.896973 64.4043C0.961426 64.2575 1.04557 64.1178 1.14941 63.9854C1.25326 63.8529 1.37679 63.7365 1.52002 63.6362C1.66683 63.5324 1.83512 63.45 2.0249 63.3892C2.21468 63.3283 2.42952 63.2979 2.66943 63.2979H8.34668V64.6943H2.66943C2.48682 64.6943 2.34717 64.7427 2.25049 64.8394C2.15381 64.936 2.10547 65.0793 2.10547 65.269V69.0396C2.10547 69.2186 2.15381 69.3582 2.25049 69.4585C2.35075 69.5552 2.4904 69.6035 2.66943 69.6035H7.01465V67.8525H3.29785V66.4453H7.70752C7.80778 66.4453 7.90088 66.465 7.98682 66.5044C8.07275 66.5402 8.14616 66.5903 8.20703 66.6548C8.27148 66.7192 8.32161 66.7944 8.35742 66.8804C8.39323 66.9627 8.41113 67.0522 8.41113 67.1489V70.2964ZM15.7051 69.0771C15.7051 69.2705 15.6711 69.48 15.603 69.7056C15.535 69.9276 15.424 70.1353 15.27 70.3286C15.1196 70.5184 14.9209 70.6777 14.6738 70.8066C14.4303 70.9355 14.1331 71 13.7822 71H11.2632C11.0698 71 10.8604 70.966 10.6348 70.8979C10.4128 70.8299 10.2051 70.7207 10.0117 70.5703C9.82194 70.4163 9.6626 70.2176 9.53369 69.9741C9.40479 69.7271 9.34033 69.4281 9.34033 69.0771C9.34033 68.8838 9.37435 68.6743 9.44238 68.4487C9.51042 68.2231 9.61963 68.0155 9.77002 67.8257C9.92399 67.6323 10.1227 67.4712 10.3662 67.3423C10.6133 67.2134 10.9123 67.1489 11.2632 67.1489H13.7822V68.481H11.2632C11.0734 68.481 10.9266 68.54 10.8228 68.6582C10.7189 68.7728 10.667 68.916 10.667 69.0879C10.667 69.2705 10.7261 69.4137 10.8442 69.5176C10.966 69.6178 11.1092 69.668 11.2739 69.668H13.7822C13.972 69.668 14.1188 69.6107 14.2227 69.4961C14.3265 69.3815 14.3784 69.2383 14.3784 69.0664V67.1167C14.3784 66.9341 14.3211 66.7891 14.2065 66.6816C14.0955 66.5742 13.9541 66.5205 13.7822 66.5205H10.7153V65.1938H13.7822C13.9756 65.1938 14.1833 65.2279 14.4053 65.2959C14.6309 65.3639 14.8385 65.4749 15.0283 65.6289C15.2217 65.7793 15.3828 65.978 15.5117 66.2251C15.6406 66.4686 15.7051 66.7658 15.7051 67.1167V69.0771ZM22.0806 71H20.6841V67.1489C20.6841 66.9663 20.6357 66.8285 20.5391 66.7354C20.4424 66.6387 20.2992 66.5903 20.1094 66.5903H18.2939V71H16.8975V65.8867C16.8975 65.79 16.9154 65.7005 16.9512 65.6182C16.987 65.5322 17.0371 65.4588 17.1016 65.3979C17.166 65.3335 17.2412 65.2834 17.3271 65.2476C17.4131 65.2118 17.5044 65.1938 17.6011 65.1938H20.1201C20.3135 65.1938 20.5212 65.2279 20.7432 65.2959C20.9652 65.3639 21.1764 65.4731 21.377 65.6235V65.1938H23.2676C23.4001 65.1938 23.5397 65.21 23.6865 65.2422C23.8333 65.2708 23.9784 65.3174 24.1216 65.3818C24.2684 65.4463 24.408 65.5304 24.5405 65.6343C24.673 65.7345 24.7894 65.8581 24.8896 66.0049C24.9899 66.1481 25.0705 66.3146 25.1313 66.5044C25.1922 66.6942 25.2227 66.909 25.2227 67.1489V71H23.8262V67.1489C23.8262 66.9663 23.7796 66.8285 23.6865 66.7354C23.597 66.6387 23.4574 66.5903 23.2676 66.5903H22.0107C22.0573 66.7622 22.0806 66.9484 22.0806 67.1489V71ZM32.7583 67.1167C32.7583 67.3101 32.7243 67.5195 32.6562 67.7451C32.5882 67.9671 32.4772 68.1748 32.3232 68.3682C32.1729 68.5579 31.9741 68.7173 31.7271 68.8462C31.4836 68.9751 31.1864 69.0396 30.8354 69.0396H28.3164V67.7129H30.8354C31.0252 67.7129 31.172 67.6556 31.2759 67.541C31.3797 67.4229 31.4316 67.2778 31.4316 67.106C31.4316 66.9233 31.3726 66.7801 31.2544 66.6763C31.1398 66.5724 31.0002 66.5205 30.8354 66.5205H28.3164C28.1266 66.5205 27.9798 66.5796 27.876 66.6978C27.7721 66.8123 27.7202 66.9556 27.7202 67.1274V69.0771C27.7202 69.2633 27.7775 69.4084 27.8921 69.5122C28.0103 69.616 28.1553 69.668 28.3271 69.668H30.8354V71H28.3164C28.123 71 27.9136 70.966 27.688 70.8979C27.466 70.8299 27.2583 70.7207 27.0649 70.5703C26.8752 70.4163 26.7158 70.2176 26.5869 69.9741C26.458 69.7271 26.3936 69.4281 26.3936 69.0771V67.1167C26.3936 66.9233 26.4276 66.7157 26.4956 66.4937C26.5636 66.2681 26.6729 66.0604 26.8232 65.8706C26.9772 65.6772 27.1759 65.5161 27.4194 65.3872C27.6665 65.2583 27.9655 65.1938 28.3164 65.1938H30.8354C31.0288 65.1938 31.2365 65.2279 31.4585 65.2959C31.6841 65.3639 31.8918 65.4749 32.0815 65.6289C32.2749 65.7793 32.436 65.978 32.5649 66.2251C32.6938 66.4686 32.7583 66.7658 32.7583 67.1167ZM38.8384 64.0713H35.6909C35.5011 64.0713 35.3579 64.1196 35.2612 64.2163C35.1646 64.3094 35.1162 64.4473 35.1162 64.6299V71H33.7197V64.6299C33.7197 64.39 33.7502 64.1751 33.811 63.9854C33.8719 63.7956 33.9525 63.6291 34.0527 63.4858C34.1566 63.339 34.2747 63.2155 34.4072 63.1152C34.5397 63.0114 34.6776 62.9272 34.8208 62.8628C34.9676 62.7983 35.1144 62.7518 35.2612 62.7231C35.408 62.6909 35.5477 62.6748 35.6802 62.6748H38.8384V64.0713ZM40.8472 71H39.4507L39.4399 66.5903H35.6802V65.1938H40.8579L40.8472 71ZM40.8472 64.0713H39.4507V62.6963H40.8472V64.0713ZM47.2656 66.5903H44.1235C43.9338 66.5903 43.7905 66.6387 43.6938 66.7354C43.5972 66.8285 43.5488 66.9663 43.5488 67.1489V71H42.1523V67.1489C42.1523 66.909 42.1828 66.6942 42.2437 66.5044C42.3045 66.3146 42.3851 66.1481 42.4854 66.0049C42.5892 65.8581 42.7074 65.7345 42.8398 65.6343C42.9723 65.5304 43.1102 65.4463 43.2534 65.3818C43.4002 65.3174 43.547 65.2708 43.6938 65.2422C43.8442 65.21 43.9839 65.1938 44.1128 65.1938H47.2656V66.5903ZM54.4146 67.1167C54.4146 67.3101 54.3805 67.5195 54.3125 67.7451C54.2445 67.9671 54.1335 68.1748 53.9795 68.3682C53.8291 68.5579 53.6304 68.7173 53.3833 68.8462C53.1398 68.9751 52.8426 69.0396 52.4917 69.0396H49.9727V67.7129H52.4917C52.6815 67.7129 52.8283 67.6556 52.9321 67.541C53.036 67.4229 53.0879 67.2778 53.0879 67.106C53.0879 66.9233 53.0288 66.7801 52.9106 66.6763C52.7961 66.5724 52.6564 66.5205 52.4917 66.5205H49.9727C49.7829 66.5205 49.6361 66.5796 49.5322 66.6978C49.4284 66.8123 49.3765 66.9556 49.3765 67.1274V69.0771C49.3765 69.2633 49.4338 69.4084 49.5483 69.5122C49.6665 69.616 49.8115 69.668 49.9834 69.668H52.4917V71H49.9727C49.7793 71 49.5698 70.966 49.3442 70.8979C49.1222 70.8299 48.9146 70.7207 48.7212 70.5703C48.5314 70.4163 48.3721 70.2176 48.2432 69.9741C48.1143 69.7271 48.0498 69.4281 48.0498 69.0771V67.1167C48.0498 66.9233 48.0838 66.7157 48.1519 66.4937C48.2199 66.2681 48.3291 66.0604 48.4795 65.8706C48.6335 65.6772 48.8322 65.5161 49.0757 65.3872C49.3228 65.2583 49.6217 65.1938 49.9727 65.1938H52.4917C52.6851 65.1938 52.8927 65.2279 53.1147 65.2959C53.3403 65.3639 53.548 65.4749 53.7378 65.6289C53.9312 65.7793 54.0923 65.978 54.2212 66.2251C54.3501 66.4686 54.4146 66.7658 54.4146 67.1167ZM62.9116 68.7334C62.9116 69.0091 62.8758 69.258 62.8042 69.48C62.7362 69.6984 62.6449 69.8918 62.5303 70.0601C62.4157 70.2284 62.2814 70.3716 62.1274 70.4897C61.9735 70.6079 61.8141 70.7046 61.6494 70.7798C61.4847 70.855 61.3164 70.9105 61.1445 70.9463C60.9762 70.9821 60.8169 71 60.6665 71H55.2793V69.6035H60.6665C60.9351 69.6035 61.1427 69.5247 61.2896 69.3672C61.4399 69.2096 61.5151 68.9984 61.5151 68.7334C61.5151 68.6045 61.4954 68.4863 61.4561 68.3789C61.4167 68.2715 61.3594 68.1784 61.2842 68.0996C61.2126 68.0208 61.123 67.96 61.0156 67.917C60.9118 67.874 60.7954 67.8525 60.6665 67.8525H57.4546C57.229 67.8525 56.9855 67.8132 56.7241 67.7344C56.4627 67.652 56.2192 67.5213 55.9937 67.3423C55.7716 67.1632 55.5854 66.9287 55.4351 66.6387C55.2882 66.3486 55.2148 65.9941 55.2148 65.5752C55.2148 65.1562 55.2882 64.8035 55.4351 64.5171C55.5854 64.2271 55.7716 63.9925 55.9937 63.8135C56.2192 63.6309 56.4627 63.5002 56.7241 63.4214C56.9855 63.339 57.229 63.2979 57.4546 63.2979H62.208V64.6943H57.4546C57.1896 64.6943 56.9819 64.7749 56.8315 64.936C56.6847 65.0972 56.6113 65.3102 56.6113 65.5752C56.6113 65.8438 56.6847 66.0568 56.8315 66.2144C56.9819 66.3683 57.1896 66.4453 57.4546 66.4453H60.6665H60.6772C60.8276 66.4489 60.987 66.4704 61.1553 66.5098C61.3236 66.5456 61.4901 66.6029 61.6548 66.6816C61.8231 66.7604 61.9824 66.8607 62.1328 66.9824C62.2832 67.1006 62.4157 67.2438 62.5303 67.4121C62.6484 67.5804 62.7415 67.7738 62.8096 67.9922C62.8776 68.2106 62.9116 68.4577 62.9116 68.7334ZM69.9102 69.0771C69.9102 69.2705 69.8761 69.48 69.8081 69.7056C69.7401 69.9276 69.6291 70.1353 69.4751 70.3286C69.3247 70.5184 69.126 70.6777 68.8789 70.8066C68.6354 70.9355 68.3382 71 67.9873 71H65.4683C65.2749 71 65.0654 70.966 64.8398 70.8979C64.6178 70.8299 64.4102 70.7207 64.2168 70.5703C64.027 70.4163 63.8677 70.2176 63.7388 69.9741C63.6099 69.7271 63.5454 69.4281 63.5454 69.0771C63.5454 68.8838 63.5794 68.6743 63.6475 68.4487C63.7155 68.2231 63.8247 68.0155 63.9751 67.8257C64.1291 67.6323 64.3278 67.4712 64.5713 67.3423C64.8184 67.2134 65.1174 67.1489 65.4683 67.1489H67.9873V68.481H65.4683C65.2785 68.481 65.1317 68.54 65.0278 68.6582C64.924 68.7728 64.8721 68.916 64.8721 69.0879C64.8721 69.2705 64.9312 69.4137 65.0493 69.5176C65.1711 69.6178 65.3143 69.668 65.479 69.668H67.9873C68.1771 69.668 68.3239 69.6107 68.4277 69.4961C68.5316 69.3815 68.5835 69.2383 68.5835 69.0664V67.1167C68.5835 66.9341 68.5262 66.7891 68.4116 66.6816C68.3006 66.5742 68.1592 66.5205 67.9873 66.5205H64.9204V65.1938H67.9873C68.1807 65.1938 68.3883 65.2279 68.6104 65.2959C68.8359 65.3639 69.0436 65.4749 69.2334 65.6289C69.4268 65.7793 69.5879 65.978 69.7168 66.2251C69.8457 66.4686 69.9102 66.7658 69.9102 67.1167V69.0771ZM73.6538 71H73.0308C72.8302 71 72.6154 70.966 72.3862 70.8979C72.1606 70.8299 71.9494 70.7189 71.7524 70.5649C71.5555 70.4074 71.3926 70.2051 71.2637 69.958C71.1348 69.7074 71.0703 69.4012 71.0703 69.0396V62.7393H72.4668V69.0396C72.4668 69.2114 72.5205 69.3493 72.6279 69.4531C72.7354 69.5534 72.8696 69.6035 73.0308 69.6035H73.6538V71ZM80.7974 67.1167C80.7974 67.3101 80.7633 67.5195 80.6953 67.7451C80.6273 67.9671 80.5163 68.1748 80.3623 68.3682C80.2119 68.5579 80.0132 68.7173 79.7661 68.8462C79.5226 68.9751 79.2254 69.0396 78.8745 69.0396H76.3555V67.7129H78.8745C79.0643 67.7129 79.2111 67.6556 79.3149 67.541C79.4188 67.4229 79.4707 67.2778 79.4707 67.106C79.4707 66.9233 79.4116 66.7801 79.2935 66.6763C79.1789 66.5724 79.0392 66.5205 78.8745 66.5205H76.3555C76.1657 66.5205 76.0189 66.5796 75.915 66.6978C75.8112 66.8123 75.7593 66.9556 75.7593 67.1274V69.0771C75.7593 69.2633 75.8166 69.4084 75.9312 69.5122C76.0493 69.616 76.1943 69.668 76.3662 69.668H78.8745V71H76.3555C76.1621 71 75.9526 70.966 75.7271 70.8979C75.505 70.8299 75.2974 70.7207 75.104 70.5703C74.9142 70.4163 74.7549 70.2176 74.626 69.9741C74.4971 69.7271 74.4326 69.4281 74.4326 69.0771V67.1167C74.4326 66.9233 74.4666 66.7157 74.5347 66.4937C74.6027 66.2681 74.7119 66.0604 74.8623 65.8706C75.0163 65.6772 75.215 65.5161 75.4585 65.3872C75.7056 65.2583 76.0046 65.1938 76.3555 65.1938H78.8745C79.0679 65.1938 79.2756 65.2279 79.4976 65.2959C79.7231 65.3639 79.9308 65.4749 80.1206 65.6289C80.314 65.7793 80.4751 65.978 80.604 66.2251C80.7329 66.4686 80.7974 66.7658 80.7974 67.1167Z" fill="#00F0FF"/>
</svg>
