<svg width="45" height="58" viewBox="0 0 45 58" fill="none" xmlns="http://www.w3.org/2000/svg">
<path fill-rule="evenodd" clip-rule="evenodd" d="M0.388172 38.1793L0.283032 38.8478L0.605503 39.4429L8.00747 53.1014L8.40676 53.8382L9.212 54.0702L21.7689 57.6891L22.3447 57.8551L22.9169 57.6771L34.5486 54.0581L35.2465 53.841L35.64 53.225L44.3637 39.5665L44.6782 39.0742V38.49V31.0187V30.3012L44.2221 29.7473L33.6479 16.906L30.9615 13.6437L30.1419 17.7895L29.3893 21.5965L28.7688 21.012L29.4686 13.6983L29.4777 13.6032V13.5078V7.08713V6.34507L28.9937 5.7826L26.4823 2.86412L24.6663 0.753776L23.2461 3.14842L18.9411 10.4072L13.9854 16.9724L13.8013 17.2163L13.6985 17.504L11.4686 23.7406L9.55912 22.2174L7.95324 20.9363L6.71562 22.5759L3.01463 27.4789L2.78868 27.7783L2.68653 28.1391L1.10039 33.7426L1.06771 33.8581L1.04906 33.9767L0.388172 38.1793ZM30.9235 24.1486L31.1079 23.2156L31.6024 20.7145L32.104 18.1773L33.748 20.1738L38.4008 25.8243L30.9235 24.1486ZM30.1035 25.0171L30.65 25.5319L30.7295 25.1299L38.303 26.8271L36.0769 32.627L25.6307 26.5788L30.1035 25.0171ZM29.2832 24.2443L25.4718 25.5751L27.2041 22.2856L28.9314 23.9128L29.2832 24.2443ZM26.8038 20.5512L27.2761 15.6145L23.8049 17.988L26.8038 20.5512ZM27.3676 14.6584L27.4777 13.5078V7.08713L26.3429 5.76833L25.434 4.71213L24.9492 10.8137L27.3676 14.6584ZM25.0742 4.29395L24.9663 4.16865L24.9002 4.28013L25.0742 4.29395ZM24.3979 5.12712L23.8898 5.98383L20.6045 11.5232L15.5817 18.1773L14.214 22.0024L19.3735 18.0152L19.4782 17.9343L19.6093 17.9157L22.798 17.4651L26.4017 15.001L24.0144 11.2057L23.9261 11.0653L23.9392 10.8999L24.3979 5.12712ZM13.6153 23.677L13.6404 23.7095L19.8802 18.8874L22.8303 18.4705L26.4526 21.5666L24.1136 26.0081L15.7684 27.2365L12.7463 26.1073L13.1212 25.0589L13.6153 23.677ZM12.4081 27.0485L12.4094 27.0495L12.4096 27.049L15.0796 28.0467L12.9478 34.1135L7.97385 35.5778L4.32423 30.7428L12.2991 27.0077L12.4081 27.0485ZM11.4634 26.2949L10.7568 25.7312L9.87593 25.0285L8.3119 23.7808L7.10654 25.3777L4.61092 28.6839L4.34319 29.6297L11.4634 26.2949ZM3.76716 31.6647L3.02478 34.2873L2.36389 38.49L3.49468 40.5765L7.14658 36.1417L3.76716 31.6647ZM4.26831 42.0041L9.76586 52.1484L9.90497 52.1885L17.1714 49.7819L13.5554 44.5279L4.26831 42.0041ZM11.6057 52.6787L21.0354 55.3963L17.7618 50.6398L11.6057 52.6787ZM24.0226 55.2385L33.9544 52.1484L38.3936 45.1983L24.0226 55.2385ZM39.9881 42.7017L42.6782 38.49V31.0187L39.3272 26.9493L36.8648 33.365L39.9881 42.7017ZM16.0855 28.2006L23.9376 27.0448V33.1352L19.0947 37.6264L13.9374 34.3137L16.0855 28.2006ZM14.4996 44.1359L19.2752 38.8636L28.8834 43.2677L22.0229 55.0672L18.3728 49.7637L14.4996 44.1359ZM23.6297 54.2931L30.0146 43.3117L36.1754 34.4564L39.1775 43.4307L23.6297 54.2931ZM35.6129 33.5139L24.9376 27.3331V33.3534V33.5717L24.7776 33.7201L20.0395 38.1139L29.4209 42.4141L35.6129 33.5139ZM18.3837 38.3582L13.6986 43.5305L4.4314 41.0121L8.07162 36.5915L13.2567 35.065L18.3837 38.3582Z" fill="#00F0FF"/>
<mask id="path-2-outside-1_135_1394" maskUnits="userSpaceOnUse" x="12.4247" y="27.5504" width="20" height="23" fill="black">
<rect fill="white" x="12.4247" y="27.5504" width="20" height="23"/>
<path fill-rule="evenodd" clip-rule="evenodd" d="M31.401 34.3367L22.4129 29.5504L13.4247 34.3367V43.9093L22.4129 48.6956L31.401 43.9093V34.3367ZM22.9316 32.0224L22.6314 31.7969L22.3311 32.0224L21.5663 32.5968L21.3666 32.7468V32.9966V33.664L20.647 33.8532L20.4879 33.895L20.3848 34.0231L19.0738 35.6504L18.9525 35.801L18.9641 35.994L19.0733 37.8128L19.0851 38.0087L19.2269 38.1443L20.4286 39.293L20.4794 39.3415L20.5415 39.3741L21.6339 39.9485L21.7097 39.9883L21.7944 40.0007L22.9746 40.173L23.6608 40.7075V41.2895L22.9895 41.8777H22.0362L21.4926 41.4609V40.9418V40.7152L21.3221 40.5658L20.5574 39.8957L20.2014 39.5838L19.8705 39.9221L19.215 40.5922L19.0724 40.7379V40.9418V41.8991V42.0807L19.189 42.22L20.3907 43.6559L20.479 43.7613L20.6088 43.8068L21.3666 44.0725V44.9623V45.189L21.5371 45.3384L22.3018 46.0085L22.6755 46.3359L23.0053 45.9643L23.77 45.1028L23.8961 44.9608V44.7709V44.2114L25.2675 43.4904L25.3967 43.4224L25.4691 43.2956L26.1246 42.1469L26.1903 42.0317V41.8991V40.4632V40.3475L26.1395 40.2435L25.484 38.9033L25.4122 38.7565L25.2675 38.6805L23.6288 37.8189L23.5622 37.784L23.4884 37.7701L22.0933 37.5081L21.4926 36.9818V36.4779L22.0547 35.9854H23.2243L23.8793 36.4956V37.2085V37.4352L24.0498 37.5846L24.7053 38.1589L25.0348 38.4477L25.3643 38.1589L26.0198 37.5846L26.1903 37.4352V37.2085V35.8683V35.7254L26.1148 35.6041L25.4593 34.5511L25.3809 34.4252L25.2465 34.3624L23.8961 33.7313V32.9966V32.7468L23.6964 32.5968L22.9316 32.0224ZM22.3666 34.0495V33.2463L22.6314 33.0475L22.8961 33.2463V34.0495V34.3678L23.1844 34.5025L24.6887 35.2055L25.1903 36.0113V36.9818L25.0348 37.1181L24.8793 36.9818V36.2512V36.0069L24.6866 35.8568L23.7033 35.091L23.5678 34.9854H23.3961H21.8666H21.6785L21.5371 35.1094L20.6631 35.8752L20.4926 36.0246V36.2512V37.2085V37.4352L20.6631 37.5846L21.5371 38.3504L21.6399 38.4405L21.7743 38.4657L23.2299 38.739L24.6575 39.4895L25.1903 40.5789V41.7665L24.6729 42.6732L23.1634 43.4668L22.8961 43.6073V43.9093V44.581L22.5872 44.9289L22.3666 44.7356V43.7179V43.3633L22.032 43.246L21.0693 42.9086L20.0724 41.7175V41.1457L20.2544 40.9597L20.4926 41.1685V41.7076V41.9543L20.6884 42.1044L21.5624 42.7745L21.697 42.8777H21.8666H23.1776H23.3657L23.5071 42.7538L24.4903 41.8922L24.6608 41.7429V41.5162V40.4632V40.2189L24.4681 40.0687L23.4848 39.3029L23.3806 39.2217L23.2498 39.2026L22.0235 39.0235L21.0689 38.5217L20.0597 37.557L19.9738 36.1271L21.0603 34.7785L21.9937 34.5331L22.3666 34.4351V34.0495Z"/>
</mask>
<path fill-rule="evenodd" clip-rule="evenodd" d="M31.401 34.3367L22.4129 29.5504L13.4247 34.3367V43.9093L22.4129 48.6956L31.401 43.9093V34.3367ZM22.9316 32.0224L22.6314 31.7969L22.3311 32.0224L21.5663 32.5968L21.3666 32.7468V32.9966V33.664L20.647 33.8532L20.4879 33.895L20.3848 34.0231L19.0738 35.6504L18.9525 35.801L18.9641 35.994L19.0733 37.8128L19.0851 38.0087L19.2269 38.1443L20.4286 39.293L20.4794 39.3415L20.5415 39.3741L21.6339 39.9485L21.7097 39.9883L21.7944 40.0007L22.9746 40.173L23.6608 40.7075V41.2895L22.9895 41.8777H22.0362L21.4926 41.4609V40.9418V40.7152L21.3221 40.5658L20.5574 39.8957L20.2014 39.5838L19.8705 39.9221L19.215 40.5922L19.0724 40.7379V40.9418V41.8991V42.0807L19.189 42.22L20.3907 43.6559L20.479 43.7613L20.6088 43.8068L21.3666 44.0725V44.9623V45.189L21.5371 45.3384L22.3018 46.0085L22.6755 46.3359L23.0053 45.9643L23.77 45.1028L23.8961 44.9608V44.7709V44.2114L25.2675 43.4904L25.3967 43.4224L25.4691 43.2956L26.1246 42.1469L26.1903 42.0317V41.8991V40.4632V40.3475L26.1395 40.2435L25.484 38.9033L25.4122 38.7565L25.2675 38.6805L23.6288 37.8189L23.5622 37.784L23.4884 37.7701L22.0933 37.5081L21.4926 36.9818V36.4779L22.0547 35.9854H23.2243L23.8793 36.4956V37.2085V37.4352L24.0498 37.5846L24.7053 38.1589L25.0348 38.4477L25.3643 38.1589L26.0198 37.5846L26.1903 37.4352V37.2085V35.8683V35.7254L26.1148 35.6041L25.4593 34.5511L25.3809 34.4252L25.2465 34.3624L23.8961 33.7313V32.9966V32.7468L23.6964 32.5968L22.9316 32.0224ZM22.3666 34.0495V33.2463L22.6314 33.0475L22.8961 33.2463V34.0495V34.3678L23.1844 34.5025L24.6887 35.2055L25.1903 36.0113V36.9818L25.0348 37.1181L24.8793 36.9818V36.2512V36.0069L24.6866 35.8568L23.7033 35.091L23.5678 34.9854H23.3961H21.8666H21.6785L21.5371 35.1094L20.6631 35.8752L20.4926 36.0246V36.2512V37.2085V37.4352L20.6631 37.5846L21.5371 38.3504L21.6399 38.4405L21.7743 38.4657L23.2299 38.739L24.6575 39.4895L25.1903 40.5789V41.7665L24.6729 42.6732L23.1634 43.4668L22.8961 43.6073V43.9093V44.581L22.5872 44.9289L22.3666 44.7356V43.7179V43.3633L22.032 43.246L21.0693 42.9086L20.0724 41.7175V41.1457L20.2544 40.9597L20.4926 41.1685V41.7076V41.9543L20.6884 42.1044L21.5624 42.7745L21.697 42.8777H21.8666H23.1776H23.3657L23.5071 42.7538L24.4903 41.8922L24.6608 41.7429V41.5162V40.4632V40.2189L24.4681 40.0687L23.4848 39.3029L23.3806 39.2217L23.2498 39.2026L22.0235 39.0235L21.0689 38.5217L20.0597 37.557L19.9738 36.1271L21.0603 34.7785L21.9937 34.5331L22.3666 34.4351V34.0495Z" fill="#00F0FF"/>
<path d="M22.4129 29.5504L22.8829 28.6678L22.4129 28.4175L21.9428 28.6678L22.4129 29.5504ZM31.401 34.3367H32.401V33.7363L31.871 33.4541L31.401 34.3367ZM13.4247 34.3367L12.9547 33.4541L12.4247 33.7363V34.3367H13.4247ZM13.4247 43.9093H12.4247V44.5098L12.9547 44.792L13.4247 43.9093ZM22.4129 48.6956L21.9428 49.5783L22.4129 49.8286L22.8829 49.5783L22.4129 48.6956ZM31.401 43.9093L31.871 44.792L32.401 44.5098V43.9093H31.401ZM22.6314 31.7969L23.2319 30.9973L22.6314 30.5463L22.0308 30.9973L22.6314 31.7969ZM22.9316 32.0224L23.5322 31.2228L23.5322 31.2228L22.9316 32.0224ZM22.3311 32.0224L21.7305 31.2228V31.2228L22.3311 32.0224ZM21.5663 32.5968L20.9658 31.7972L20.9658 31.7972L21.5663 32.5968ZM21.3666 32.7468L20.7661 31.9472L20.3666 32.2472V32.7468H21.3666ZM21.3666 33.664L21.6208 34.6311L22.3666 34.4351V33.664H21.3666ZM20.647 33.8532L20.3928 32.886L20.3928 32.886L20.647 33.8532ZM20.4879 33.895L20.2337 32.9278L19.9156 33.0115L19.7092 33.2676L20.4879 33.895ZM20.3848 34.0231L19.606 33.3957L19.606 33.3957L20.3848 34.0231ZM19.0738 35.6504L18.295 35.023L18.295 35.023L19.0738 35.6504ZM18.9525 35.801L18.1737 35.1737L17.9311 35.4749L17.9543 35.861L18.9525 35.801ZM18.9641 35.994L17.9659 36.054V36.054L18.9641 35.994ZM19.0733 37.8128L18.0751 37.8728V37.8728L19.0733 37.8128ZM19.0851 38.0087L18.0869 38.0687L18.1104 38.4604L18.3941 38.7316L19.0851 38.0087ZM19.2269 38.1443L18.5359 38.8672L18.5359 38.8672L19.2269 38.1443ZM20.4286 39.293L21.1196 38.5701L21.1196 38.5701L20.4286 39.293ZM20.4794 39.3415L19.7884 40.0644L19.8898 40.1613L20.014 40.2266L20.4794 39.3415ZM20.5415 39.3741L20.0761 40.2593L20.0761 40.2593L20.5415 39.3741ZM21.6339 39.9485L21.1686 40.8336L21.1686 40.8336L21.6339 39.9485ZM21.7097 39.9883L21.2443 40.8735L21.3958 40.9531L21.5652 40.9778L21.7097 39.9883ZM21.7944 40.0007L21.6499 40.9902L21.6499 40.9902L21.7944 40.0007ZM22.9746 40.173L23.5891 39.3841L23.3806 39.2217L23.1191 39.1835L22.9746 40.173ZM23.6608 40.7075H24.6608V40.2189L24.2753 39.9186L23.6608 40.7075ZM23.6608 41.2895L24.3199 42.0416L24.6608 41.7429V41.2895H23.6608ZM22.9895 41.8777V42.8777H23.3657L23.6486 42.6298L22.9895 41.8777ZM22.0362 41.8777L21.4278 42.6713L21.697 42.8777H22.0362V41.8777ZM21.4926 41.4609H20.4926V41.9543L20.8842 42.2545L21.4926 41.4609ZM21.4926 40.7152H22.4926V40.2618L22.1517 39.963L21.4926 40.7152ZM21.3221 40.5658L21.9812 39.8136L21.9812 39.8136L21.3221 40.5658ZM20.5574 39.8957L21.2164 39.1436H21.2164L20.5574 39.8957ZM20.2014 39.5838L20.8605 38.8317L20.1485 38.2078L19.4866 38.8845L20.2014 39.5838ZM19.8705 39.9221L20.5853 40.6214H20.5853L19.8705 39.9221ZM19.215 40.5922L18.5001 39.8929H18.5001L19.215 40.5922ZM19.0724 40.7379L18.3576 40.0387L18.0724 40.3302V40.7379H19.0724ZM19.0724 42.0807H18.0724V42.444L18.3055 42.7225L19.0724 42.0807ZM19.189 42.22L19.9558 41.5782L19.9558 41.5782L19.189 42.22ZM20.3907 43.6559L19.6238 44.2977L20.3907 43.6559ZM20.479 43.7613L19.7121 44.4032L19.8886 44.6141L20.1482 44.7051L20.479 43.7613ZM20.6088 43.8068L20.9395 42.8631L20.9395 42.8631L20.6088 43.8068ZM21.3666 44.0725H22.3666V43.3633L21.6974 43.1287L21.3666 44.0725ZM21.3666 45.189H20.3666V45.6423L20.7076 45.9411L21.3666 45.189ZM21.5371 45.3384L22.1961 44.5863L22.1961 44.5863L21.5371 45.3384ZM22.3018 46.0085L21.6428 46.7606L22.3018 46.0085ZM22.6755 46.3359L22.0165 47.088L22.7638 47.7428L23.4234 46.9997L22.6755 46.3359ZM23.0053 45.9643L22.2574 45.3005L22.2574 45.3005L23.0053 45.9643ZM23.77 45.1028L24.5179 45.7666L24.5179 45.7666L23.77 45.1028ZM23.8961 44.9608L24.644 45.6246L24.8961 45.3406V44.9608H23.8961ZM23.8961 44.2114L23.4307 43.3262L22.8961 43.6073V44.2114H23.8961ZM25.2675 43.4904L24.8021 42.6052L25.2675 43.4904ZM25.3967 43.4224L25.8621 44.3076L26.1205 44.1717L26.2653 43.918L25.3967 43.4224ZM25.4691 43.2956L26.3376 43.7912L26.3376 43.7912L25.4691 43.2956ZM26.1246 42.1469L26.9931 42.6425L26.9931 42.6425L26.1246 42.1469ZM26.1903 42.0317L27.0588 42.5273L27.1903 42.2969V42.0317H26.1903ZM26.1903 40.3475H27.1903V40.116L27.0886 39.9081L26.1903 40.3475ZM26.1395 40.2435L27.0378 39.8041L27.0378 39.8041L26.1395 40.2435ZM25.484 38.9033L26.3823 38.464L26.3823 38.464L25.484 38.9033ZM25.4122 38.7565L26.3105 38.3171L26.1668 38.0235L25.8775 37.8714L25.4122 38.7565ZM25.2675 38.6805L24.8021 39.5656L25.2675 38.6805ZM23.6288 37.8189L24.0941 36.9338L24.0941 36.9338L23.6288 37.8189ZM23.5622 37.784L24.0276 36.8988L23.8945 36.8289L23.7468 36.8011L23.5622 37.784ZM23.4884 37.7701L23.3038 38.7529L23.3038 38.7529L23.4884 37.7701ZM22.0933 37.5081L21.4343 38.2603L21.6399 38.4405L21.9087 38.491L22.0933 37.5081ZM21.4926 36.9818H20.4926V37.4352L20.8336 37.734L21.4926 36.9818ZM21.4926 36.4779L20.8336 35.7258L20.4926 36.0246V36.4779H21.4926ZM22.0547 35.9854V34.9854H21.6785L21.3957 35.2333L22.0547 35.9854ZM23.2243 35.9854L23.8388 35.1965L23.5678 34.9854H23.2243V35.9854ZM23.8793 36.4956H24.8793V36.0069L24.4938 35.7066L23.8793 36.4956ZM23.8793 37.4352H22.8793V37.8885L23.2203 38.1873L23.8793 37.4352ZM24.0498 37.5846L23.3908 38.3367L24.0498 37.5846ZM24.7053 38.1589L25.3643 37.4068L25.3643 37.4068L24.7053 38.1589ZM25.0348 38.4477L24.3758 39.1998L25.0348 39.7772L25.6938 39.1998L25.0348 38.4477ZM25.3643 38.1589L24.7053 37.4068L24.7053 37.4068L25.3643 38.1589ZM26.0198 37.5846L26.6788 38.3367L26.6788 38.3367L26.0198 37.5846ZM26.1903 37.4352L26.8493 38.1873L27.1903 37.8885V37.4352H26.1903ZM26.1903 35.7254H27.1903V35.4396L27.0392 35.197L26.1903 35.7254ZM26.1148 35.6041L26.9637 35.0756L26.9637 35.0756L26.1148 35.6041ZM25.4593 34.5511L24.6103 35.0796V35.0796L25.4593 34.5511ZM25.3809 34.4252L26.2298 33.8967L26.073 33.6448L25.8043 33.5192L25.3809 34.4252ZM25.2465 34.3624L25.6699 33.4564L25.6699 33.4564L25.2465 34.3624ZM23.8961 33.7313H22.8961V34.3678L23.4727 34.6373L23.8961 33.7313ZM23.8961 32.7468H24.8961V32.2472L24.4966 31.9472L23.8961 32.7468ZM23.6964 32.5968L23.0958 33.3964L23.0958 33.3964L23.6964 32.5968ZM22.3666 33.2463L21.7661 32.4468L21.3666 32.7468V33.2463H22.3666ZM22.6314 33.0475L23.2319 32.2479L22.6314 31.7969L22.0308 32.2479L22.6314 33.0475ZM22.8961 33.2463H23.8961V32.7468L23.4966 32.4468L22.8961 33.2463ZM22.8961 34.3678H21.8961V35.0043L22.4727 35.2737L22.8961 34.3678ZM23.1844 34.5025L22.761 35.4085L23.1844 34.5025ZM24.6887 35.2055L25.5377 34.6771L25.3809 34.4252L25.1121 34.2996L24.6887 35.2055ZM25.1903 36.0113H26.1903V35.7254L26.0392 35.4828L25.1903 36.0113ZM25.1903 36.9818L25.8493 37.734L26.1903 37.4352V36.9818H25.1903ZM25.0348 37.1181L24.3758 37.8702L25.0348 38.4477L25.6938 37.8702L25.0348 37.1181ZM24.8793 36.9818H23.8793V37.4352L24.2203 37.734L24.8793 36.9818ZM24.8793 36.0069H25.8793V35.5183L25.4938 35.218L24.8793 36.0069ZM24.6866 35.8568L25.301 35.0678L25.301 35.0678L24.6866 35.8568ZM23.7033 35.091L23.0888 35.8799L23.7033 35.091ZM23.5678 34.9854L24.1823 34.1965L23.9113 33.9854H23.5678V34.9854ZM21.6785 34.9854V33.9854H21.3024L21.0195 34.2333L21.6785 34.9854ZM21.5371 35.1094L20.8781 34.3573L20.8781 34.3573L21.5371 35.1094ZM20.6631 35.8752L20.0041 35.1231L20.0041 35.1231L20.6631 35.8752ZM20.4926 36.0246L19.8336 35.2725L19.4926 35.5712V36.0246H20.4926ZM20.4926 37.4352H19.4926V37.8885L19.8336 38.1873L20.4926 37.4352ZM20.6631 37.5846L20.0041 38.3367L20.0041 38.3367L20.6631 37.5846ZM21.5371 38.3504L22.1961 37.5983L22.1961 37.5983L21.5371 38.3504ZM21.6399 38.4405L20.9809 39.1926L21.1866 39.3729L21.4554 39.4233L21.6399 38.4405ZM21.7743 38.4657L21.9589 37.4829L21.9589 37.4829L21.7743 38.4657ZM23.2299 38.739L23.6953 37.8539L23.5622 37.784L23.4145 37.7562L23.2299 38.739ZM24.6575 39.4895L25.5558 39.0502L25.4122 38.7565L25.1228 38.6044L24.6575 39.4895ZM25.1903 40.5789H26.1903V40.3475L26.0886 40.1396L25.1903 40.5789ZM25.1903 41.7665L26.0588 42.2621L26.1903 42.0317V41.7665H25.1903ZM24.6729 42.6732L25.1382 43.5583L25.3967 43.4224L25.5414 43.1688L24.6729 42.6732ZM23.1634 43.4668L23.6288 44.3519L23.6288 44.3519L23.1634 43.4668ZM22.8961 43.6073L22.4307 42.7222L21.8961 43.0033V43.6073H22.8961ZM22.8961 44.581L23.644 45.2448L23.8961 44.9608V44.581H22.8961ZM22.5872 44.9289L21.9282 45.6811L22.6755 46.3359L23.3351 45.5928L22.5872 44.9289ZM22.3666 44.7356H21.3666V45.189L21.7076 45.4878L22.3666 44.7356ZM22.3666 43.3633H23.3666V42.6542L22.6974 42.4196L22.3666 43.3633ZM22.032 43.246L22.3628 42.3023L22.3628 42.3023L22.032 43.246ZM21.0693 42.9086L20.3024 43.5504L20.479 43.7613L20.7385 43.8523L21.0693 42.9086ZM20.0724 41.7175H19.0724V42.0807L19.3055 42.3593L20.0724 41.7175ZM20.0724 41.1457L19.3576 40.4464L19.0724 40.7379V41.1457H20.0724ZM20.2544 40.9597L20.9134 40.2076L20.2014 39.5838L19.5395 40.2604L20.2544 40.9597ZM20.4926 41.1685H21.4926V40.7151L21.1517 40.4164L20.4926 41.1685ZM20.4926 41.9543H19.4926V42.4477L19.8842 42.7479L20.4926 41.9543ZM20.6884 42.1044L21.2969 41.3108L21.2968 41.3108L20.6884 42.1044ZM21.5624 42.7745L20.9539 43.5681L20.9539 43.5681L21.5624 42.7745ZM21.697 42.8777L21.0886 43.6713L21.3578 43.8777H21.697V42.8777ZM23.3657 42.8777V43.8777H23.7418L24.0247 43.6298L23.3657 42.8777ZM23.5071 42.7538L22.8481 42.0017L22.8481 42.0017L23.5071 42.7538ZM24.4903 41.8922L25.1494 42.6444L25.1494 42.6444L24.4903 41.8922ZM24.6608 41.7429L25.3199 42.495L25.6608 42.1962V41.7429H24.6608ZM24.6608 40.2189H25.6608V39.7302L25.2753 39.4299L24.6608 40.2189ZM24.4681 40.0687L25.0825 39.2798L25.0825 39.2798L24.4681 40.0687ZM23.4848 39.3029L22.8703 40.0919L22.8704 40.0919L23.4848 39.3029ZM23.3806 39.2217L23.9951 38.4328L23.7866 38.2704L23.5251 38.2322L23.3806 39.2217ZM23.2498 39.2026L23.1053 40.1921L23.1053 40.1921L23.2498 39.2026ZM22.0235 39.0235L21.5582 39.9087L21.7097 39.9883L21.879 40.0131L22.0235 39.0235ZM21.0689 38.5217L20.3779 39.2445L20.4794 39.3415L20.6036 39.4068L21.0689 38.5217ZM20.0597 37.557L19.0615 37.617L19.0851 38.0087L19.3688 38.2799L20.0597 37.557ZM19.9738 36.1271L19.1951 35.4998L18.9525 35.801L18.9756 36.1871L19.9738 36.1271ZM21.0603 34.7785L20.8061 33.8113L20.4879 33.895L20.2816 34.1511L21.0603 34.7785ZM21.9937 34.5331L22.248 35.5003H22.248L21.9937 34.5331ZM22.3666 34.4351L22.6208 35.4022L23.3666 35.2062V34.4351H22.3666ZM21.9428 30.4331L30.9309 35.2194L31.871 33.4541L22.8829 28.6678L21.9428 30.4331ZM13.8948 35.2194L22.8829 30.4331L21.9428 28.6678L12.9547 33.4541L13.8948 35.2194ZM14.4247 43.9093V34.3367H12.4247V43.9093H14.4247ZM22.8829 47.813L13.8948 43.0267L12.9547 44.792L21.9428 49.5783L22.8829 47.813ZM30.9309 43.0267L21.9428 47.813L22.8829 49.5783L31.871 44.792L30.9309 43.0267ZM30.401 34.3367V43.9093H32.401V34.3367H30.401ZM22.0308 32.5965L22.3311 32.822L23.5322 31.2228L23.2319 30.9973L22.0308 32.5965ZM22.9316 32.822L23.2319 32.5965L22.0308 30.9973L21.7305 31.2228L22.9316 32.822ZM22.1669 33.3964L22.9316 32.822L21.7305 31.2228L20.9658 31.7972L22.1669 33.3964ZM21.9672 33.5464L22.1669 33.3964L20.9658 31.7972L20.7661 31.9472L21.9672 33.5464ZM22.3666 32.9966V32.7468H20.3666V32.9966H22.3666ZM22.3666 33.664V32.9966H20.3666V33.664H22.3666ZM20.9012 34.8203L21.6208 34.6311L21.1124 32.6969L20.3928 32.886L20.9012 34.8203ZM20.7422 34.8621L20.9012 34.8203L20.3928 32.886L20.2337 32.9278L20.7422 34.8621ZM21.1635 34.6504L21.2667 34.5223L19.7092 33.2676L19.606 33.3957L21.1635 34.6504ZM19.8525 36.2777L21.1635 34.6504L19.606 33.3957L18.295 35.023L19.8525 36.2777ZM19.7312 36.4283L19.8525 36.2777L18.295 35.023L18.1737 35.1737L19.7312 36.4283ZM19.9623 35.9341L19.9507 35.741L17.9543 35.861L17.9659 36.054L19.9623 35.9341ZM20.0715 37.7529L19.9623 35.9341L17.9659 36.054L18.0751 37.8728L20.0715 37.7529ZM20.0833 37.9488L20.0715 37.7529L18.0751 37.8728L18.0869 38.0687L20.0833 37.9488ZM19.9179 37.4214L19.776 37.2858L18.3941 38.7316L18.5359 38.8672L19.9179 37.4214ZM21.1196 38.5701L19.9179 37.4214L18.5359 38.8672L19.7377 40.0159L21.1196 38.5701ZM21.1703 38.6186L21.1196 38.5701L19.7377 40.0159L19.7884 40.0644L21.1703 38.6186ZM21.0068 38.489L20.9447 38.4564L20.014 40.2266L20.0761 40.2593L21.0068 38.489ZM22.0993 39.0634L21.0068 38.489L20.0761 40.2593L21.1686 40.8336L22.0993 39.0634ZM22.175 39.1032L22.0993 39.0634L21.1686 40.8336L21.2443 40.8735L22.175 39.1032ZM21.9389 39.0112L21.8542 38.9988L21.5652 40.9778L21.6499 40.9902L21.9389 39.0112ZM23.1191 39.1835L21.9389 39.0112L21.6499 40.9902L22.8301 41.1625L23.1191 39.1835ZM24.2753 39.9186L23.5891 39.3841L22.3601 40.962L23.0463 41.4965L24.2753 39.9186ZM24.6608 41.2895V40.7075H22.6608V41.2895H24.6608ZM23.6486 42.6298L24.3199 42.0416L23.0018 40.5374L22.3305 41.1256L23.6486 42.6298ZM22.0362 42.8777H22.9895V40.8777H22.0362V42.8777ZM20.8842 42.2545L21.4278 42.6713L22.6447 41.0841L22.1011 40.6673L20.8842 42.2545ZM20.4926 40.9418V41.4609H22.4926V40.9418H20.4926ZM20.4926 40.7152V40.9418H22.4926V40.7152H20.4926ZM20.6631 41.3179L20.8336 41.4673L22.1517 39.963L21.9812 39.8136L20.6631 41.3179ZM19.8984 40.6478L20.6631 41.3179L21.9812 39.8136L21.2164 39.1436L19.8984 40.6478ZM19.5424 40.3359L19.8984 40.6478L21.2164 39.1436L20.8605 38.8317L19.5424 40.3359ZM20.5853 40.6214L20.9163 40.2831L19.4866 38.8845L19.1556 39.2228L20.5853 40.6214ZM19.9298 41.2915L20.5853 40.6214L19.1556 39.2228L18.5001 39.8929L19.9298 41.2915ZM19.7873 41.4372L19.9298 41.2915L18.5001 39.8929L18.3576 40.0387L19.7873 41.4372ZM20.0724 40.9418V40.7379H18.0724V40.9418H20.0724ZM20.0724 41.8991V40.9418H18.0724V41.8991H20.0724ZM20.0724 42.0807V41.8991H18.0724V42.0807H20.0724ZM19.9558 41.5782L19.8393 41.4389L18.3055 42.7225L18.4221 42.8618L19.9558 41.5782ZM21.1576 43.0141L19.9558 41.5782L18.4221 42.8618L19.6238 44.2977L21.1576 43.0141ZM21.2458 43.1195L21.1576 43.0141L19.6238 44.2977L19.7121 44.4032L21.2458 43.1195ZM20.9395 42.8631L20.8097 42.8176L20.1482 44.7051L20.278 44.7506L20.9395 42.8631ZM21.6974 43.1287L20.9395 42.8631L20.278 44.7505L21.0359 45.0162L21.6974 43.1287ZM22.3666 44.9623V44.0725H20.3666V44.9623H22.3666ZM22.3666 45.189V44.9623H20.3666V45.189H22.3666ZM22.1961 44.5863L22.0256 44.4369L20.7076 45.9411L20.8781 46.0905L22.1961 44.5863ZM22.9609 45.2563L22.1961 44.5863L20.8781 46.0905L21.6428 46.7606L22.9609 45.2563ZM23.3345 45.5837L22.9609 45.2563L21.6428 46.7606L22.0165 47.088L23.3345 45.5837ZM22.2574 45.3005L21.9276 45.672L23.4234 46.9997L23.7532 46.6282L22.2574 45.3005ZM23.0222 44.4389L22.2574 45.3005L23.7532 46.6282L24.5179 45.7666L23.0222 44.4389ZM23.1482 44.2969L23.0221 44.439L24.5179 45.7666L24.644 45.6246L23.1482 44.2969ZM22.8961 44.7709V44.9608H24.8961V44.7709H22.8961ZM22.8961 44.2114V44.7709H24.8961V44.2114H22.8961ZM24.8021 42.6052L23.4307 43.3262L24.3614 45.0965L25.7328 44.3755L24.8021 42.6052ZM24.9314 42.5373L24.8021 42.6052L25.7328 44.3755L25.8621 44.3076L24.9314 42.5373ZM24.6005 42.8L24.5282 42.9268L26.2653 43.918L26.3376 43.7912L24.6005 42.8ZM25.256 41.6513L24.6005 42.8L26.3376 43.7912L26.9931 42.6425L25.256 41.6513ZM25.3218 41.5361L25.256 41.6513L26.9931 42.6425L27.0588 42.5273L25.3218 41.5361ZM25.1903 41.8991V42.0317H27.1903V41.8991H25.1903ZM25.1903 40.4632V41.8991H27.1903V40.4632H25.1903ZM25.1903 40.3475V40.4632H27.1903V40.3475H25.1903ZM25.2411 40.6829L25.292 40.7868L27.0886 39.9081L27.0378 39.8041L25.2411 40.6829ZM24.5857 39.3427L25.2411 40.6829L27.0378 39.8041L26.3823 38.464L24.5857 39.3427ZM24.5138 39.1959L24.5857 39.3427L26.3823 38.464L26.3105 38.3171L24.5138 39.1959ZM24.8021 39.5656L24.9468 39.6417L25.8775 37.8714L25.7328 37.7953L24.8021 39.5656ZM23.1634 38.7041L24.8021 39.5656L25.7328 37.7953L24.0941 36.9338L23.1634 38.7041ZM23.0969 38.6691L23.1634 38.7041L24.0941 36.9338L24.0276 36.8988L23.0969 38.6691ZM23.3038 38.7529L23.3777 38.7668L23.7468 36.8011L23.6729 36.7873L23.3038 38.7529ZM21.9087 38.491L23.3038 38.7529L23.6729 36.7873L22.2778 36.5253L21.9087 38.491ZM20.8336 37.734L21.4343 38.2603L22.7523 36.756L22.1517 36.2297L20.8336 37.734ZM20.4926 36.4779V36.9818H22.4926V36.4779H20.4926ZM21.3957 35.2333L20.8336 35.7258L22.1517 37.23L22.7137 36.7376L21.3957 35.2333ZM23.2243 34.9854H22.0547V36.9854H23.2243V34.9854ZM24.4938 35.7066L23.8388 35.1965L22.6099 36.7744L23.2648 37.2845L24.4938 35.7066ZM24.8793 37.2085V36.4956H22.8793V37.2085H24.8793ZM24.8793 37.4352V37.2085H22.8793V37.4352H24.8793ZM24.7088 36.8324L24.5383 36.6831L23.2203 38.1873L23.3908 38.3367L24.7088 36.8324ZM25.3643 37.4068L24.7088 36.8324L23.3908 38.3367L24.0463 38.911L25.3643 37.4068ZM25.6938 37.6955L25.3643 37.4068L24.0463 38.911L24.3758 39.1998L25.6938 37.6955ZM24.7053 37.4068L24.3758 37.6955L25.6938 39.1998L26.0233 38.911L24.7053 37.4068ZM25.3608 36.8324L24.7053 37.4068L26.0233 38.911L26.6788 38.3367L25.3608 36.8324ZM25.5313 36.6831L25.3608 36.8325L26.6788 38.3367L26.8493 38.1873L25.5313 36.6831ZM25.1903 37.2085V37.4352H27.1903V37.2085H25.1903ZM25.1903 35.8683V37.2085H27.1903V35.8683H25.1903ZM25.1903 35.7254V35.8683H27.1903V35.7254H25.1903ZM25.2658 36.1326L25.3413 36.2539L27.0392 35.197L26.9637 35.0756L25.2658 36.1326ZM24.6103 35.0796L25.2658 36.1326L26.9637 35.0756L26.3082 34.0226L24.6103 35.0796ZM24.5319 34.9537L24.6103 35.0796L26.3082 34.0226L26.2298 33.8967L24.5319 34.9537ZM24.8231 35.2683L24.9575 35.3311L25.8043 33.5192L25.6699 33.4564L24.8231 35.2683ZM23.4727 34.6373L24.8231 35.2683L25.6699 33.4564L24.3195 32.8253L23.4727 34.6373ZM22.8961 32.9966V33.7313H24.8961V32.9966H22.8961ZM22.8961 32.7468V32.9966H24.8961V32.7468H22.8961ZM23.0958 33.3964L23.2956 33.5464L24.4966 31.9472L24.2969 31.7972L23.0958 33.3964ZM22.3311 32.822L23.0958 33.3964L24.2969 31.7972L23.5322 31.2228L22.3311 32.822ZM21.3666 33.2463V34.0495H23.3666V33.2463H21.3666ZM22.0308 32.2479L21.7661 32.4468L22.9672 34.0459L23.2319 33.8471L22.0308 32.2479ZM23.4966 32.4468L23.2319 32.2479L22.0308 33.8471L22.2956 34.0459L23.4966 32.4468ZM23.8961 34.0495V33.2463H21.8961V34.0495H23.8961ZM23.8961 34.3678V34.0495H21.8961V34.3678H23.8961ZM23.6078 33.5966L23.3195 33.4618L22.4727 35.2737L22.761 35.4085L23.6078 33.5966ZM25.1121 34.2996L23.6078 33.5966L22.761 35.4085L24.2654 36.1115L25.1121 34.2996ZM26.0392 35.4828L25.5377 34.6771L23.8398 35.734L24.3413 36.5397L26.0392 35.4828ZM26.1903 36.9818V36.0113H24.1903V36.9818H26.1903ZM25.6938 37.8702L25.8493 37.734L24.5313 36.2297L24.3758 36.366L25.6938 37.8702ZM24.2203 37.734L24.3758 37.8702L25.6938 36.366L25.5383 36.2297L24.2203 37.734ZM23.8793 36.2512V36.9818H25.8793V36.2512H23.8793ZM23.8793 36.0069V36.2512H25.8793V36.0069H23.8793ZM24.0721 36.6457L24.2648 36.7958L25.4938 35.218L25.301 35.0678L24.0721 36.6457ZM23.0888 35.8799L24.0721 36.6457L25.301 35.0678L24.3178 34.302L23.0888 35.8799ZM22.9534 35.7744L23.0888 35.8799L24.3178 34.302L24.1823 34.1965L22.9534 35.7744ZM23.3961 35.9854H23.5678V33.9854H23.3961V35.9854ZM21.8666 35.9854H23.3961V33.9854H21.8666V35.9854ZM21.6785 35.9854H21.8666V33.9854H21.6785V35.9854ZM22.1961 35.8615L22.3376 35.7376L21.0195 34.2333L20.8781 34.3573L22.1961 35.8615ZM21.3221 36.6273L22.1961 35.8615L20.8781 34.3573L20.0041 35.1231L21.3221 36.6273ZM21.1517 36.7767L21.3221 36.6273L20.0041 35.1231L19.8336 35.2725L21.1517 36.7767ZM21.4926 36.2512V36.0246H19.4926V36.2512H21.4926ZM21.4926 37.2085V36.2512H19.4926V37.2085H21.4926ZM21.4926 37.4352V37.2085H19.4926V37.4352H21.4926ZM21.3221 36.8325L21.1517 36.6831L19.8336 38.1873L20.0041 38.3367L21.3221 36.8325ZM22.1961 37.5983L21.3221 36.8324L20.0041 38.3367L20.8781 39.1025L22.1961 37.5983ZM22.299 37.6884L22.1961 37.5983L20.8781 39.1025L20.9809 39.1926L22.299 37.6884ZM21.9589 37.4829L21.8245 37.4577L21.4554 39.4233L21.5898 39.4486L21.9589 37.4829ZM23.4145 37.7562L21.9589 37.4829L21.5898 39.4486L23.0454 39.7219L23.4145 37.7562ZM25.1228 38.6044L23.6953 37.8539L22.7646 39.6242L24.1921 40.3747L25.1228 38.6044ZM26.0886 40.1396L25.5558 39.0502L23.7592 39.9289L24.292 41.0183L26.0886 40.1396ZM26.1903 41.7665V40.5789H24.1903V41.7665H26.1903ZM25.5414 43.1688L26.0588 42.2621L24.3218 41.2709L23.8044 42.1776L25.5414 43.1688ZM23.6288 44.3519L25.1382 43.5583L24.2076 41.788L22.6981 42.5816L23.6288 44.3519ZM23.3614 44.4924L23.6288 44.3519L22.6981 42.5816L22.4307 42.7222L23.3614 44.4924ZM23.8961 43.9093V43.6073H21.8961V43.9093H23.8961ZM23.8961 44.581V43.9093H21.8961V44.581H23.8961ZM23.3351 45.5928L23.644 45.2448L22.1482 43.9171L21.8393 44.2651L23.3351 45.5928ZM21.7076 45.4878L21.9282 45.6811L23.2462 44.1768L23.0256 43.9835L21.7076 45.4878ZM21.3666 43.7179V44.7356H23.3666V43.7179H21.3666ZM21.3666 43.3633V43.7179H23.3666V43.3633H21.3666ZM21.7012 44.1897L22.0358 44.307L22.6974 42.4196L22.3628 42.3023L21.7012 44.1897ZM20.7385 43.8523L21.7012 44.1897L22.3628 42.3023L21.4001 41.9649L20.7385 43.8523ZM19.3055 42.3593L20.3024 43.5504L21.8362 42.2668L20.8393 41.0757L19.3055 42.3593ZM19.0724 41.1457V41.7175H21.0724V41.1457H19.0724ZM19.5395 40.2604L19.3576 40.4464L20.7872 41.845L20.9692 41.659L19.5395 40.2604ZM21.1517 40.4164L20.9134 40.2076L19.5953 41.7118L19.8336 41.9206L21.1517 40.4164ZM21.4926 41.7076V41.1685H19.4926V41.7076H21.4926ZM21.4926 41.9543V41.7076H19.4926V41.9543H21.4926ZM21.2968 41.3108L21.1011 41.1607L19.8842 42.7479L20.08 42.898L21.2968 41.3108ZM22.1708 41.9809L21.2969 41.3108L20.08 42.898L20.9539 43.5681L22.1708 41.9809ZM22.3054 42.0841L22.1708 41.9809L20.9539 43.5681L21.0886 43.6713L22.3054 42.0841ZM21.8666 41.8777H21.697V43.8777H21.8666V41.8777ZM23.1776 41.8777H21.8666V43.8777H23.1776V41.8777ZM23.3657 41.8777H23.1776V43.8777H23.3657V41.8777ZM22.8481 42.0017L22.7066 42.1256L24.0247 43.6298L24.1661 43.5059L22.8481 42.0017ZM23.8313 41.1401L22.8481 42.0017L24.1661 43.5059L25.1494 42.6444L23.8313 41.1401ZM24.0018 40.9907L23.8313 41.1401L25.1494 42.6444L25.3199 42.495L24.0018 40.9907ZM23.6608 41.5162V41.7429H25.6608V41.5162H23.6608ZM23.6608 40.4632V41.5162H25.6608V40.4632H23.6608ZM23.6608 40.2189V40.4632H25.6608V40.2189H23.6608ZM23.8536 40.8577L24.0463 41.0078L25.2753 39.4299L25.0825 39.2798L23.8536 40.8577ZM22.8704 40.0919L23.8536 40.8577L25.0825 39.2798L24.0993 38.514L22.8704 40.0919ZM22.7661 40.0107L22.8703 40.0919L24.0993 38.514L23.9951 38.4328L22.7661 40.0107ZM23.1053 40.1921L23.2361 40.2112L23.5251 38.2322L23.3943 38.2131L23.1053 40.1921ZM21.879 40.0131L23.1053 40.1921L23.3943 38.2131L22.168 38.034L21.879 40.0131ZM20.6036 39.4068L21.5582 39.9087L22.4889 38.1384L21.5342 37.6365L20.6036 39.4068ZM19.3688 38.2799L20.3779 39.2445L21.7599 37.7988L20.7507 36.8341L19.3688 38.2799ZM18.9756 36.1871L19.0615 37.617L21.0579 37.4971L20.9721 36.0672L18.9756 36.1871ZM20.2816 34.1511L19.1951 35.4998L20.7526 36.7545L21.8391 35.4058L20.2816 34.1511ZM21.7395 33.566L20.8061 33.8113L21.3145 35.7456L22.248 35.5003L21.7395 33.566ZM22.1124 33.468L21.7395 33.566L22.248 35.5003L22.6208 35.4022L22.1124 33.468ZM21.3666 34.0495V34.4351H23.3666V34.0495H21.3666Z" fill="#050A0E" mask="url(#path-2-outside-1_135_1394)"/>
</svg>
