<svg width="30" height="30" viewBox="0 0 30 30" fill="none" xmlns="http://www.w3.org/2000/svg">
<path d="M7.63925 8.01225C9.37067 6.13892 11.719 5.08649 14.1676 5.08649V8.44211C12.5415 8.44211 10.9821 9.141 9.83228 10.385C8.68249 11.6291 8.03654 13.3163 8.03654 15.0757C8.03654 16.835 8.68249 18.5223 9.83228 19.7663C10.2251 20.1913 10.6658 20.5527 11.1405 20.8444V14.3189H14.1676L14.1676 25.0649C11.719 25.0649 9.37067 24.0124 7.63925 22.1391C5.90783 20.2658 4.93513 17.725 4.93514 15.0757C4.93514 12.4264 5.90784 9.88559 7.63925 8.01225Z" fill="white"/>
<path fill-rule="evenodd" clip-rule="evenodd" d="M29 15C29 22.732 22.732 29 15 29C7.26801 29 1 22.732 1 15C1 7.26801 7.26801 1 15 1C22.732 1 29 7.26801 29 15ZM15 28.0919C15.3824 28.0919 15.761 28.0755 16.1351 28.0434V14.3189H19.1622V20.7448C19.5593 20.4702 19.9271 20.142 20.2572 19.7663C20.7985 19.1503 21.2279 18.4191 21.5209 17.6142C21.8138 16.8094 21.9646 15.9468 21.9646 15.0757C21.9646 14.2045 21.8138 13.3419 21.5209 12.5371C21.2279 11.7323 20.7985 11.001 20.2572 10.385C19.7159 9.76905 19.0733 9.28042 18.366 8.94706C17.6587 8.61369 16.9007 8.44211 16.1351 8.44211L16.1351 5.08649C17.2879 5.08649 18.4294 5.34486 19.4945 5.84687C20.5595 6.34887 21.5272 7.08467 22.3424 8.01225C23.1575 8.93983 23.8041 10.041 24.2453 11.253C24.6865 12.4649 24.9135 13.7639 24.9135 15.0757C24.9135 16.3875 24.6865 17.6864 24.2453 18.8984C23.8041 20.1103 23.1575 21.2115 22.3424 22.1391C21.5272 23.0667 20.5595 23.8025 19.4945 24.3045C19.3845 24.3563 19.2737 24.4056 19.1622 24.4522V27.4164C24.3522 25.6774 28.0919 20.7754 28.0919 15C28.0919 7.76955 22.2305 1.90811 15 1.90811C7.76955 1.90811 1.90811 7.76955 1.90811 15C1.90811 22.2305 7.76955 28.0919 15 28.0919Z" fill="white"/>
<rect x="0.75" y="0.75" width="28.5" height="28.5" rx="14.25" stroke="white" stroke-width="1.5"/>
</svg>
