<svg width="30" height="30" viewBox="0 0 30 30" fill="none" xmlns="http://www.w3.org/2000/svg">
<path d="M10.0962 22.4839C10.1724 22.1938 10.2398 21.9214 10.3101 21.6489C10.7437 19.9526 11.1363 18.2505 11.4468 16.5249C11.5992 15.6812 11.7251 14.8315 11.8423 13.979C11.9302 13.3374 11.9771 12.6899 11.9654 12.0396C11.9595 11.6909 11.9449 11.3423 11.8453 11.0054C11.8013 10.856 11.7369 10.7095 11.6578 10.5776C11.5552 10.4077 11.3882 10.3403 11.189 10.3462C10.6382 10.3638 10.1695 10.5718 9.76811 10.9468C9.31401 11.3716 9.01811 11.9019 8.79838 12.4761C8.69584 12.7485 8.61967 13.0298 8.53471 13.3081C8.52299 13.3491 8.51713 13.3843 8.46147 13.3843C8.15385 13.3813 7.8433 13.3813 7.53276 13.3813C7.52397 13.3813 7.51811 13.3755 7.50932 13.3755C7.50932 13.2554 7.4976 13.1353 7.51225 13.0181C7.72905 11.2339 8.4937 9.7251 9.80327 8.50342C10.2925 8.04346 10.8755 7.72705 11.5376 7.5835C12.5103 7.37256 13.2837 7.74463 13.7466 8.63232C13.981 9.0835 14.107 9.56689 14.189 10.0649C14.3208 10.8706 14.3267 11.6821 14.2974 12.4937C14.2886 12.7573 14.271 13.0181 14.2593 13.2817V13.3931C14.2945 13.396 14.3238 13.3989 14.356 13.3989C14.9214 13.3989 15.4869 13.3989 16.0552 13.4019C16.1314 13.4019 16.1548 13.3726 16.1665 13.3022C16.5269 11.3569 17.022 9.44678 17.6607 7.57471C17.6753 7.52783 17.6929 7.49854 17.7515 7.49854C18.4517 7.50146 19.1519 7.50147 19.8521 7.50147C19.8638 7.50147 19.8726 7.5044 19.896 7.50732L19.7759 7.979C19.3042 9.81299 18.8794 11.6587 18.5337 13.519C18.355 14.4858 18.1998 15.4556 18.1031 16.4341C18.0503 16.9819 18.0152 17.5298 18.0328 18.0776C18.0415 18.4087 18.0679 18.7427 18.1705 19.0591C18.2115 19.1851 18.2701 19.3081 18.3404 19.4224C18.4458 19.5835 18.607 19.6509 18.8033 19.645C19.5269 19.6245 20.0806 19.2759 20.5201 18.7251C20.9624 18.1743 21.229 17.5386 21.4165 16.8618C21.4341 16.8003 21.4546 16.7358 21.4634 16.6714C21.4722 16.6216 21.4986 16.6069 21.5455 16.6069C21.8384 16.6069 22.1285 16.6099 22.4214 16.6069C22.4859 16.6069 22.4976 16.6333 22.4947 16.689C22.4859 17.1929 22.398 17.6792 22.2515 18.1567C21.8824 19.3608 21.2789 20.4272 20.3824 21.3179C19.8755 21.8247 19.2808 22.1968 18.5835 22.3843C18.1617 22.4985 17.7369 22.5161 17.3179 22.3667C16.8433 22.1968 16.521 21.8569 16.2808 21.4263C16.0289 20.9722 15.897 20.48 15.8121 19.9761C15.6626 19.0972 15.6626 18.2124 15.7037 17.3247C15.73 16.7681 15.7828 16.2144 15.8238 15.6577C15.8326 15.5376 15.8326 15.5376 15.7154 15.5376H14.1128C14.0484 15.5376 14.0162 15.5522 14.0074 15.6226C13.8374 16.7563 13.6089 17.8784 13.3365 18.9888C13.0523 20.1401 12.7271 21.2798 12.3433 22.4019C12.3169 22.481 12.2789 22.5015 12.1968 22.5015C11.5318 22.4985 10.8667 22.4985 10.1988 22.4985L10.0962 22.4839Z" fill="white"/>
<rect x="0.75" y="0.75" width="28.5" height="28.5" rx="14.25" stroke="white" stroke-width="1.5"/>
</svg>
