<svg width="30" height="30" viewBox="0 0 30 30" fill="none" xmlns="http://www.w3.org/2000/svg">
<g clip-path="url(#clip0_132_1254)">
<path d="M15 1.5625C11.4367 1.56416 8.01974 2.98042 5.50008 5.50008C2.98042 8.01974 1.56416 11.4367 1.5625 15C1.5625 15.1875 1.5625 15.3812 1.5625 15.5687L8.30625 18.0375C8.7559 17.6204 9.30099 17.32 9.89375 17.1625C10.2599 17.062 10.6393 17.0178 11.0187 17.0312C11.1947 17.0428 11.37 17.0637 11.5437 17.0938L15.625 11.325C15.6221 10.2735 15.9667 9.25056 16.6053 8.41524C17.244 7.57993 18.1408 6.97911 19.1562 6.70625C19.6164 6.58278 20.0927 6.53009 20.5687 6.55C21.7174 6.58113 22.8161 7.02652 23.6622 7.80402C24.5083 8.58153 25.0447 9.63872 25.1726 10.7807C25.3005 11.9226 25.0112 13.0723 24.3581 14.0177C23.705 14.9631 22.7321 15.6405 21.6188 15.925C21.2111 16.0334 20.7906 16.086 20.3688 16.0812L14.6063 20.1562C14.7649 21.1114 14.5518 22.0911 14.0106 22.894C13.4693 23.6969 12.6412 24.262 11.6962 24.4732C10.7513 24.6845 9.76131 24.5258 8.92974 24.0298C8.09816 23.5337 7.48814 22.7381 7.225 21.8062C7.18115 21.638 7.14982 21.4667 7.13125 21.2937L2.3625 19.5375C3.19453 21.8519 4.64607 23.8935 6.55884 25.4395C8.47161 26.9856 10.7722 27.9767 13.2096 28.3049C15.6471 28.6331 18.1279 28.2857 20.3814 27.3006C22.635 26.3155 24.5748 24.7306 25.9893 22.7186C27.4039 20.7066 28.2388 18.3449 28.4031 15.8909C28.5674 13.437 28.0547 10.985 26.921 8.80246C25.7873 6.6199 24.0761 4.79052 21.9739 3.51383C19.8718 2.23714 17.4595 1.56216 15 1.5625ZM20.5813 6.5625C20.1052 6.54259 19.6289 6.59528 19.1688 6.71875C17.9498 7.0469 16.9106 7.845 16.2791 8.93809C15.6476 10.0312 15.4753 11.3301 15.8 12.55C16.1282 13.77 16.9276 14.8096 18.0224 15.4402C19.1171 16.0708 20.4175 16.2407 21.6375 15.9125C22.8575 15.5843 23.8971 14.7849 24.5277 13.6901C25.1583 12.5954 25.3282 11.295 25 10.075C24.7391 9.09112 24.1687 8.21725 23.373 7.58249C22.5773 6.94773 21.5985 6.58574 20.5813 6.55V6.5625ZM10.8875 17.0312C9.89004 17.0312 8.93297 17.4253 8.22474 18.1277C7.51651 18.8301 7.11449 19.7838 7.10625 20.7812C7.11449 21.7787 7.51651 22.7324 8.22474 23.4348C8.93297 24.1372 9.89004 24.5313 10.8875 24.5312C11.886 24.5329 12.8447 24.1396 13.5543 23.437C14.2639 22.7345 14.6667 21.7798 14.675 20.7812C14.6758 20.2842 14.5786 19.7918 14.389 19.3323C14.1993 18.8728 13.9209 18.4552 13.5697 18.1035C13.2185 17.7517 12.8014 17.4726 12.3422 17.2822C11.883 17.0918 11.3908 16.9937 10.8938 16.9938L10.8875 17.0312Z" stroke="white" stroke-width="1.33333" stroke-linecap="round" stroke-linejoin="round"/>
</g>
<defs>
<clipPath id="clip0_132_1254">
<rect width="30" height="30" fill="white"/>
</clipPath>
</defs>
</svg>
